<svg width="313" height="24" viewBox="0 0 313 24" fill="none" xmlns="http://www.w3.org/2000/svg">
<path d="M0.176 3.176C0.568 3.19467 1.08133 3.21333 1.716 3.232C2.35067 3.25067 2.976 3.26 3.592 3.26C4.46933 3.26 5.30933 3.25067 6.112 3.232C6.91467 3.21333 7.484 3.204 7.82 3.204C9.78 3.204 11.2547 3.61467 12.244 4.436C13.2333 5.25733 13.728 6.312 13.728 7.6C13.728 8.25333 13.588 8.89733 13.308 9.532C13.0467 10.148 12.5987 10.7173 11.964 11.24C11.348 11.744 10.5173 12.1547 9.472 12.472V12.528C10.9467 12.7147 12.0947 13.0693 12.916 13.592C13.756 14.096 14.344 14.6933 14.68 15.384C15.016 16.0747 15.184 16.8027 15.184 17.568C15.184 18.632 14.9133 19.5747 14.372 20.396C13.8493 21.1987 13.084 21.8333 12.076 22.3C11.068 22.7667 9.864 23 8.464 23C8.05333 23 7.43733 22.9907 6.616 22.972C5.79467 22.9347 4.80533 22.916 3.648 22.916C2.99467 22.916 2.35067 22.9253 1.716 22.944C1.08133 22.944 0.568 22.9627 0.176 23V22.44C0.810667 22.4027 1.28667 22.328 1.604 22.216C1.94 22.104 2.164 21.88 2.276 21.544C2.388 21.208 2.444 20.704 2.444 20.032V6.144C2.444 5.45333 2.388 4.94933 2.276 4.632C2.164 4.296 1.94 4.072 1.604 3.96C1.28667 3.82933 0.810667 3.75467 0.176 3.736V3.176ZM7.12 3.736C6.26133 3.736 5.70133 3.89467 5.44 4.212C5.17867 4.52933 5.048 5.17333 5.048 6.144V20.032C5.048 20.6853 5.104 21.18 5.216 21.516C5.328 21.852 5.53333 22.076 5.832 22.188C6.13067 22.3 6.56933 22.356 7.148 22.356C8.97733 22.356 10.3027 21.936 11.124 21.096C11.964 20.2373 12.384 19.024 12.384 17.456C12.384 16.0187 11.992 14.908 11.208 14.124C10.4427 13.34 9.17333 12.948 7.4 12.948H4.516C4.516 12.948 4.516 12.8733 4.516 12.724C4.516 12.556 4.516 12.472 4.516 12.472H6.924C8.02533 12.472 8.87467 12.2667 9.472 11.856C10.0693 11.4267 10.48 10.8667 10.704 10.176C10.928 9.46667 11.04 8.71067 11.04 7.908C11.04 6.52667 10.732 5.49067 10.116 4.8C9.51867 4.09067 8.52 3.736 7.12 3.736ZM34.4493 8.272V19.976C34.4493 20.816 34.5986 21.4413 34.8973 21.852C35.2146 22.244 35.7746 22.44 36.5773 22.44V23.028C35.9986 22.972 35.42 22.944 34.8413 22.944C34.3 22.944 33.7773 22.972 33.2733 23.028C32.788 23.084 32.34 23.1867 31.9293 23.336V20.032C31.4626 21.2453 30.8 22.1133 29.9413 22.636C29.1013 23.14 28.2333 23.392 27.3373 23.392C26.684 23.392 26.1146 23.2987 25.6293 23.112C25.144 22.9253 24.7426 22.664 24.4253 22.328C24.0706 21.9547 23.828 21.4693 23.6973 20.872C23.5666 20.2747 23.5013 19.5373 23.5013 18.66V11.632C23.5013 10.792 23.352 10.176 23.0533 9.784C22.7546 9.37333 22.1946 9.168 21.3733 9.168V8.58C21.9706 8.636 22.5493 8.664 23.1093 8.664C23.6506 8.664 24.164 8.636 24.6493 8.58C25.1533 8.50533 25.6106 8.40267 26.0213 8.272V19.276C26.0213 19.8547 26.0586 20.3867 26.1333 20.872C26.208 21.3573 26.3946 21.7493 26.6933 22.048C26.992 22.3467 27.4773 22.496 28.1493 22.496C28.8773 22.496 29.5213 22.272 30.0813 21.824C30.66 21.376 31.108 20.7693 31.4253 20.004C31.7613 19.2387 31.9293 18.38 31.9293 17.428V11.632C31.9293 10.792 31.78 10.176 31.4813 9.784C31.1826 9.37333 30.6226 9.168 29.8013 9.168V8.58C30.3986 8.636 30.9773 8.664 31.5373 8.664C32.0786 8.664 32.592 8.636 33.0773 8.58C33.5813 8.50533 34.0386 8.40267 34.4493 8.272ZM49.4868 8.188C50.0842 8.188 50.6628 8.26267 51.2228 8.412C51.7828 8.56133 52.2868 8.78533 52.7348 9.084C53.1642 9.364 53.4908 9.69067 53.7148 10.064C53.9388 10.4187 54.0508 10.8107 54.0508 11.24C54.0508 11.744 53.9108 12.136 53.6308 12.416C53.3508 12.6773 52.9962 12.808 52.5668 12.808C52.1562 12.808 51.7922 12.6867 51.4748 12.444C51.1762 12.2013 51.0268 11.856 51.0268 11.408C51.0268 10.9787 51.1388 10.6333 51.3628 10.372C51.6055 10.1107 51.8855 9.94267 52.2028 9.868C52.0162 9.532 51.6802 9.252 51.1948 9.028C50.7282 8.804 50.2242 8.692 49.6828 8.692C49.2162 8.692 48.7495 8.804 48.2828 9.028C47.8162 9.252 47.3868 9.62533 46.9948 10.148C46.6028 10.652 46.2855 11.352 46.0428 12.248C45.8002 13.1253 45.6788 14.2267 45.6788 15.552C45.6788 17.1947 45.8655 18.5013 46.2388 19.472C46.6122 20.4427 47.0975 21.1427 47.6948 21.572C48.3108 21.9827 48.9828 22.188 49.7108 22.188C50.1962 22.188 50.6908 22.0947 51.1948 21.908C51.6988 21.7213 52.1748 21.4227 52.6228 21.012C53.0708 20.5827 53.4535 20.0133 53.7708 19.304L54.3028 19.5C54.1162 20.0973 53.8082 20.704 53.3788 21.32C52.9495 21.9173 52.3895 22.412 51.6988 22.804C51.0082 23.196 50.1588 23.392 49.1508 23.392C47.9935 23.392 46.9482 23.0933 46.0148 22.496C45.0815 21.8987 44.3348 21.0493 43.7748 19.948C43.2335 18.828 42.9628 17.5027 42.9628 15.972C42.9628 14.4413 43.2335 13.0973 43.7748 11.94C44.3348 10.764 45.1095 9.84933 46.0988 9.196C47.0882 8.524 48.2175 8.188 49.4868 8.188ZM64.56 23.196C63.7947 23.196 63.132 23.056 62.572 22.776C62.012 22.4773 61.5827 22.0667 61.284 21.544C61.004 21.0213 60.864 20.4147 60.864 19.724C60.864 18.9027 61.0507 18.2307 61.424 17.708C61.816 17.1853 62.3107 16.7653 62.908 16.448C63.5054 16.1307 64.1307 15.8693 64.784 15.664C65.456 15.44 66.0907 15.2347 66.688 15.048C67.2854 14.8427 67.7707 14.6093 68.144 14.348C68.536 14.0867 68.732 13.7413 68.732 13.312V11.576C68.732 10.792 68.6107 10.1947 68.368 9.784C68.144 9.37333 67.836 9.10267 67.444 8.972C67.052 8.82267 66.6134 8.748 66.128 8.748C65.6614 8.748 65.1574 8.81333 64.616 8.944C64.0934 9.07467 63.6734 9.34533 63.356 9.756C63.7107 9.83067 64.0187 10.0173 64.28 10.316C64.5414 10.6147 64.672 10.9973 64.672 11.464C64.672 11.9307 64.5227 12.304 64.224 12.584C63.9254 12.8453 63.5427 12.976 63.076 12.976C62.5347 12.976 62.1334 12.808 61.872 12.472C61.6294 12.1173 61.508 11.7253 61.508 11.296C61.508 10.8107 61.6294 10.4187 61.872 10.12C62.1147 9.82133 62.4227 9.54133 62.796 9.28C63.2254 8.98133 63.776 8.72933 64.448 8.524C65.1387 8.3 65.9134 8.188 66.772 8.188C67.5374 8.188 68.1907 8.28133 68.732 8.468C69.2734 8.636 69.7214 8.888 70.076 9.224C70.5614 9.672 70.8787 10.2227 71.028 10.876C71.1774 11.5107 71.252 12.276 71.252 13.172V20.956C71.252 21.4227 71.3174 21.7587 71.448 21.964C71.5974 22.1693 71.8214 22.272 72.12 22.272C72.3254 22.272 72.5214 22.2253 72.708 22.132C72.8947 22.0387 73.1187 21.8893 73.38 21.684L73.688 22.16C73.296 22.4587 72.9227 22.7107 72.568 22.916C72.2134 23.1027 71.7374 23.196 71.14 23.196C70.5987 23.196 70.1507 23.1027 69.796 22.916C69.4414 22.7293 69.1707 22.4587 68.984 22.104C68.816 21.7307 68.732 21.264 68.732 20.704C68.228 21.544 67.6214 22.1693 66.912 22.58C66.2214 22.9907 65.4374 23.196 64.56 23.196ZM65.568 22.076C66.184 22.076 66.7534 21.8987 67.276 21.544C67.8174 21.1893 68.3027 20.6573 68.732 19.948V14.46C68.508 14.7773 68.1814 15.048 67.752 15.272C67.3227 15.4773 66.856 15.692 66.352 15.916C65.848 16.1213 65.3627 16.3733 64.896 16.672C64.448 16.952 64.0747 17.3253 63.776 17.792C63.4774 18.2587 63.328 18.8653 63.328 19.612C63.328 20.3587 63.524 20.956 63.916 21.404C64.3267 21.852 64.8774 22.076 65.568 22.076ZM71.168 0.935999L71.644 1.188C71.3827 1.804 71.0187 2.42933 70.552 3.064C70.104 3.69867 69.5534 4.23067 68.9 4.66C68.2467 5.07067 67.4907 5.276 66.632 5.276C65.7734 5.276 65.0174 5.07067 64.364 4.66C63.7107 4.23067 63.1507 3.69867 62.684 3.064C62.236 2.42933 61.8814 1.804 61.62 1.188L62.096 0.935999C62.3574 1.34667 62.684 1.76667 63.076 2.196C63.468 2.60667 63.9534 2.952 64.532 3.232C65.1294 3.49333 65.8294 3.624 66.632 3.624C67.4347 3.624 68.1254 3.49333 68.704 3.232C69.3014 2.952 69.796 2.60667 70.188 2.196C70.5987 1.76667 70.9254 1.34667 71.168 0.935999ZM83.5173 3.932V8.608H87.6613V9.168H83.5173V20.004C83.5173 20.8813 83.676 21.4973 83.9933 21.852C84.3107 22.2067 84.7493 22.384 85.3093 22.384C85.8693 22.384 86.3547 22.16 86.7653 21.712C87.176 21.2453 87.5307 20.4707 87.8293 19.388L88.3893 19.528C88.2027 20.6107 87.8293 21.5253 87.2693 22.272C86.728 23.0187 85.888 23.392 84.7493 23.392C84.1147 23.392 83.592 23.308 83.1813 23.14C82.7707 22.9907 82.4067 22.7667 82.0893 22.468C81.6787 22.0387 81.3893 21.5253 81.2213 20.928C81.072 20.3307 80.9973 19.5373 80.9973 18.548V9.168H78.3093V8.608H80.9973V4.324C81.464 4.30533 81.912 4.268 82.3413 4.212C82.7707 4.156 83.1627 4.06267 83.5173 3.932ZM97.3638 23.196C96.5984 23.196 95.9358 23.056 95.3758 22.776C94.8158 22.4773 94.3864 22.0667 94.0878 21.544C93.8078 21.0213 93.6678 20.4147 93.6678 19.724C93.6678 18.9027 93.8544 18.2307 94.2278 17.708C94.6198 17.1853 95.1144 16.7653 95.7118 16.448C96.3091 16.1307 96.9344 15.8693 97.5878 15.664C98.2598 15.44 98.8944 15.2347 99.4918 15.048C100.089 14.8427 100.574 14.6093 100.948 14.348C101.34 14.0867 101.536 13.7413 101.536 13.312V11.576C101.536 10.792 101.414 10.1947 101.172 9.784C100.948 9.37333 100.64 9.10267 100.248 8.972C99.8558 8.82267 99.4171 8.748 98.9318 8.748C98.4651 8.748 97.9611 8.81333 97.4198 8.944C96.8971 9.07467 96.4771 9.34533 96.1598 9.756C96.5144 9.83067 96.8224 10.0173 97.0838 10.316C97.3451 10.6147 97.4758 10.9973 97.4758 11.464C97.4758 11.9307 97.3264 12.304 97.0278 12.584C96.7291 12.8453 96.3464 12.976 95.8798 12.976C95.3384 12.976 94.9371 12.808 94.6758 12.472C94.4331 12.1173 94.3118 11.7253 94.3118 11.296C94.3118 10.8107 94.4331 10.4187 94.6758 10.12C94.9184 9.82133 95.2264 9.54133 95.5998 9.28C96.0291 8.98133 96.5798 8.72933 97.2518 8.524C97.9424 8.3 98.7171 8.188 99.5758 8.188C100.341 8.188 100.994 8.28133 101.536 8.468C102.077 8.636 102.525 8.888 102.88 9.224C103.365 9.672 103.682 10.2227 103.832 10.876C103.981 11.5107 104.056 12.276 104.056 13.172V20.956C104.056 21.4227 104.121 21.7587 104.252 21.964C104.401 22.1693 104.625 22.272 104.924 22.272C105.129 22.272 105.325 22.2253 105.512 22.132C105.698 22.0387 105.922 21.8893 106.184 21.684L106.492 22.16C106.1 22.4587 105.726 22.7107 105.372 22.916C105.017 23.1027 104.541 23.196 103.944 23.196C103.402 23.196 102.954 23.1027 102.6 22.916C102.245 22.7293 101.974 22.4587 101.788 22.104C101.62 21.7307 101.536 21.264 101.536 20.704C101.032 21.544 100.425 22.1693 99.7158 22.58C99.0251 22.9907 98.2411 23.196 97.3638 23.196ZM98.3718 22.076C98.9878 22.076 99.5571 21.8987 100.08 21.544C100.621 21.1893 101.106 20.6573 101.536 19.948V14.46C101.312 14.7773 100.985 15.048 100.556 15.272C100.126 15.4773 99.6598 15.692 99.1558 15.916C98.6518 16.1213 98.1664 16.3733 97.6998 16.672C97.2518 16.952 96.8784 17.3253 96.5798 17.792C96.2811 18.2587 96.1318 18.8653 96.1318 19.612C96.1318 20.3587 96.3278 20.956 96.7198 21.404C97.1304 21.852 97.6811 22.076 98.3718 22.076ZM120.521 8.188C121.025 8.188 121.464 8.29067 121.837 8.496C122.229 8.70133 122.528 8.972 122.733 9.308C122.957 9.62533 123.069 9.98933 123.069 10.4C123.069 10.8667 122.92 11.2773 122.621 11.632C122.341 11.9867 121.958 12.164 121.473 12.164C121.081 12.164 120.736 12.0427 120.437 11.8C120.138 11.5387 119.989 11.1747 119.989 10.708C119.989 10.3533 120.082 10.0547 120.269 9.812C120.474 9.55067 120.698 9.34533 120.941 9.196C120.81 9.00933 120.614 8.916 120.353 8.916C119.774 8.916 119.242 9.09333 118.757 9.448C118.272 9.784 117.861 10.2227 117.525 10.764C117.189 11.3053 116.928 11.884 116.741 12.5C116.554 13.0973 116.461 13.6573 116.461 14.18V20.116C116.461 21.0307 116.722 21.6467 117.245 21.964C117.786 22.2627 118.514 22.412 119.429 22.412V23C119 22.9813 118.393 22.9627 117.609 22.944C116.825 22.9067 115.994 22.888 115.117 22.888C114.482 22.888 113.848 22.9067 113.213 22.944C112.597 22.9627 112.13 22.9813 111.813 23V22.412C112.578 22.412 113.12 22.272 113.437 21.992C113.773 21.712 113.941 21.18 113.941 20.396V11.632C113.941 10.792 113.792 10.176 113.493 9.784C113.194 9.37333 112.634 9.168 111.813 9.168V8.58C112.41 8.636 112.989 8.664 113.549 8.664C114.09 8.664 114.604 8.636 115.089 8.58C115.593 8.50533 116.05 8.40267 116.461 8.272V11.772C116.666 11.2307 116.956 10.6893 117.329 10.148C117.721 9.588 118.188 9.12133 118.729 8.748C119.27 8.37467 119.868 8.188 120.521 8.188ZM141.474 8.272V19.976C141.474 20.816 141.623 21.4413 141.922 21.852C142.239 22.244 142.799 22.44 143.602 22.44V23.028C143.023 22.972 142.445 22.944 141.866 22.944C141.325 22.944 140.802 22.972 140.298 23.028C139.813 23.084 139.365 23.1867 138.954 23.336V20.032C138.487 21.2453 137.825 22.1133 136.966 22.636C136.126 23.14 135.258 23.392 134.362 23.392C133.709 23.392 133.139 23.2987 132.654 23.112C132.169 22.9253 131.767 22.664 131.45 22.328C131.095 21.9547 130.853 21.4693 130.722 20.872C130.591 20.2747 130.526 19.5373 130.526 18.66V11.632C130.526 10.792 130.377 10.176 130.078 9.784C129.779 9.37333 129.219 9.168 128.398 9.168V8.58C128.995 8.636 129.574 8.664 130.134 8.664C130.675 8.664 131.189 8.636 131.674 8.58C132.178 8.50533 132.635 8.40267 133.046 8.272V19.276C133.046 19.8547 133.083 20.3867 133.158 20.872C133.233 21.3573 133.419 21.7493 133.718 22.048C134.017 22.3467 134.502 22.496 135.174 22.496C135.902 22.496 136.546 22.272 137.106 21.824C137.685 21.376 138.133 20.7693 138.45 20.004C138.786 19.2387 138.954 18.38 138.954 17.428V11.632C138.954 10.792 138.805 10.176 138.506 9.784C138.207 9.37333 137.647 9.168 136.826 9.168V8.58C137.423 8.636 138.002 8.664 138.562 8.664C139.103 8.664 139.617 8.636 140.102 8.58C140.606 8.50533 141.063 8.40267 141.474 8.272ZM153.963 1.048V20.396C153.963 21.18 154.122 21.712 154.439 21.992C154.775 22.272 155.326 22.412 156.091 22.412V23C155.774 22.9813 155.289 22.9627 154.635 22.944C154.001 22.9067 153.357 22.888 152.703 22.888C152.069 22.888 151.425 22.9067 150.771 22.944C150.118 22.9627 149.633 22.9813 149.315 23V22.412C150.081 22.412 150.622 22.272 150.939 21.992C151.275 21.712 151.443 21.18 151.443 20.396V4.408C151.443 3.568 151.294 2.952 150.995 2.56C150.697 2.14933 150.137 1.944 149.315 1.944V1.356C149.913 1.412 150.491 1.44 151.051 1.44C151.593 1.44 152.106 1.412 152.591 1.356C153.095 1.28133 153.553 1.17867 153.963 1.048ZM173.82 3.176C174.212 3.19467 174.725 3.21333 175.36 3.232C175.994 3.25067 176.62 3.26 177.236 3.26C178.113 3.26 178.953 3.25067 179.756 3.232C180.558 3.21333 181.128 3.204 181.464 3.204C183.722 3.204 185.412 3.71733 186.532 4.744C187.652 5.77067 188.212 7.096 188.212 8.72C188.212 9.392 188.1 10.1013 187.876 10.848C187.652 11.576 187.26 12.2573 186.7 12.892C186.158 13.508 185.412 14.012 184.46 14.404C183.508 14.796 182.304 14.992 180.848 14.992H178.16V14.432H180.568C181.893 14.432 182.901 14.18 183.592 13.676C184.301 13.172 184.777 12.5093 185.02 11.688C185.281 10.8667 185.412 9.98 185.412 9.028C185.412 7.25467 185.057 5.92933 184.348 5.052C183.657 4.17467 182.462 3.736 180.764 3.736C179.905 3.736 179.345 3.89467 179.084 4.212C178.822 4.52933 178.692 5.17333 178.692 6.144V20.032C178.692 20.704 178.757 21.208 178.888 21.544C179.037 21.88 179.317 22.104 179.728 22.216C180.138 22.328 180.736 22.4027 181.52 22.44V23C181.034 22.9627 180.418 22.944 179.672 22.944C178.925 22.9253 178.169 22.916 177.404 22.916C176.676 22.916 175.994 22.9253 175.36 22.944C174.725 22.944 174.212 22.9627 173.82 23V22.44C174.454 22.4027 174.93 22.328 175.248 22.216C175.584 22.104 175.808 21.88 175.92 21.544C176.032 21.208 176.088 20.704 176.088 20.032V6.144C176.088 5.45333 176.032 4.94933 175.92 4.632C175.808 4.296 175.584 4.072 175.248 3.96C174.93 3.82933 174.454 3.75467 173.82 3.736V3.176ZM200.818 8.188C202.461 8.188 203.739 8.692 204.654 9.7C205.587 10.6893 206.054 12.2387 206.054 14.348H196.17L196.142 13.816H203.366C203.403 12.9013 203.329 12.0613 203.142 11.296C202.955 10.512 202.657 9.88667 202.246 9.42C201.854 8.95333 201.341 8.72 200.706 8.72C199.847 8.72 199.082 9.14933 198.41 10.008C197.757 10.8667 197.365 12.2293 197.234 14.096L197.318 14.208C197.281 14.488 197.253 14.796 197.234 15.132C197.215 15.468 197.206 15.804 197.206 16.14C197.206 17.4093 197.411 18.5013 197.822 19.416C198.233 20.3307 198.765 21.0307 199.418 21.516C200.09 21.9827 200.781 22.216 201.49 22.216C202.05 22.216 202.582 22.132 203.086 21.964C203.59 21.7773 204.057 21.4787 204.486 21.068C204.915 20.6573 205.289 20.1067 205.606 19.416L206.166 19.64C205.961 20.256 205.625 20.8533 205.158 21.432C204.691 22.0107 204.103 22.4867 203.394 22.86C202.685 23.2147 201.863 23.392 200.93 23.392C199.586 23.392 198.429 23.084 197.458 22.468C196.506 21.852 195.769 21.0027 195.246 19.92C194.742 18.8187 194.49 17.5587 194.49 16.14C194.49 14.4973 194.751 13.088 195.274 11.912C195.797 10.7173 196.534 9.80267 197.486 9.168C198.438 8.51467 199.549 8.188 200.818 8.188ZM221.366 8.188C221.87 8.188 222.309 8.29067 222.682 8.496C223.074 8.70133 223.373 8.972 223.578 9.308C223.802 9.62533 223.914 9.98933 223.914 10.4C223.914 10.8667 223.765 11.2773 223.466 11.632C223.186 11.9867 222.803 12.164 222.318 12.164C221.926 12.164 221.581 12.0427 221.282 11.8C220.983 11.5387 220.834 11.1747 220.834 10.708C220.834 10.3533 220.927 10.0547 221.114 9.812C221.319 9.55067 221.543 9.34533 221.786 9.196C221.655 9.00933 221.459 8.916 221.198 8.916C220.619 8.916 220.087 9.09333 219.602 9.448C219.117 9.784 218.706 10.2227 218.37 10.764C218.034 11.3053 217.773 11.884 217.586 12.5C217.399 13.0973 217.306 13.6573 217.306 14.18V20.116C217.306 21.0307 217.567 21.6467 218.09 21.964C218.631 22.2627 219.359 22.412 220.274 22.412V23C219.845 22.9813 219.238 22.9627 218.454 22.944C217.67 22.9067 216.839 22.888 215.962 22.888C215.327 22.888 214.693 22.9067 214.058 22.944C213.442 22.9627 212.975 22.9813 212.658 23V22.412C213.423 22.412 213.965 22.272 214.282 21.992C214.618 21.712 214.786 21.18 214.786 20.396V11.632C214.786 10.792 214.637 10.176 214.338 9.784C214.039 9.37333 213.479 9.168 212.658 9.168V8.58C213.255 8.636 213.834 8.664 214.394 8.664C214.935 8.664 215.449 8.636 215.934 8.58C216.438 8.50533 216.895 8.40267 217.306 8.272V11.772C217.511 11.2307 217.801 10.6893 218.174 10.148C218.566 9.588 219.033 9.12133 219.574 8.748C220.115 8.37467 220.713 8.188 221.366 8.188ZM234.619 8.188C235.365 8.188 236 8.30933 236.523 8.552C237.045 8.79467 237.428 9.01867 237.671 9.224C238.287 9.728 238.66 9.392 238.791 8.216H239.435C239.397 8.73867 239.369 9.364 239.351 10.092C239.332 10.8013 239.323 11.7627 239.323 12.976H238.679C238.567 12.2853 238.371 11.6133 238.091 10.96C237.829 10.3067 237.437 9.77467 236.915 9.364C236.392 8.93467 235.711 8.72 234.871 8.72C234.217 8.72 233.667 8.90667 233.219 9.28C232.789 9.63467 232.575 10.1667 232.575 10.876C232.575 11.436 232.743 11.9213 233.079 12.332C233.415 12.724 233.853 13.0973 234.395 13.452C234.936 13.788 235.524 14.1613 236.159 14.572C236.868 15.02 237.512 15.4773 238.091 15.944C238.669 16.4107 239.127 16.924 239.463 17.484C239.817 18.044 239.995 18.7067 239.995 19.472C239.995 20.3307 239.771 21.0493 239.323 21.628C238.875 22.2067 238.287 22.6453 237.559 22.944C236.849 23.2427 236.065 23.392 235.207 23.392C234.796 23.392 234.404 23.3547 234.031 23.28C233.676 23.224 233.331 23.1307 232.995 23C232.808 22.9067 232.612 22.7947 232.407 22.664C232.22 22.5333 232.033 22.3933 231.847 22.244C231.66 22.0947 231.492 22.104 231.343 22.272C231.193 22.4213 231.081 22.7293 231.007 23.196H230.363C230.4 22.5987 230.428 21.8707 230.447 21.012C230.465 20.1533 230.475 19.0147 230.475 17.596H231.119C231.249 18.6413 231.436 19.556 231.679 20.34C231.921 21.124 232.304 21.74 232.827 22.188C233.349 22.6173 234.077 22.832 235.011 22.832C235.384 22.832 235.757 22.748 236.131 22.58C236.523 22.412 236.849 22.132 237.111 21.74C237.372 21.348 237.503 20.8253 237.503 20.172C237.503 19.3507 237.204 18.6787 236.607 18.156C236.009 17.6333 235.253 17.0827 234.339 16.504C233.667 16.0747 233.032 15.6453 232.435 15.216C231.856 14.7867 231.38 14.3013 231.007 13.76C230.652 13.2187 230.475 12.5653 230.475 11.8C230.475 10.96 230.661 10.2787 231.035 9.756C231.427 9.21467 231.94 8.82267 232.575 8.58C233.209 8.31867 233.891 8.188 234.619 8.188ZM253.47 8.188C254.665 8.188 255.738 8.44933 256.69 8.972C257.642 9.49467 258.398 10.316 258.958 11.436C259.537 12.556 259.826 14.012 259.826 15.804C259.826 17.596 259.537 19.052 258.958 20.172C258.398 21.2733 257.642 22.0853 256.69 22.608C255.738 23.1307 254.665 23.392 253.47 23.392C252.294 23.392 251.221 23.1307 250.25 22.608C249.298 22.0853 248.533 21.2733 247.954 20.172C247.394 19.052 247.114 17.596 247.114 15.804C247.114 14.012 247.394 12.556 247.954 11.436C248.533 10.316 249.298 9.49467 250.25 8.972C251.221 8.44933 252.294 8.188 253.47 8.188ZM253.47 8.748C252.406 8.748 251.529 9.29867 250.838 10.4C250.166 11.5013 249.83 13.3027 249.83 15.804C249.83 18.3053 250.166 20.1067 250.838 21.208C251.529 22.2907 252.406 22.832 253.47 22.832C254.534 22.832 255.402 22.2907 256.074 21.208C256.765 20.1067 257.11 18.3053 257.11 15.804C257.11 13.3027 256.765 11.5013 256.074 10.4C255.402 9.29867 254.534 8.748 253.47 8.748ZM275.838 8.188C276.547 8.188 277.135 8.28133 277.602 8.468C278.087 8.65467 278.489 8.916 278.806 9.252C279.161 9.62533 279.413 10.092 279.562 10.652C279.711 11.212 279.786 11.968 279.786 12.92V20.396C279.786 21.18 279.945 21.712 280.262 21.992C280.598 22.272 281.149 22.412 281.914 22.412V23C281.597 22.9813 281.111 22.9627 280.458 22.944C279.805 22.9067 279.17 22.888 278.554 22.888C277.938 22.888 277.331 22.9067 276.734 22.944C276.155 22.9627 275.717 22.9813 275.418 23V22.412C276.09 22.412 276.566 22.272 276.846 21.992C277.126 21.712 277.266 21.18 277.266 20.396V12.304C277.266 11.7253 277.219 11.1933 277.126 10.708C277.033 10.2227 276.818 9.83067 276.482 9.532C276.165 9.23333 275.67 9.084 274.998 9.084C274.214 9.084 273.523 9.308 272.926 9.756C272.347 10.204 271.89 10.82 271.554 11.604C271.237 12.3693 271.078 13.228 271.078 14.18V20.396C271.078 21.18 271.218 21.712 271.498 21.992C271.778 22.272 272.254 22.412 272.926 22.412V23C272.627 22.9813 272.179 22.9627 271.582 22.944C271.003 22.9067 270.406 22.888 269.79 22.888C269.174 22.888 268.539 22.9067 267.886 22.944C267.233 22.9627 266.747 22.9813 266.43 23V22.412C267.195 22.412 267.737 22.272 268.054 21.992C268.39 21.712 268.558 21.18 268.558 20.396V11.632C268.558 10.792 268.409 10.176 268.11 9.784C267.811 9.37333 267.251 9.168 266.43 9.168V8.58C267.027 8.636 267.606 8.664 268.166 8.664C268.707 8.664 269.221 8.636 269.706 8.58C270.21 8.50533 270.667 8.40267 271.078 8.272V11.576C271.563 10.3067 272.235 9.42933 273.094 8.944C273.971 8.44 274.886 8.188 275.838 8.188ZM291.593 23.196C290.828 23.196 290.165 23.056 289.605 22.776C289.045 22.4773 288.616 22.0667 288.317 21.544C288.037 21.0213 287.897 20.4147 287.897 19.724C287.897 18.9027 288.084 18.2307 288.457 17.708C288.849 17.1853 289.344 16.7653 289.941 16.448C290.538 16.1307 291.164 15.8693 291.817 15.664C292.489 15.44 293.124 15.2347 293.721 15.048C294.318 14.8427 294.804 14.6093 295.177 14.348C295.569 14.0867 295.765 13.7413 295.765 13.312V11.576C295.765 10.792 295.644 10.1947 295.401 9.784C295.177 9.37333 294.869 9.10267 294.477 8.972C294.085 8.82267 293.646 8.748 293.161 8.748C292.694 8.748 292.19 8.81333 291.649 8.944C291.126 9.07467 290.706 9.34533 290.389 9.756C290.744 9.83067 291.052 10.0173 291.313 10.316C291.574 10.6147 291.705 10.9973 291.705 11.464C291.705 11.9307 291.556 12.304 291.257 12.584C290.958 12.8453 290.576 12.976 290.109 12.976C289.568 12.976 289.166 12.808 288.905 12.472C288.662 12.1173 288.541 11.7253 288.541 11.296C288.541 10.8107 288.662 10.4187 288.905 10.12C289.148 9.82133 289.456 9.54133 289.829 9.28C290.258 8.98133 290.809 8.72933 291.481 8.524C292.172 8.3 292.946 8.188 293.805 8.188C294.57 8.188 295.224 8.28133 295.765 8.468C296.306 8.636 296.754 8.888 297.109 9.224C297.594 9.672 297.912 10.2227 298.061 10.876C298.21 11.5107 298.285 12.276 298.285 13.172V20.956C298.285 21.4227 298.35 21.7587 298.481 21.964C298.63 22.1693 298.854 22.272 299.153 22.272C299.358 22.272 299.554 22.2253 299.741 22.132C299.928 22.0387 300.152 21.8893 300.413 21.684L300.721 22.16C300.329 22.4587 299.956 22.7107 299.601 22.916C299.246 23.1027 298.77 23.196 298.173 23.196C297.632 23.196 297.184 23.1027 296.829 22.916C296.474 22.7293 296.204 22.4587 296.017 22.104C295.849 21.7307 295.765 21.264 295.765 20.704C295.261 21.544 294.654 22.1693 293.945 22.58C293.254 22.9907 292.47 23.196 291.593 23.196ZM292.601 22.076C293.217 22.076 293.786 21.8987 294.309 21.544C294.85 21.1893 295.336 20.6573 295.765 19.948V14.46C295.541 14.7773 295.214 15.048 294.785 15.272C294.356 15.4773 293.889 15.692 293.385 15.916C292.881 16.1213 292.396 16.3733 291.929 16.672C291.481 16.952 291.108 17.3253 290.809 17.792C290.51 18.2587 290.361 18.8653 290.361 19.612C290.361 20.3587 290.557 20.956 290.949 21.404C291.36 21.852 291.91 22.076 292.601 22.076ZM310.494 1.048V20.396C310.494 21.18 310.653 21.712 310.97 21.992C311.306 22.272 311.857 22.412 312.622 22.412V23C312.305 22.9813 311.82 22.9627 311.166 22.944C310.532 22.9067 309.888 22.888 309.234 22.888C308.6 22.888 307.956 22.9067 307.302 22.944C306.649 22.9627 306.164 22.9813 305.846 23V22.412C306.612 22.412 307.153 22.272 307.47 21.992C307.806 21.712 307.974 21.18 307.974 20.396V4.408C307.974 3.568 307.825 2.952 307.526 2.56C307.228 2.14933 306.668 1.944 305.846 1.944V1.356C306.444 1.412 307.022 1.44 307.582 1.44C308.124 1.44 308.637 1.412 309.122 1.356C309.626 1.28133 310.084 1.17867 310.494 1.048Z" fill="#4A4A4A"/>
</svg>
