<svg width="104" height="109" viewBox="0 0 104 109" fill="none" xmlns="http://www.w3.org/2000/svg">
<mask id="path-1-outside-1_133_29" maskUnits="userSpaceOnUse" x="0" y="0" width="104" height="109" fill="black">
<rect fill="white" width="104" height="109"/>
<path d="M1.45 54.65C1.45 44.45 3.75 35.3 8.35 27.2C12.95 19 19.2 12.6 27.1 8C35.1 3.4 43.95 1.1 53.65 1.1C65.05 1.1 75 3.85 83.5 9.35C92 14.85 98.2 22.65 102.1 32.75H85.75C82.85 26.45 78.65 21.6 73.15 18.2C67.75 14.8 61.25 13.1 53.65 13.1C46.35 13.1 39.8 14.8 34 18.2C28.2 21.6 23.65 26.45 20.35 32.75C17.05 38.95 15.4 46.25 15.4 54.65C15.4 62.95 17.05 70.25 20.35 76.55C23.65 82.75 28.2 87.55 34 90.95C39.8 94.35 46.35 96.05 53.65 96.05C61.25 96.05 67.75 94.4 73.15 91.1C78.65 87.7 82.85 82.85 85.75 76.55H102.1C98.2 86.55 92 94.3 83.5 99.8C75 105.2 65.05 107.9 53.65 107.9C43.95 107.9 35.1 105.65 27.1 101.15C19.2 96.55 12.95 90.2 8.35 82.1C3.75 74 1.45 64.85 1.45 54.65Z"/>
</mask>
<g filter="url(#filter0_i_133_29)">
<path d="M1.45 54.65C1.45 44.45 3.75 35.3 8.35 27.2C12.95 19 19.2 12.6 27.1 8C35.1 3.4 43.95 1.1 53.65 1.1C65.05 1.1 75 3.85 83.5 9.35C92 14.85 98.2 22.65 102.1 32.75H85.75C82.85 26.45 78.65 21.6 73.15 18.2C67.75 14.8 61.25 13.1 53.65 13.1C46.35 13.1 39.8 14.8 34 18.2C28.2 21.6 23.65 26.45 20.35 32.75C17.05 38.95 15.4 46.25 15.4 54.65C15.4 62.95 17.05 70.25 20.35 76.55C23.65 82.75 28.2 87.55 34 90.95C39.8 94.35 46.35 96.05 53.65 96.05C61.25 96.05 67.75 94.4 73.15 91.1C78.65 87.7 82.85 82.85 85.75 76.55H102.1C98.2 86.55 92 94.3 83.5 99.8C75 105.2 65.05 107.9 53.65 107.9C43.95 107.9 35.1 105.65 27.1 101.15C19.2 96.55 12.95 90.2 8.35 82.1C3.75 74 1.45 64.85 1.45 54.65Z" fill="#0E5A43"/>
</g>
<path d="M8.35 27.2L9.21957 27.6938L9.22214 27.6893L8.35 27.2ZM27.1 8L26.6015 7.13308L26.5968 7.13582L27.1 8ZM83.5 9.35L84.0433 8.51043L83.5 9.35ZM102.1 32.75V33.75H103.558L103.033 32.3898L102.1 32.75ZM85.75 32.75L84.8416 33.1681L85.1095 33.75H85.75V32.75ZM73.15 18.2L72.6172 19.0463L72.6242 19.0506L73.15 18.2ZM34 18.2L34.5057 19.0627L34 18.2ZM20.35 32.75L21.2328 33.2199L21.2358 33.214L20.35 32.75ZM20.35 76.55L19.4642 77.014L19.4673 77.0198L20.35 76.55ZM34 90.95L34.5057 90.0873L34 90.95ZM73.15 91.1L73.6715 91.9533L73.6758 91.9506L73.15 91.1ZM85.75 76.55V75.55H85.1095L84.8416 76.1319L85.75 76.55ZM102.1 76.55L103.032 76.9133L103.563 75.55H102.1V76.55ZM83.5 99.8L84.0363 100.644L84.0433 100.64L83.5 99.8ZM27.1 101.15L26.5968 102.014L26.6032 102.018L26.6097 102.022L27.1 101.15ZM8.35 82.1L9.21956 81.6062L8.35 82.1ZM1.45 54.65H2.45C2.45 44.6062 4.71303 35.6292 9.21956 27.6938L8.35 27.2L7.48044 26.7062C2.78697 34.9708 0.45 44.2938 0.45 54.65H1.45ZM8.35 27.2L9.22214 27.6893C13.7374 19.6403 19.862 13.3717 27.6032 8.86417L27.1 8L26.5968 7.13582C18.538 11.8283 12.1626 18.3597 7.47786 26.7107L8.35 27.2ZM27.1 8L27.5985 8.8669C35.439 4.35862 44.1156 2.09999 53.65 2.09999V1.09999V0.0999947C43.7844 0.0999947 34.761 2.44137 26.6015 7.13309L27.1 8ZM53.65 1.09999V2.09999C64.8823 2.09999 74.6384 4.80711 82.9568 10.1896L83.5 9.35L84.0433 8.51043C75.3616 2.89288 65.2177 0.0999947 53.65 0.0999947V1.09999ZM83.5 9.35L82.9568 10.1896C91.2669 15.5667 97.3376 23.1926 101.167 33.1102L102.1 32.75L103.033 32.3898C99.0624 22.1074 92.7331 14.1332 84.0433 8.51043L83.5 9.35ZM102.1 32.75V31.75H85.75V32.75V33.75H102.1V32.75ZM85.75 32.75L86.6584 32.3319C83.6824 25.8668 79.3554 20.8604 73.6758 17.3494L73.15 18.2L72.6242 19.0506C77.9446 22.3396 82.0176 27.0332 84.8416 33.1681L85.75 32.75ZM73.15 18.2L73.6828 17.3538C68.095 13.8355 61.4021 12.1 53.65 12.1V13.1V14.1C61.0979 14.1 67.405 15.7645 72.6172 19.0462L73.15 18.2ZM53.65 13.1V12.1C46.188 12.1 39.4607 13.8397 33.4943 17.3373L34 18.2L34.5057 19.0627C40.1393 15.7602 46.512 14.1 53.65 14.1V13.1ZM34 18.2L33.4943 17.3373C27.5233 20.8376 22.8458 25.8302 19.4642 32.286L20.35 32.75L21.2358 33.214C24.4542 27.0698 28.8768 22.3624 34.5057 19.0627L34 18.2ZM20.35 32.75L19.4673 32.2801C16.0765 38.6506 14.4 46.1181 14.4 54.65H15.4H16.4C16.4 46.3819 18.0235 39.2494 21.2327 33.2198L20.35 32.75ZM15.4 54.65H14.4C14.4 63.0846 16.0776 70.5487 19.4642 77.014L20.35 76.55L21.2358 76.086C18.0224 69.9513 16.4 62.8154 16.4 54.65H15.4ZM20.35 76.55L19.4673 77.0198C22.8501 83.3755 27.5274 88.3149 33.4943 91.8127L34 90.95L34.5057 90.0873C28.8726 86.7851 24.4499 82.1245 21.2327 76.0802L20.35 76.55ZM34 90.95L33.4943 91.8127C39.4607 95.3102 46.188 97.05 53.65 97.05V96.05V95.05C46.512 95.05 40.1393 93.3898 34.5057 90.0873L34 90.95ZM53.65 96.05V97.05C61.3968 97.05 68.0855 95.3669 73.6715 91.9533L73.15 91.1L72.6286 90.2467C67.4145 93.4331 61.1032 95.05 53.65 95.05V96.05ZM73.15 91.1L73.6758 91.9506C79.3554 88.4396 83.6824 83.4332 86.6584 76.9681L85.75 76.55L84.8416 76.1319C82.0176 82.2668 77.9446 86.9604 72.6242 90.2494L73.15 91.1ZM85.75 76.55V77.55H102.1V76.55V75.55H85.75V76.55ZM102.1 76.55L101.168 76.1867C97.3398 86.0036 91.2696 93.5815 82.9568 98.9604L83.5 99.8L84.0433 100.64C92.7304 95.0185 99.0603 87.0964 103.032 76.9133L102.1 76.55ZM83.5 99.8L82.9638 98.9559C74.6445 104.241 64.8859 106.9 53.65 106.9V107.9V108.9C65.2141 108.9 75.3555 106.159 84.0362 100.644L83.5 99.8ZM53.65 107.9V106.9C44.1116 106.9 35.432 104.689 27.5903 100.278L27.1 101.15L26.6097 102.022C34.768 106.611 43.7884 108.9 53.65 108.9V107.9ZM27.1 101.15L27.6032 100.286C19.8589 95.7765 13.734 89.5556 9.21956 81.6062L8.35 82.1L7.48044 82.5938C12.166 90.8444 18.5411 97.3235 26.5968 102.014L27.1 101.15ZM8.35 82.1L9.21956 81.6062C4.71303 73.6708 2.45 64.6938 2.45 54.65H1.45H0.45C0.45 65.0062 2.78697 74.3292 7.48044 82.5938L8.35 82.1Z" fill="black" fill-opacity="0.31" mask="url(#path-1-outside-1_133_29)"/>
<defs>
<filter id="filter0_i_133_29" x="0.450012" y="0.0999756" width="103.113" height="112.8" filterUnits="userSpaceOnUse" color-interpolation-filters="sRGB">
<feFlood flood-opacity="0" result="BackgroundImageFix"/>
<feBlend mode="normal" in="SourceGraphic" in2="BackgroundImageFix" result="shape"/>
<feColorMatrix in="SourceAlpha" type="matrix" values="0 0 0 0 0 0 0 0 0 0 0 0 0 0 0 0 0 0 127 0" result="hardAlpha"/>
<feOffset dy="4"/>
<feGaussianBlur stdDeviation="2"/>
<feComposite in2="hardAlpha" operator="arithmetic" k2="-1" k3="1"/>
<feColorMatrix type="matrix" values="0 0 0 0 0 0 0 0 0 0 0 0 0 0 0 0 0 0 0.25 0"/>
<feBlend mode="normal" in2="shape" result="effect1_innerShadow_133_29"/>
</filter>
</defs>
</svg>
