<svg xmlns="http://www.w3.org/2000/svg" xmlns:xlink="http://www.w3.org/1999/xlink" width="500" zoomAndPan="magnify" viewBox="0 0 375 374.999991" height="500" preserveAspectRatio="xMidYMid meet" version="1.0"><defs><g/></defs><g fill="#2e2e2e" fill-opacity="1"><g transform="translate(53.34363, 203.249987)"><g><path d="M 16.84375 0.375 C 13.757812 0.375 11.066406 -0.238281 8.765625 -1.46875 C 6.472656 -2.695312 4.691406 -4.476562 3.421875 -6.8125 C 2.148438 -9.15625 1.515625 -11.992188 1.515625 -15.328125 C 1.515625 -18.628906 2.148438 -21.445312 3.421875 -23.78125 C 4.691406 -26.125 6.484375 -27.910156 8.796875 -29.140625 C 11.109375 -30.378906 13.789062 -31 16.84375 -31 C 19.476562 -31 21.816406 -30.539062 23.859375 -29.625 C 25.898438 -28.71875 27.550781 -27.445312 28.8125 -25.8125 C 30.070312 -24.175781 30.84375 -22.265625 31.125 -20.078125 L 24.484375 -20.078125 C 24.117188 -21.640625 23.253906 -22.914062 21.890625 -23.90625 C 20.535156 -24.90625 18.851562 -25.40625 16.84375 -25.40625 C 14.238281 -25.40625 12.148438 -24.566406 10.578125 -22.890625 C 9.015625 -21.210938 8.234375 -18.691406 8.234375 -15.328125 C 8.234375 -11.941406 9.015625 -9.40625 10.578125 -7.71875 C 12.148438 -6.039062 14.238281 -5.203125 16.84375 -5.203125 C 18.800781 -5.203125 20.488281 -5.691406 21.90625 -6.671875 C 23.320312 -7.648438 24.179688 -8.953125 24.484375 -10.578125 L 31.125 -10.578125 C 30.875 -8.398438 30.109375 -6.484375 28.828125 -4.828125 C 27.554688 -3.179688 25.890625 -1.898438 23.828125 -0.984375 C 21.773438 -0.078125 19.445312 0.375 16.84375 0.375 Z M 16.84375 0.375 "/></g></g></g><g fill="#2e2e2e" fill-opacity="1"><g transform="translate(85.683624, 203.249987)"><g><path d="M 2.890625 0 L 2.890625 -30.625 L 9.453125 -30.625 L 9.453125 -18.4375 L 23.859375 -18.4375 L 23.859375 -30.625 L 30.40625 -30.625 L 30.40625 0 L 23.859375 0 L 23.859375 -12.859375 L 9.453125 -12.859375 L 9.453125 0 Z M 2.890625 0 "/></g></g></g><g fill="#2e2e2e" fill-opacity="1"><g transform="translate(118.989614, 203.249987)"><g><path d="M 2.890625 0 L 2.890625 -30.625 L 25.15625 -30.625 L 25.15625 -25.03125 L 9.453125 -25.03125 L 9.453125 -18.1875 L 23.09375 -18.1875 L 23.09375 -12.9375 L 9.453125 -12.9375 L 9.453125 -5.59375 L 25.234375 -5.59375 L 25.234375 0 Z M 2.890625 0 "/></g></g></g><g fill="#2e2e2e" fill-opacity="1"><g transform="translate(145.70161, 203.249987)"><g><path d="M 2.890625 0 L 2.890625 -30.625 L 25.109375 -30.625 L 25.109375 -25.03125 L 9.453125 -25.03125 L 9.453125 -17.34375 L 23.4375 -17.34375 L 23.4375 -12.015625 L 9.453125 -12.015625 L 9.453125 0 Z M 2.890625 0 "/></g></g><g transform="translate(171.867609, 203.249987)"><g/></g></g><g fill="#2e2e2e" fill-opacity="1"><g transform="translate(180.813603, 203.249987)"><g><path d="M 2.890625 0 L 2.890625 -30.625 L 15.40625 -30.625 C 19.25 -30.625 22.132812 -29.710938 24.0625 -27.890625 C 26 -26.066406 26.96875 -23.628906 26.96875 -20.578125 C 26.96875 -18.421875 26.488281 -16.585938 25.53125 -15.078125 C 24.582031 -13.566406 23.238281 -12.410156 21.5 -11.609375 C 19.769531 -10.816406 17.738281 -10.421875 15.40625 -10.421875 L 9.453125 -10.421875 L 9.453125 0 Z M 14.875 -25.078125 L 9.453125 -25.078125 L 9.453125 -15.5 L 14.875 -15.5 C 16.75 -15.5 18.125 -15.953125 19 -16.859375 C 19.882812 -17.773438 20.328125 -18.945312 20.328125 -20.375 C 20.328125 -22 19.828125 -23.1875 18.828125 -23.9375 C 17.835938 -24.695312 16.519531 -25.078125 14.875 -25.078125 Z M 14.875 -25.078125 "/></g></g></g><g fill="#2e2e2e" fill-opacity="1"><g transform="translate(209.037593, 203.249987)"><g><path d="M 2.890625 0 L 2.890625 -30.625 L 18.484375 -30.625 C 21.585938 -30.625 24.050781 -29.921875 25.875 -28.515625 C 27.695312 -27.117188 28.609375 -25.019531 28.609375 -22.21875 C 28.609375 -20.3125 28.101562 -18.707031 27.09375 -17.40625 C 26.082031 -16.101562 24.707031 -15.210938 22.96875 -14.734375 L 22.96875 -14.484375 C 24.738281 -14.179688 26.015625 -13.539062 26.796875 -12.5625 C 27.578125 -11.582031 27.96875 -10.238281 27.96875 -8.53125 L 27.96875 -3.484375 C 27.96875 -2.921875 27.988281 -2.34375 28.03125 -1.75 C 28.070312 -1.164062 28.21875 -0.582031 28.46875 0 L 21.875 0 C 21.707031 -0.363281 21.585938 -0.847656 21.515625 -1.453125 C 21.453125 -2.054688 21.421875 -2.734375 21.421875 -3.484375 L 21.421875 -7.390625 C 21.421875 -8.648438 21.097656 -9.632812 20.453125 -10.34375 C 19.804688 -11.0625 18.5625 -11.421875 16.71875 -11.421875 L 9.453125 -11.421875 L 9.453125 0 Z M 16.96875 -25.203125 L 9.453125 -25.203125 L 9.453125 -16.59375 L 16.96875 -16.59375 C 18.726562 -16.59375 19.984375 -17.007812 20.734375 -17.84375 C 21.492188 -18.6875 21.875 -19.738281 21.875 -21 C 21.875 -22.539062 21.410156 -23.625 20.484375 -24.25 C 19.566406 -24.882812 18.394531 -25.203125 16.96875 -25.203125 Z M 16.96875 -25.203125 "/></g></g></g><g fill="#2e2e2e" fill-opacity="1"><g transform="translate(239.487585, 203.249987)"><g><path d="M 2.890625 0 L 2.890625 -30.625 L 9.453125 -30.625 L 9.453125 0 Z M 2.890625 0 "/></g></g></g><g fill="#2e2e2e" fill-opacity="1"><g transform="translate(251.835576, 203.249987)"><g><path d="M 11.421875 0 L 0.71875 -30.625 L 8.015625 -30.625 L 13.53125 -12.015625 L 15.625 -5.203125 L 15.953125 -5.203125 L 18.0625 -12.015625 L 23.609375 -30.625 L 30.875 -30.625 L 20.203125 0 Z M 11.421875 0 "/></g></g><g transform="translate(283.419574, 203.249987)"><g><path d="M 2.890625 0 L 2.890625 -30.625 L 25.15625 -30.625 L 25.15625 -25.03125 L 9.453125 -25.03125 L 9.453125 -18.1875 L 23.09375 -18.1875 L 23.09375 -12.9375 L 9.453125 -12.9375 L 9.453125 -5.59375 L 25.234375 -5.59375 L 25.234375 0 Z M 11.09375 -33.21875 L 13.484375 -39.3125 L 19.609375 -39.3125 L 15.796875 -33.21875 Z M 11.09375 -33.21875 "/></g></g></g><g fill="#2e2e2e" fill-opacity="1"><g transform="translate(70.746094, 225.849931)"><g><path d="M 2.96875 -11.75 C 3.457031 -11.75 3.882812 -11.75 4.25 -11.75 C 4.625 -11.757812 4.960938 -11.765625 5.265625 -11.765625 C 5.628906 -11.765625 5.976562 -11.742188 6.3125 -11.703125 C 6.65625 -11.660156 6.972656 -11.597656 7.265625 -11.515625 C 7.566406 -11.429688 7.835938 -11.328125 8.078125 -11.203125 C 8.316406 -11.078125 8.507812 -10.929688 8.65625 -10.765625 C 8.882812 -10.515625 9.050781 -10.226562 9.15625 -9.90625 C 9.269531 -9.582031 9.328125 -9.28125 9.328125 -9 C 9.328125 -8.320312 9.148438 -7.753906 8.796875 -7.296875 C 8.453125 -6.847656 7.929688 -6.53125 7.234375 -6.34375 L 7.234375 -6.3125 C 7.640625 -6.25 8.015625 -6.132812 8.359375 -5.96875 C 8.710938 -5.8125 9.015625 -5.597656 9.265625 -5.328125 C 9.523438 -5.066406 9.726562 -4.753906 9.875 -4.390625 C 10.019531 -4.035156 10.09375 -3.644531 10.09375 -3.21875 C 10.09375 -2.59375 9.957031 -2.070312 9.6875 -1.65625 C 9.414062 -1.238281 8.992188 -0.867188 8.421875 -0.546875 C 8.046875 -0.328125 7.566406 -0.171875 6.984375 -0.078125 C 6.398438 0.015625 5.726562 0.0625 4.96875 0.0625 C 4.757812 0.0625 4.488281 0.0546875 4.15625 0.046875 C 3.820312 0.046875 3.46875 0.0390625 3.09375 0.03125 C 2.71875 0.0195312 2.34375 0.0078125 1.96875 0 C 1.59375 0 1.265625 0 0.984375 0 L 0.984375 -0.359375 C 1.078125 -0.367188 1.191406 -0.375 1.328125 -0.375 C 1.472656 -0.382812 1.613281 -0.410156 1.75 -0.453125 C 1.882812 -0.492188 2 -0.554688 2.09375 -0.640625 C 2.195312 -0.734375 2.25 -0.867188 2.25 -1.046875 L 2.25 -10.59375 C 2.25 -10.789062 2.207031 -10.9375 2.125 -11.03125 C 2.050781 -11.132812 1.957031 -11.207031 1.84375 -11.25 C 1.726562 -11.289062 1.59375 -11.3125 1.4375 -11.3125 C 1.28125 -11.320312 1.128906 -11.34375 0.984375 -11.375 L 0.984375 -11.734375 Z M 3.96875 -6.21875 L 4.71875 -6.21875 C 5.644531 -6.21875 6.359375 -6.441406 6.859375 -6.890625 C 7.359375 -7.347656 7.609375 -8 7.609375 -8.84375 C 7.609375 -9.46875 7.476562 -9.972656 7.21875 -10.359375 C 6.957031 -10.742188 6.613281 -11.015625 6.1875 -11.171875 C 5.925781 -11.273438 5.628906 -11.335938 5.296875 -11.359375 C 4.972656 -11.390625 4.644531 -11.40625 4.3125 -11.40625 L 3.96875 -11.40625 Z M 3.96875 -1.296875 C 3.96875 -1.066406 4.003906 -0.882812 4.078125 -0.75 C 4.160156 -0.625 4.265625 -0.523438 4.390625 -0.453125 C 4.515625 -0.390625 4.660156 -0.34375 4.828125 -0.3125 C 4.992188 -0.289062 5.171875 -0.28125 5.359375 -0.28125 C 6.316406 -0.28125 7.035156 -0.519531 7.515625 -1 C 8.003906 -1.488281 8.25 -2.195312 8.25 -3.125 C 8.25 -3.75 8.148438 -4.242188 7.953125 -4.609375 C 7.765625 -4.972656 7.503906 -5.25 7.171875 -5.4375 C 6.847656 -5.625 6.46875 -5.738281 6.03125 -5.78125 C 5.59375 -5.832031 5.128906 -5.859375 4.640625 -5.859375 L 3.96875 -5.859375 Z M 3.96875 -1.296875 "/></g></g></g><g fill="#2e2e2e" fill-opacity="1"><g transform="translate(82.079864, 225.849931)"><g><path d="M 4.40625 -11.734375 L 4.40625 -11.375 C 4.332031 -11.375 4.226562 -11.367188 4.09375 -11.359375 C 3.957031 -11.359375 3.820312 -11.335938 3.6875 -11.296875 C 3.550781 -11.265625 3.425781 -11.207031 3.3125 -11.125 C 3.207031 -11.050781 3.15625 -10.9375 3.15625 -10.78125 C 3.15625 -10.6875 3.273438 -10.429688 3.515625 -10.015625 C 3.753906 -9.597656 4.070312 -9.050781 4.46875 -8.375 L 5.875 -5.984375 C 5.957031 -6.128906 6.082031 -6.328125 6.25 -6.578125 C 6.414062 -6.835938 6.597656 -7.117188 6.796875 -7.421875 C 6.992188 -7.734375 7.195312 -8.050781 7.40625 -8.375 C 7.613281 -8.707031 7.804688 -9.023438 7.984375 -9.328125 C 8.160156 -9.628906 8.300781 -9.898438 8.40625 -10.140625 C 8.507812 -10.378906 8.5625 -10.578125 8.5625 -10.734375 C 8.5625 -10.867188 8.519531 -10.976562 8.4375 -11.0625 C 8.363281 -11.144531 8.269531 -11.207031 8.15625 -11.25 C 8.050781 -11.289062 7.9375 -11.316406 7.8125 -11.328125 C 7.695312 -11.347656 7.59375 -11.363281 7.5 -11.375 L 7.484375 -11.375 L 7.484375 -11.734375 L 10.265625 -11.734375 L 10.265625 -11.375 C 10.109375 -11.34375 9.972656 -11.296875 9.859375 -11.234375 C 9.742188 -11.171875 9.644531 -11.09375 9.5625 -11 C 9.476562 -10.914062 9.398438 -10.820312 9.328125 -10.71875 C 9.253906 -10.613281 9.175781 -10.492188 9.09375 -10.359375 L 6.0625 -5.515625 L 6.0625 -1.28125 C 6.0625 -1.082031 6.09375 -0.921875 6.15625 -0.796875 C 6.226562 -0.679688 6.320312 -0.585938 6.4375 -0.515625 C 6.5625 -0.453125 6.703125 -0.410156 6.859375 -0.390625 C 7.023438 -0.367188 7.203125 -0.359375 7.390625 -0.359375 L 7.390625 0 L 3.09375 0 L 3.09375 -0.359375 C 3.238281 -0.359375 3.390625 -0.363281 3.546875 -0.375 C 3.703125 -0.394531 3.835938 -0.4375 3.953125 -0.5 C 4.066406 -0.5625 4.160156 -0.65625 4.234375 -0.78125 C 4.316406 -0.90625 4.359375 -1.070312 4.359375 -1.28125 L 4.359375 -5.265625 L 1.734375 -9.828125 C 1.429688 -10.367188 1.164062 -10.757812 0.9375 -11 C 0.707031 -11.238281 0.4375 -11.363281 0.125 -11.375 L 0.125 -11.734375 Z M 4.40625 -11.734375 "/></g></g></g><g fill="#2e2e2e" fill-opacity="1"><g transform="translate(92.462069, 225.849931)"><g/></g></g><g fill="#2e2e2e" fill-opacity="1"><g transform="translate(96.710104, 225.849931)"><g><path d="M 2.96875 -11.75 C 3.457031 -11.75 3.882812 -11.75 4.25 -11.75 C 4.625 -11.757812 4.960938 -11.765625 5.265625 -11.765625 C 5.628906 -11.765625 5.976562 -11.742188 6.3125 -11.703125 C 6.65625 -11.660156 6.972656 -11.597656 7.265625 -11.515625 C 7.566406 -11.429688 7.835938 -11.328125 8.078125 -11.203125 C 8.316406 -11.078125 8.507812 -10.929688 8.65625 -10.765625 C 8.882812 -10.515625 9.050781 -10.226562 9.15625 -9.90625 C 9.269531 -9.582031 9.328125 -9.28125 9.328125 -9 C 9.328125 -8.320312 9.148438 -7.753906 8.796875 -7.296875 C 8.453125 -6.847656 7.929688 -6.53125 7.234375 -6.34375 L 7.234375 -6.3125 C 7.640625 -6.25 8.015625 -6.132812 8.359375 -5.96875 C 8.710938 -5.8125 9.015625 -5.597656 9.265625 -5.328125 C 9.523438 -5.066406 9.726562 -4.753906 9.875 -4.390625 C 10.019531 -4.035156 10.09375 -3.644531 10.09375 -3.21875 C 10.09375 -2.59375 9.957031 -2.070312 9.6875 -1.65625 C 9.414062 -1.238281 8.992188 -0.867188 8.421875 -0.546875 C 8.046875 -0.328125 7.566406 -0.171875 6.984375 -0.078125 C 6.398438 0.015625 5.726562 0.0625 4.96875 0.0625 C 4.757812 0.0625 4.488281 0.0546875 4.15625 0.046875 C 3.820312 0.046875 3.46875 0.0390625 3.09375 0.03125 C 2.71875 0.0195312 2.34375 0.0078125 1.96875 0 C 1.59375 0 1.265625 0 0.984375 0 L 0.984375 -0.359375 C 1.078125 -0.367188 1.191406 -0.375 1.328125 -0.375 C 1.472656 -0.382812 1.613281 -0.410156 1.75 -0.453125 C 1.882812 -0.492188 2 -0.554688 2.09375 -0.640625 C 2.195312 -0.734375 2.25 -0.867188 2.25 -1.046875 L 2.25 -10.59375 C 2.25 -10.789062 2.207031 -10.9375 2.125 -11.03125 C 2.050781 -11.132812 1.957031 -11.207031 1.84375 -11.25 C 1.726562 -11.289062 1.59375 -11.3125 1.4375 -11.3125 C 1.28125 -11.320312 1.128906 -11.34375 0.984375 -11.375 L 0.984375 -11.734375 Z M 3.96875 -6.21875 L 4.71875 -6.21875 C 5.644531 -6.21875 6.359375 -6.441406 6.859375 -6.890625 C 7.359375 -7.347656 7.609375 -8 7.609375 -8.84375 C 7.609375 -9.46875 7.476562 -9.972656 7.21875 -10.359375 C 6.957031 -10.742188 6.613281 -11.015625 6.1875 -11.171875 C 5.925781 -11.273438 5.628906 -11.335938 5.296875 -11.359375 C 4.972656 -11.390625 4.644531 -11.40625 4.3125 -11.40625 L 3.96875 -11.40625 Z M 3.96875 -1.296875 C 3.96875 -1.066406 4.003906 -0.882812 4.078125 -0.75 C 4.160156 -0.625 4.265625 -0.523438 4.390625 -0.453125 C 4.515625 -0.390625 4.660156 -0.34375 4.828125 -0.3125 C 4.992188 -0.289062 5.171875 -0.28125 5.359375 -0.28125 C 6.316406 -0.28125 7.035156 -0.519531 7.515625 -1 C 8.003906 -1.488281 8.25 -2.195312 8.25 -3.125 C 8.25 -3.75 8.148438 -4.242188 7.953125 -4.609375 C 7.765625 -4.972656 7.503906 -5.25 7.171875 -5.4375 C 6.847656 -5.625 6.46875 -5.738281 6.03125 -5.78125 C 5.59375 -5.832031 5.128906 -5.859375 4.640625 -5.859375 L 3.96875 -5.859375 Z M 3.96875 -1.296875 "/></g></g></g><g fill="#2e2e2e" fill-opacity="1"><g transform="translate(108.043874, 225.849931)"><g><path d="M 5.390625 -11.734375 L 5.390625 -11.375 C 4.859375 -11.375 4.472656 -11.289062 4.234375 -11.125 C 4.003906 -10.96875 3.890625 -10.632812 3.890625 -10.125 L 3.890625 -3.296875 C 3.890625 -2.296875 4.148438 -1.515625 4.671875 -0.953125 C 5.203125 -0.398438 6.03125 -0.125 7.15625 -0.125 C 8.34375 -0.125 9.21875 -0.429688 9.78125 -1.046875 C 10.34375 -1.660156 10.625 -2.585938 10.625 -3.828125 L 10.625 -10.109375 C 10.625 -10.410156 10.578125 -10.640625 10.484375 -10.796875 C 10.398438 -10.960938 10.28125 -11.082031 10.125 -11.15625 C 9.96875 -11.238281 9.78125 -11.289062 9.5625 -11.3125 C 9.34375 -11.332031 9.109375 -11.351562 8.859375 -11.375 L 8.859375 -11.734375 L 12.53125 -11.734375 L 12.53125 -11.375 C 12.238281 -11.375 12 -11.335938 11.8125 -11.265625 C 11.632812 -11.203125 11.488281 -11.109375 11.375 -10.984375 C 11.257812 -10.867188 11.179688 -10.734375 11.140625 -10.578125 C 11.097656 -10.429688 11.078125 -10.269531 11.078125 -10.09375 L 11.078125 -3.828125 C 11.078125 -3.085938 10.976562 -2.460938 10.78125 -1.953125 C 10.59375 -1.441406 10.3125 -1.019531 9.9375 -0.6875 C 9.570312 -0.363281 9.109375 -0.128906 8.546875 0.015625 C 7.992188 0.160156 7.351562 0.234375 6.625 0.234375 C 5.144531 0.234375 4.03125 -0.09375 3.28125 -0.75 C 2.539062 -1.414062 2.171875 -2.394531 2.171875 -3.6875 L 2.171875 -10.1875 C 2.171875 -10.457031 2.15625 -10.664062 2.125 -10.8125 C 2.09375 -10.96875 2.03125 -11.082031 1.9375 -11.15625 C 1.84375 -11.226562 1.71875 -11.28125 1.5625 -11.3125 C 1.40625 -11.34375 1.203125 -11.363281 0.953125 -11.375 L 0.953125 -11.734375 Z M 5.390625 -11.734375 "/></g></g></g><g fill="#2e2e2e" fill-opacity="1"><g transform="translate(121.263768, 225.849931)"><g><path d="M 0.609375 -5.75 C 0.609375 -6.644531 0.757812 -7.460938 1.0625 -8.203125 C 1.375 -8.953125 1.800781 -9.597656 2.34375 -10.140625 C 2.882812 -10.691406 3.53125 -11.117188 4.28125 -11.421875 C 5.03125 -11.734375 5.847656 -11.890625 6.734375 -11.890625 C 7.398438 -11.890625 8.015625 -11.78125 8.578125 -11.5625 C 9.148438 -11.34375 9.742188 -11.035156 10.359375 -10.640625 L 10.890625 -11.375 L 11.171875 -11.375 L 11.171875 -7.40625 L 10.859375 -7.40625 C 10.796875 -7.96875 10.648438 -8.492188 10.421875 -8.984375 C 10.203125 -9.484375 9.914062 -9.921875 9.5625 -10.296875 C 9.21875 -10.671875 8.804688 -10.96875 8.328125 -11.1875 C 7.847656 -11.414062 7.316406 -11.53125 6.734375 -11.53125 C 6.535156 -11.53125 6.304688 -11.503906 6.046875 -11.453125 C 5.785156 -11.398438 5.507812 -11.300781 5.21875 -11.15625 C 4.9375 -11.019531 4.644531 -10.828125 4.34375 -10.578125 C 4.050781 -10.335938 3.769531 -10.023438 3.5 -9.640625 C 3.207031 -9.210938 2.96875 -8.664062 2.78125 -8 C 2.601562 -7.34375 2.515625 -6.554688 2.515625 -5.640625 C 2.515625 -4.640625 2.664062 -3.78125 2.96875 -3.0625 C 3.101562 -2.738281 3.25 -2.4375 3.40625 -2.15625 C 3.570312 -1.882812 3.75 -1.632812 3.9375 -1.40625 C 4.300781 -0.988281 4.710938 -0.671875 5.171875 -0.453125 C 5.628906 -0.234375 6.113281 -0.125 6.625 -0.125 C 7.207031 -0.125 7.738281 -0.222656 8.21875 -0.421875 C 8.695312 -0.617188 9.113281 -0.890625 9.46875 -1.234375 C 9.832031 -1.585938 10.132812 -2 10.375 -2.46875 C 10.625 -2.9375 10.796875 -3.445312 10.890625 -4 L 11.21875 -4 L 11.21875 -0.203125 L 10.859375 -0.203125 L 10.390625 -1 C 9.742188 -0.570312 9.101562 -0.257812 8.46875 -0.0625 C 7.84375 0.132812 7.210938 0.234375 6.578125 0.234375 C 5.660156 0.234375 4.835938 0.0976562 4.109375 -0.171875 C 3.378906 -0.453125 2.75 -0.847656 2.21875 -1.359375 C 1.695312 -1.878906 1.296875 -2.507812 1.015625 -3.25 C 0.742188 -3.988281 0.609375 -4.820312 0.609375 -5.75 Z M 0.609375 -5.75 "/></g></g></g><g fill="#2e2e2e" fill-opacity="1"><g transform="translate(133.532096, 225.849931)"><g><path d="M 4.4375 -10.734375 C 4.71875 -10.890625 4.96875 -11.082031 5.1875 -11.3125 C 5.40625 -11.550781 5.613281 -11.796875 5.8125 -12.046875 L 9.671875 -2.234375 C 9.785156 -1.921875 9.882812 -1.65625 9.96875 -1.4375 C 10.0625 -1.226562 10.160156 -1.050781 10.265625 -0.90625 C 10.378906 -0.757812 10.507812 -0.640625 10.65625 -0.546875 C 10.8125 -0.453125 11.019531 -0.390625 11.28125 -0.359375 L 11.28125 0 L 6.84375 0 L 6.84375 -0.359375 L 6.96875 -0.359375 C 7.082031 -0.359375 7.210938 -0.363281 7.359375 -0.375 C 7.503906 -0.382812 7.644531 -0.410156 7.78125 -0.453125 C 7.914062 -0.503906 8.03125 -0.570312 8.125 -0.65625 C 8.226562 -0.75 8.28125 -0.875 8.28125 -1.03125 C 8.28125 -1.15625 8.226562 -1.363281 8.125 -1.65625 C 8.019531 -1.957031 7.898438 -2.28125 7.765625 -2.625 C 7.640625 -2.96875 7.507812 -3.304688 7.375 -3.640625 C 7.25 -3.972656 7.160156 -4.242188 7.109375 -4.453125 L 3.046875 -4.453125 C 2.992188 -4.296875 2.90625 -4.050781 2.78125 -3.71875 C 2.65625 -3.394531 2.523438 -3.050781 2.390625 -2.6875 C 2.253906 -2.332031 2.132812 -2.003906 2.03125 -1.703125 C 1.9375 -1.410156 1.890625 -1.207031 1.890625 -1.09375 C 1.890625 -0.914062 1.9375 -0.78125 2.03125 -0.6875 C 2.132812 -0.601562 2.257812 -0.535156 2.40625 -0.484375 C 2.5625 -0.441406 2.71875 -0.410156 2.875 -0.390625 C 3.03125 -0.378906 3.160156 -0.367188 3.265625 -0.359375 L 3.265625 0 L 0.1875 0 L 0.1875 -0.359375 C 0.445312 -0.378906 0.671875 -0.460938 0.859375 -0.609375 C 1.046875 -0.753906 1.1875 -0.941406 1.28125 -1.171875 L 4.75 -10.21875 Z M 3.234375 -4.90625 L 6.921875 -4.90625 L 5 -9.71875 Z M 3.234375 -4.90625 "/></g></g></g><g fill="#2e2e2e" fill-opacity="1"><g transform="translate(143.608241, 225.849931)"><g><path d="M 0.953125 -12 C 1.117188 -11.945312 1.34375 -11.890625 1.625 -11.828125 C 1.90625 -11.765625 2.15625 -11.734375 2.375 -11.734375 L 10.953125 -11.734375 C 11.171875 -11.734375 11.414062 -11.765625 11.6875 -11.828125 C 11.96875 -11.890625 12.195312 -11.945312 12.375 -12 L 13 -8.828125 L 12.765625 -8.703125 C 12.503906 -9.128906 12.28125 -9.492188 12.09375 -9.796875 C 11.90625 -10.109375 11.734375 -10.363281 11.578125 -10.5625 C 11.429688 -10.738281 11.304688 -10.878906 11.203125 -10.984375 C 11.097656 -11.097656 11 -11.179688 10.90625 -11.234375 C 10.8125 -11.296875 10.710938 -11.332031 10.609375 -11.34375 C 10.503906 -11.363281 10.378906 -11.375 10.234375 -11.375 L 7.53125 -11.375 L 7.53125 -1.265625 C 7.53125 -1.066406 7.5625 -0.910156 7.625 -0.796875 C 7.695312 -0.679688 7.800781 -0.59375 7.9375 -0.53125 C 8.070312 -0.46875 8.238281 -0.425781 8.4375 -0.40625 C 8.632812 -0.382812 8.859375 -0.367188 9.109375 -0.359375 L 9.109375 0 L 4.265625 0 L 4.265625 -0.359375 C 4.492188 -0.367188 4.703125 -0.382812 4.890625 -0.40625 C 5.078125 -0.425781 5.238281 -0.460938 5.375 -0.515625 C 5.507812 -0.578125 5.613281 -0.664062 5.6875 -0.78125 C 5.769531 -0.894531 5.8125 -1.054688 5.8125 -1.265625 L 5.8125 -11.375 L 3.0625 -11.375 C 2.894531 -11.375 2.753906 -11.359375 2.640625 -11.328125 C 2.535156 -11.296875 2.441406 -11.253906 2.359375 -11.203125 C 2.285156 -11.160156 2.21875 -11.097656 2.15625 -11.015625 C 2.09375 -10.941406 2.019531 -10.863281 1.9375 -10.78125 C 1.832031 -10.664062 1.71875 -10.523438 1.59375 -10.359375 C 1.476562 -10.191406 1.347656 -10.003906 1.203125 -9.796875 C 1.097656 -9.628906 0.988281 -9.457031 0.875 -9.28125 C 0.769531 -9.113281 0.628906 -8.925781 0.453125 -8.71875 L 0.234375 -8.84375 Z M 0.953125 -12 "/></g></g></g><g fill="#2e2e2e" fill-opacity="1"><g transform="translate(155.570509, 225.849931)"><g><path d="M 4.4375 -10.734375 C 4.71875 -10.890625 4.96875 -11.082031 5.1875 -11.3125 C 5.40625 -11.550781 5.613281 -11.796875 5.8125 -12.046875 L 9.671875 -2.234375 C 9.785156 -1.921875 9.882812 -1.65625 9.96875 -1.4375 C 10.0625 -1.226562 10.160156 -1.050781 10.265625 -0.90625 C 10.378906 -0.757812 10.507812 -0.640625 10.65625 -0.546875 C 10.8125 -0.453125 11.019531 -0.390625 11.28125 -0.359375 L 11.28125 0 L 6.84375 0 L 6.84375 -0.359375 L 6.96875 -0.359375 C 7.082031 -0.359375 7.210938 -0.363281 7.359375 -0.375 C 7.503906 -0.382812 7.644531 -0.410156 7.78125 -0.453125 C 7.914062 -0.503906 8.03125 -0.570312 8.125 -0.65625 C 8.226562 -0.75 8.28125 -0.875 8.28125 -1.03125 C 8.28125 -1.15625 8.226562 -1.363281 8.125 -1.65625 C 8.019531 -1.957031 7.898438 -2.28125 7.765625 -2.625 C 7.640625 -2.96875 7.507812 -3.304688 7.375 -3.640625 C 7.25 -3.972656 7.160156 -4.242188 7.109375 -4.453125 L 3.046875 -4.453125 C 2.992188 -4.296875 2.90625 -4.050781 2.78125 -3.71875 C 2.65625 -3.394531 2.523438 -3.050781 2.390625 -2.6875 C 2.253906 -2.332031 2.132812 -2.003906 2.03125 -1.703125 C 1.9375 -1.410156 1.890625 -1.207031 1.890625 -1.09375 C 1.890625 -0.914062 1.9375 -0.78125 2.03125 -0.6875 C 2.132812 -0.601562 2.257812 -0.535156 2.40625 -0.484375 C 2.5625 -0.441406 2.71875 -0.410156 2.875 -0.390625 C 3.03125 -0.378906 3.160156 -0.367188 3.265625 -0.359375 L 3.265625 0 L 0.1875 0 L 0.1875 -0.359375 C 0.445312 -0.378906 0.671875 -0.460938 0.859375 -0.609375 C 1.046875 -0.753906 1.1875 -0.941406 1.28125 -1.171875 L 4.75 -10.21875 Z M 3.234375 -4.90625 L 6.921875 -4.90625 L 5 -9.71875 Z M 3.234375 -4.90625 "/></g></g></g><g fill="#2e2e2e" fill-opacity="1"><g transform="translate(166.904279, 225.849931)"><g><path d="M 1.1875 -11.734375 C 1.507812 -11.734375 1.882812 -11.734375 2.3125 -11.734375 C 2.738281 -11.742188 3.164062 -11.753906 3.59375 -11.765625 C 4.03125 -11.773438 4.441406 -11.78125 4.828125 -11.78125 C 5.210938 -11.789062 5.523438 -11.796875 5.765625 -11.796875 C 6.347656 -11.796875 6.910156 -11.734375 7.453125 -11.609375 C 7.992188 -11.492188 8.460938 -11.304688 8.859375 -11.046875 C 9.253906 -10.785156 9.570312 -10.453125 9.8125 -10.046875 C 10.050781 -9.648438 10.171875 -9.171875 10.171875 -8.609375 C 10.171875 -8.160156 10.109375 -7.773438 9.984375 -7.453125 C 9.859375 -7.128906 9.675781 -6.84375 9.4375 -6.59375 C 9.207031 -6.34375 8.925781 -6.128906 8.59375 -5.953125 C 8.269531 -5.773438 7.90625 -5.617188 7.5 -5.484375 C 8.125 -4.804688 8.617188 -4.203125 8.984375 -3.671875 C 9.347656 -3.140625 9.644531 -2.679688 9.875 -2.296875 C 10.09375 -1.941406 10.253906 -1.640625 10.359375 -1.390625 C 10.460938 -1.148438 10.578125 -0.96875 10.703125 -0.84375 C 10.890625 -0.664062 11.085938 -0.539062 11.296875 -0.46875 C 11.503906 -0.394531 11.75 -0.359375 12.03125 -0.359375 L 12.03125 0 L 9.21875 0 C 8.863281 -0.601562 8.535156 -1.144531 8.234375 -1.625 C 7.941406 -2.113281 7.671875 -2.539062 7.421875 -2.90625 C 6.984375 -3.550781 6.625 -4.03125 6.34375 -4.34375 C 6.070312 -4.664062 5.8125 -4.890625 5.5625 -5.015625 C 5.332031 -5.117188 5.101562 -5.1875 4.875 -5.21875 C 4.644531 -5.25 4.382812 -5.273438 4.09375 -5.296875 L 4.09375 -1.265625 C 4.09375 -1.035156 4.125 -0.859375 4.1875 -0.734375 C 4.257812 -0.617188 4.359375 -0.53125 4.484375 -0.46875 C 4.617188 -0.414062 4.773438 -0.382812 4.953125 -0.375 C 5.128906 -0.363281 5.328125 -0.359375 5.546875 -0.359375 L 5.546875 0 L 1.125 0 L 1.125 -0.359375 C 1.5625 -0.359375 1.878906 -0.398438 2.078125 -0.484375 C 2.273438 -0.566406 2.375 -0.789062 2.375 -1.15625 L 2.375 -10.46875 C 2.375 -10.6875 2.34375 -10.851562 2.28125 -10.96875 C 2.226562 -11.09375 2.148438 -11.179688 2.046875 -11.234375 C 1.941406 -11.296875 1.8125 -11.332031 1.65625 -11.34375 C 1.507812 -11.363281 1.351562 -11.375 1.1875 -11.375 Z M 4.09375 -5.65625 C 4.289062 -5.65625 4.5 -5.660156 4.71875 -5.671875 C 4.945312 -5.679688 5.164062 -5.695312 5.375 -5.71875 C 5.625 -5.738281 5.851562 -5.757812 6.0625 -5.78125 C 6.269531 -5.8125 6.488281 -5.875 6.71875 -5.96875 C 7.78125 -6.394531 8.3125 -7.28125 8.3125 -8.625 C 8.3125 -9.445312 8.0625 -10.117188 7.5625 -10.640625 C 7.0625 -11.171875 6.328125 -11.4375 5.359375 -11.4375 C 4.984375 -11.4375 4.675781 -11.382812 4.4375 -11.28125 C 4.207031 -11.175781 4.09375 -10.90625 4.09375 -10.46875 Z M 4.09375 -5.65625 "/></g></g></g><g fill="#2e2e2e" fill-opacity="1"><g transform="translate(179.172608, 225.849931)"><g><path d="M 5.390625 -11.734375 L 5.390625 -11.375 C 4.859375 -11.375 4.472656 -11.289062 4.234375 -11.125 C 4.003906 -10.96875 3.890625 -10.632812 3.890625 -10.125 L 3.890625 -3.296875 C 3.890625 -2.296875 4.148438 -1.515625 4.671875 -0.953125 C 5.203125 -0.398438 6.03125 -0.125 7.15625 -0.125 C 8.34375 -0.125 9.21875 -0.429688 9.78125 -1.046875 C 10.34375 -1.660156 10.625 -2.585938 10.625 -3.828125 L 10.625 -10.109375 C 10.625 -10.410156 10.578125 -10.640625 10.484375 -10.796875 C 10.398438 -10.960938 10.28125 -11.082031 10.125 -11.15625 C 9.96875 -11.238281 9.78125 -11.289062 9.5625 -11.3125 C 9.34375 -11.332031 9.109375 -11.351562 8.859375 -11.375 L 8.859375 -11.734375 L 12.53125 -11.734375 L 12.53125 -11.375 C 12.238281 -11.375 12 -11.335938 11.8125 -11.265625 C 11.632812 -11.203125 11.488281 -11.109375 11.375 -10.984375 C 11.257812 -10.867188 11.179688 -10.734375 11.140625 -10.578125 C 11.097656 -10.429688 11.078125 -10.269531 11.078125 -10.09375 L 11.078125 -3.828125 C 11.078125 -3.085938 10.976562 -2.460938 10.78125 -1.953125 C 10.59375 -1.441406 10.3125 -1.019531 9.9375 -0.6875 C 9.570312 -0.363281 9.109375 -0.128906 8.546875 0.015625 C 7.992188 0.160156 7.351562 0.234375 6.625 0.234375 C 5.144531 0.234375 4.03125 -0.09375 3.28125 -0.75 C 2.539062 -1.414062 2.171875 -2.394531 2.171875 -3.6875 L 2.171875 -10.1875 C 2.171875 -10.457031 2.15625 -10.664062 2.125 -10.8125 C 2.09375 -10.96875 2.03125 -11.082031 1.9375 -11.15625 C 1.84375 -11.226562 1.71875 -11.28125 1.5625 -11.3125 C 1.40625 -11.34375 1.203125 -11.363281 0.953125 -11.375 L 0.953125 -11.734375 Z M 5.390625 -11.734375 "/></g></g></g><g fill="#2e2e2e" fill-opacity="1"><g transform="translate(192.392501, 225.849931)"><g><path d="M 5.546875 -11.734375 L 5.546875 -11.375 C 5.335938 -11.375 5.132812 -11.363281 4.9375 -11.34375 C 4.75 -11.320312 4.578125 -11.269531 4.421875 -11.1875 C 4.273438 -11.113281 4.15625 -11.003906 4.0625 -10.859375 C 3.96875 -10.722656 3.921875 -10.535156 3.921875 -10.296875 L 3.921875 -1.625 C 3.921875 -1.332031 3.945312 -1.101562 4 -0.9375 C 4.0625 -0.78125 4.160156 -0.65625 4.296875 -0.5625 C 4.429688 -0.46875 4.609375 -0.410156 4.828125 -0.390625 C 5.054688 -0.367188 5.332031 -0.359375 5.65625 -0.359375 L 6.03125 -0.359375 C 6.644531 -0.359375 7.148438 -0.367188 7.546875 -0.390625 C 7.941406 -0.421875 8.28125 -0.488281 8.5625 -0.59375 C 8.851562 -0.707031 9.101562 -0.863281 9.3125 -1.0625 C 9.53125 -1.257812 9.757812 -1.53125 10 -1.875 C 10.164062 -2.113281 10.351562 -2.394531 10.5625 -2.71875 C 10.769531 -3.039062 10.988281 -3.398438 11.21875 -3.796875 L 11.578125 -3.796875 L 10.609375 0 L 0.859375 0 L 0.859375 -0.359375 C 1.054688 -0.359375 1.238281 -0.363281 1.40625 -0.375 C 1.570312 -0.382812 1.710938 -0.414062 1.828125 -0.46875 C 1.941406 -0.53125 2.03125 -0.617188 2.09375 -0.734375 C 2.164062 -0.859375 2.203125 -1.035156 2.203125 -1.265625 L 2.203125 -10.4375 C 2.203125 -10.832031 2.082031 -11.085938 1.84375 -11.203125 C 1.613281 -11.316406 1.300781 -11.375 0.90625 -11.375 L 0.90625 -11.734375 Z M 5.546875 -11.734375 "/></g></g></g><g fill="#2e2e2e" fill-opacity="1"><g transform="translate(204.66083, 225.849931)"><g/></g></g><g fill="#2e2e2e" fill-opacity="1"><g transform="translate(208.908865, 225.849931)"><g><path d="M 5.375 -11.765625 C 5.957031 -11.765625 6.5 -11.691406 7 -11.546875 C 7.507812 -11.398438 7.945312 -11.175781 8.3125 -10.875 C 8.6875 -10.582031 8.972656 -10.21875 9.171875 -9.78125 C 9.378906 -9.34375 9.484375 -8.835938 9.484375 -8.265625 C 9.484375 -7.796875 9.40625 -7.390625 9.25 -7.046875 C 9.101562 -6.703125 8.898438 -6.410156 8.640625 -6.171875 C 8.390625 -5.929688 8.101562 -5.734375 7.78125 -5.578125 C 7.46875 -5.429688 7.148438 -5.3125 6.828125 -5.21875 C 6.503906 -5.132812 6.1875 -5.078125 5.875 -5.046875 C 5.5625 -5.015625 5.289062 -5 5.0625 -5 L 3.453125 -5 L 3.453125 -1.28125 C 3.453125 -1.039062 3.5 -0.859375 3.59375 -0.734375 C 3.6875 -0.617188 3.804688 -0.53125 3.953125 -0.46875 C 4.109375 -0.414062 4.269531 -0.382812 4.4375 -0.375 C 4.613281 -0.363281 4.785156 -0.359375 4.953125 -0.359375 L 4.953125 0 L 0.515625 0 L 0.515625 -0.359375 C 0.710938 -0.359375 0.890625 -0.363281 1.046875 -0.375 C 1.203125 -0.394531 1.328125 -0.429688 1.421875 -0.484375 C 1.523438 -0.546875 1.601562 -0.632812 1.65625 -0.75 C 1.707031 -0.875 1.734375 -1.046875 1.734375 -1.265625 L 1.734375 -10.46875 C 1.734375 -10.6875 1.703125 -10.851562 1.640625 -10.96875 C 1.578125 -11.09375 1.488281 -11.1875 1.375 -11.25 C 1.257812 -11.3125 1.125 -11.347656 0.96875 -11.359375 C 0.820312 -11.367188 0.65625 -11.375 0.46875 -11.375 L 0.46875 -11.734375 C 0.53125 -11.734375 0.679688 -11.734375 0.921875 -11.734375 C 1.160156 -11.742188 1.453125 -11.75 1.796875 -11.75 C 2.140625 -11.75 2.515625 -11.75 2.921875 -11.75 C 3.335938 -11.757812 3.753906 -11.765625 4.171875 -11.765625 Z M 3.453125 -5.359375 L 4.171875 -5.359375 C 4.734375 -5.359375 5.226562 -5.382812 5.65625 -5.4375 C 6.09375 -5.5 6.457031 -5.632812 6.75 -5.84375 C 7.039062 -6.0625 7.257812 -6.367188 7.40625 -6.765625 C 7.5625 -7.171875 7.640625 -7.726562 7.640625 -8.4375 C 7.640625 -9.394531 7.414062 -10.128906 6.96875 -10.640625 C 6.519531 -11.148438 5.851562 -11.40625 4.96875 -11.40625 L 4.828125 -11.40625 C 4.597656 -11.40625 4.398438 -11.398438 4.234375 -11.390625 C 4.066406 -11.378906 3.921875 -11.34375 3.796875 -11.28125 C 3.679688 -11.21875 3.59375 -11.125 3.53125 -11 C 3.476562 -10.875 3.453125 -10.695312 3.453125 -10.46875 Z M 3.453125 -5.359375 "/></g></g></g><g fill="#2e2e2e" fill-opacity="1"><g transform="translate(219.291071, 225.849931)"><g><path d="M 9.71875 -11.734375 L 10.5625 -9 L 10.203125 -8.90625 C 9.972656 -9.25 9.75 -9.566406 9.53125 -9.859375 C 9.3125 -10.160156 9.070312 -10.421875 8.8125 -10.640625 C 8.550781 -10.867188 8.257812 -11.046875 7.9375 -11.171875 C 7.613281 -11.304688 7.234375 -11.375 6.796875 -11.375 L 4.140625 -11.375 L 4.140625 -6.15625 L 4.828125 -6.15625 C 5.347656 -6.15625 5.773438 -6.175781 6.109375 -6.21875 C 6.453125 -6.269531 6.738281 -6.367188 6.96875 -6.515625 C 7.195312 -6.660156 7.378906 -6.875 7.515625 -7.15625 C 7.648438 -7.4375 7.769531 -7.816406 7.875 -8.296875 L 8.140625 -8.296875 L 8.140625 -3.40625 L 7.875 -3.40625 L 7.875 -3.421875 C 7.820312 -3.828125 7.75 -4.171875 7.65625 -4.453125 C 7.5625 -4.742188 7.421875 -4.976562 7.234375 -5.15625 C 7.046875 -5.34375 6.800781 -5.476562 6.5 -5.5625 C 6.207031 -5.644531 5.84375 -5.6875 5.40625 -5.6875 L 4.140625 -5.6875 L 4.140625 -1.15625 C 4.140625 -0.988281 4.171875 -0.847656 4.234375 -0.734375 C 4.296875 -0.628906 4.378906 -0.546875 4.484375 -0.484375 C 4.585938 -0.429688 4.703125 -0.394531 4.828125 -0.375 C 4.960938 -0.363281 5.097656 -0.359375 5.234375 -0.359375 L 7.296875 -0.359375 C 7.640625 -0.359375 7.957031 -0.40625 8.25 -0.5 C 8.539062 -0.601562 8.859375 -0.828125 9.203125 -1.171875 C 9.410156 -1.390625 9.644531 -1.644531 9.90625 -1.9375 C 10.164062 -2.238281 10.445312 -2.632812 10.75 -3.125 L 11.03125 -3.046875 L 10.359375 0 L 1.109375 0 L 1.109375 -0.359375 C 1.285156 -0.359375 1.457031 -0.363281 1.625 -0.375 C 1.789062 -0.394531 1.929688 -0.429688 2.046875 -0.484375 C 2.171875 -0.546875 2.265625 -0.632812 2.328125 -0.75 C 2.398438 -0.875 2.4375 -1.050781 2.4375 -1.28125 L 2.4375 -10.453125 C 2.4375 -10.796875 2.328125 -11.035156 2.109375 -11.171875 C 1.890625 -11.304688 1.566406 -11.375 1.140625 -11.375 L 1.046875 -11.375 L 1.046875 -11.734375 Z M 9.71875 -11.734375 "/></g></g></g><g fill="#2e2e2e" fill-opacity="1"><g transform="translate(231.559399, 225.849931)"><g><path d="M 1.1875 -11.734375 C 1.507812 -11.734375 1.882812 -11.734375 2.3125 -11.734375 C 2.738281 -11.742188 3.164062 -11.753906 3.59375 -11.765625 C 4.03125 -11.773438 4.441406 -11.78125 4.828125 -11.78125 C 5.210938 -11.789062 5.523438 -11.796875 5.765625 -11.796875 C 6.347656 -11.796875 6.910156 -11.734375 7.453125 -11.609375 C 7.992188 -11.492188 8.460938 -11.304688 8.859375 -11.046875 C 9.253906 -10.785156 9.570312 -10.453125 9.8125 -10.046875 C 10.050781 -9.648438 10.171875 -9.171875 10.171875 -8.609375 C 10.171875 -8.160156 10.109375 -7.773438 9.984375 -7.453125 C 9.859375 -7.128906 9.675781 -6.84375 9.4375 -6.59375 C 9.207031 -6.34375 8.925781 -6.128906 8.59375 -5.953125 C 8.269531 -5.773438 7.90625 -5.617188 7.5 -5.484375 C 8.125 -4.804688 8.617188 -4.203125 8.984375 -3.671875 C 9.347656 -3.140625 9.644531 -2.679688 9.875 -2.296875 C 10.09375 -1.941406 10.253906 -1.640625 10.359375 -1.390625 C 10.460938 -1.148438 10.578125 -0.96875 10.703125 -0.84375 C 10.890625 -0.664062 11.085938 -0.539062 11.296875 -0.46875 C 11.503906 -0.394531 11.75 -0.359375 12.03125 -0.359375 L 12.03125 0 L 9.21875 0 C 8.863281 -0.601562 8.535156 -1.144531 8.234375 -1.625 C 7.941406 -2.113281 7.671875 -2.539062 7.421875 -2.90625 C 6.984375 -3.550781 6.625 -4.03125 6.34375 -4.34375 C 6.070312 -4.664062 5.8125 -4.890625 5.5625 -5.015625 C 5.332031 -5.117188 5.101562 -5.1875 4.875 -5.21875 C 4.644531 -5.25 4.382812 -5.273438 4.09375 -5.296875 L 4.09375 -1.265625 C 4.09375 -1.035156 4.125 -0.859375 4.1875 -0.734375 C 4.257812 -0.617188 4.359375 -0.53125 4.484375 -0.46875 C 4.617188 -0.414062 4.773438 -0.382812 4.953125 -0.375 C 5.128906 -0.363281 5.328125 -0.359375 5.546875 -0.359375 L 5.546875 0 L 1.125 0 L 1.125 -0.359375 C 1.5625 -0.359375 1.878906 -0.398438 2.078125 -0.484375 C 2.273438 -0.566406 2.375 -0.789062 2.375 -1.15625 L 2.375 -10.46875 C 2.375 -10.6875 2.34375 -10.851562 2.28125 -10.96875 C 2.226562 -11.09375 2.148438 -11.179688 2.046875 -11.234375 C 1.941406 -11.296875 1.8125 -11.332031 1.65625 -11.34375 C 1.507812 -11.363281 1.351562 -11.375 1.1875 -11.375 Z M 4.09375 -5.65625 C 4.289062 -5.65625 4.5 -5.660156 4.71875 -5.671875 C 4.945312 -5.679688 5.164062 -5.695312 5.375 -5.71875 C 5.625 -5.738281 5.851562 -5.757812 6.0625 -5.78125 C 6.269531 -5.8125 6.488281 -5.875 6.71875 -5.96875 C 7.78125 -6.394531 8.3125 -7.28125 8.3125 -8.625 C 8.3125 -9.445312 8.0625 -10.117188 7.5625 -10.640625 C 7.0625 -11.171875 6.328125 -11.4375 5.359375 -11.4375 C 4.984375 -11.4375 4.675781 -11.382812 4.4375 -11.28125 C 4.207031 -11.175781 4.09375 -10.90625 4.09375 -10.46875 Z M 4.09375 -5.65625 "/></g></g></g><g fill="#2e2e2e" fill-opacity="1"><g transform="translate(243.827728, 225.849931)"><g><path d="M 1.1875 -8.46875 C 1.1875 -8.988281 1.28125 -9.457031 1.46875 -9.875 C 1.664062 -10.300781 1.929688 -10.660156 2.265625 -10.953125 C 2.597656 -11.253906 2.984375 -11.484375 3.421875 -11.640625 C 3.859375 -11.804688 4.328125 -11.890625 4.828125 -11.890625 C 5.335938 -11.890625 5.835938 -11.800781 6.328125 -11.625 C 6.816406 -11.457031 7.226562 -11.21875 7.5625 -10.90625 L 8.078125 -11.359375 L 8.3125 -11.359375 L 8.3125 -7.875 L 8 -7.875 C 7.96875 -8 7.925781 -8.15625 7.875 -8.34375 C 7.820312 -8.53125 7.765625 -8.726562 7.703125 -8.9375 C 7.640625 -9.144531 7.566406 -9.351562 7.484375 -9.5625 C 7.410156 -9.78125 7.316406 -9.988281 7.203125 -10.1875 C 7.003906 -10.53125 6.71875 -10.835938 6.34375 -11.109375 C 5.96875 -11.390625 5.535156 -11.53125 5.046875 -11.53125 C 4.242188 -11.53125 3.628906 -11.285156 3.203125 -10.796875 C 2.773438 -10.316406 2.5625 -9.6875 2.5625 -8.90625 C 2.5625 -8.625 2.597656 -8.378906 2.671875 -8.171875 C 2.742188 -7.972656 2.847656 -7.796875 2.984375 -7.640625 C 3.128906 -7.484375 3.289062 -7.351562 3.46875 -7.25 C 3.644531 -7.15625 3.84375 -7.066406 4.0625 -6.984375 C 4.476562 -6.828125 4.914062 -6.679688 5.375 -6.546875 C 5.832031 -6.421875 6.28125 -6.242188 6.71875 -6.015625 C 6.976562 -5.878906 7.222656 -5.722656 7.453125 -5.546875 C 7.679688 -5.367188 7.882812 -5.164062 8.0625 -4.9375 C 8.238281 -4.707031 8.378906 -4.441406 8.484375 -4.140625 C 8.585938 -3.835938 8.640625 -3.492188 8.640625 -3.109375 C 8.640625 -2.523438 8.53125 -2.019531 8.3125 -1.59375 C 8.101562 -1.164062 7.816406 -0.816406 7.453125 -0.546875 C 7.085938 -0.273438 6.65625 -0.078125 6.15625 0.046875 C 5.664062 0.171875 5.144531 0.234375 4.59375 0.234375 C 4.050781 0.234375 3.535156 0.15625 3.046875 0 C 2.566406 -0.144531 2.113281 -0.351562 1.6875 -0.625 L 1.03125 0 L 0.828125 0 L 0.828125 -3.546875 L 1.171875 -3.546875 C 1.304688 -2.492188 1.640625 -1.660156 2.171875 -1.046875 C 2.703125 -0.429688 3.453125 -0.125 4.421875 -0.125 C 4.929688 -0.125 5.359375 -0.195312 5.703125 -0.34375 C 6.054688 -0.5 6.34375 -0.695312 6.5625 -0.9375 C 6.78125 -1.1875 6.929688 -1.453125 7.015625 -1.734375 C 7.109375 -2.023438 7.15625 -2.304688 7.15625 -2.578125 C 7.15625 -3.097656 7.019531 -3.503906 6.75 -3.796875 C 6.476562 -4.085938 6.148438 -4.3125 5.765625 -4.46875 C 5.515625 -4.570312 5.238281 -4.671875 4.9375 -4.765625 C 4.644531 -4.859375 4.347656 -4.957031 4.046875 -5.0625 C 3.753906 -5.164062 3.457031 -5.28125 3.15625 -5.40625 C 2.863281 -5.53125 2.597656 -5.675781 2.359375 -5.84375 C 1.992188 -6.09375 1.707031 -6.421875 1.5 -6.828125 C 1.289062 -7.242188 1.1875 -7.789062 1.1875 -8.46875 Z M 1.1875 -8.46875 "/></g></g></g><g fill="#2e2e2e" fill-opacity="1"><g transform="translate(253.275363, 225.849931)"><g><path d="M 0.703125 -5.671875 C 0.703125 -6.515625 0.800781 -7.25 1 -7.875 C 1.207031 -8.507812 1.476562 -9.054688 1.8125 -9.515625 C 2.144531 -9.972656 2.523438 -10.351562 2.953125 -10.65625 C 3.378906 -10.96875 3.804688 -11.210938 4.234375 -11.390625 C 4.660156 -11.566406 5.078125 -11.691406 5.484375 -11.765625 C 5.898438 -11.847656 6.253906 -11.890625 6.546875 -11.890625 C 7.285156 -11.890625 8.015625 -11.757812 8.734375 -11.5 C 9.453125 -11.25 10.085938 -10.867188 10.640625 -10.359375 C 11.203125 -9.847656 11.65625 -9.207031 12 -8.4375 C 12.351562 -7.675781 12.53125 -6.78125 12.53125 -5.75 C 12.53125 -5.363281 12.488281 -4.945312 12.40625 -4.5 C 12.320312 -4.050781 12.1875 -3.601562 12 -3.15625 C 11.8125 -2.71875 11.5625 -2.296875 11.25 -1.890625 C 10.9375 -1.484375 10.554688 -1.117188 10.109375 -0.796875 C 9.660156 -0.484375 9.132812 -0.234375 8.53125 -0.046875 C 7.9375 0.140625 7.242188 0.234375 6.453125 0.234375 C 5.410156 0.234375 4.53125 0.0546875 3.8125 -0.296875 C 3.09375 -0.648438 2.503906 -1.117188 2.046875 -1.703125 C 1.804688 -1.984375 1.601562 -2.289062 1.4375 -2.625 C 1.269531 -2.957031 1.128906 -3.296875 1.015625 -3.640625 C 0.898438 -3.992188 0.816406 -4.34375 0.765625 -4.6875 C 0.722656 -5.03125 0.703125 -5.359375 0.703125 -5.671875 Z M 6.640625 -11.53125 C 6.085938 -11.53125 5.554688 -11.398438 5.046875 -11.140625 C 4.546875 -10.878906 4.125 -10.515625 3.78125 -10.046875 C 3.320312 -9.453125 2.992188 -8.773438 2.796875 -8.015625 C 2.609375 -7.265625 2.515625 -6.457031 2.515625 -5.59375 C 2.515625 -4.851562 2.601562 -4.148438 2.78125 -3.484375 C 2.957031 -2.828125 3.210938 -2.25 3.546875 -1.75 C 3.878906 -1.25 4.289062 -0.851562 4.78125 -0.5625 C 5.269531 -0.269531 5.828125 -0.125 6.453125 -0.125 C 7.179688 -0.125 7.8125 -0.296875 8.34375 -0.640625 C 8.875 -0.984375 9.316406 -1.425781 9.671875 -1.96875 C 10.023438 -2.507812 10.285156 -3.113281 10.453125 -3.78125 C 10.617188 -4.457031 10.703125 -5.117188 10.703125 -5.765625 C 10.703125 -6.796875 10.5625 -7.675781 10.28125 -8.40625 C 10.007812 -9.132812 9.671875 -9.726562 9.265625 -10.1875 C 8.859375 -10.644531 8.414062 -10.984375 7.9375 -11.203125 C 7.46875 -11.421875 7.035156 -11.53125 6.640625 -11.53125 Z M 6.640625 -11.53125 "/></g></g></g><g fill="#2e2e2e" fill-opacity="1"><g transform="translate(266.495257, 225.849931)"><g><path d="M 3.078125 -11.734375 L 11.484375 -2.5 L 11.484375 -10.34375 C 11.484375 -10.5625 11.441406 -10.734375 11.359375 -10.859375 C 11.285156 -10.984375 11.179688 -11.078125 11.046875 -11.140625 C 10.910156 -11.210938 10.75 -11.265625 10.5625 -11.296875 C 10.382812 -11.328125 10.195312 -11.351562 10 -11.375 L 10 -11.734375 L 13.5 -11.734375 L 13.5 -11.375 C 13.34375 -11.34375 13.171875 -11.304688 12.984375 -11.265625 C 12.804688 -11.222656 12.640625 -11.164062 12.484375 -11.09375 C 12.328125 -11.019531 12.195312 -10.921875 12.09375 -10.796875 C 12 -10.679688 11.953125 -10.53125 11.953125 -10.34375 L 11.953125 0.140625 L 11.703125 0.140625 L 2.484375 -9.890625 L 2.484375 -1.28125 C 2.484375 -0.988281 2.609375 -0.765625 2.859375 -0.609375 C 3.109375 -0.460938 3.503906 -0.378906 4.046875 -0.359375 L 4.046875 0 L 0.53125 0 L 0.53125 -0.359375 C 0.820312 -0.378906 1.0625 -0.410156 1.25 -0.453125 C 1.445312 -0.492188 1.601562 -0.554688 1.71875 -0.640625 C 1.832031 -0.734375 1.910156 -0.851562 1.953125 -1 C 1.992188 -1.15625 2.015625 -1.351562 2.015625 -1.59375 L 2.015625 -10.390625 C 1.753906 -10.660156 1.515625 -10.890625 1.296875 -11.078125 C 1.085938 -11.265625 0.835938 -11.363281 0.546875 -11.375 L 0.546875 -11.734375 Z M 3.078125 -11.734375 "/></g></g></g><g fill="#2e2e2e" fill-opacity="1"><g transform="translate(280.649721, 225.849931)"><g><path d="M 4.4375 -10.734375 C 4.71875 -10.890625 4.96875 -11.082031 5.1875 -11.3125 C 5.40625 -11.550781 5.613281 -11.796875 5.8125 -12.046875 L 9.671875 -2.234375 C 9.785156 -1.921875 9.882812 -1.65625 9.96875 -1.4375 C 10.0625 -1.226562 10.160156 -1.050781 10.265625 -0.90625 C 10.378906 -0.757812 10.507812 -0.640625 10.65625 -0.546875 C 10.8125 -0.453125 11.019531 -0.390625 11.28125 -0.359375 L 11.28125 0 L 6.84375 0 L 6.84375 -0.359375 L 6.96875 -0.359375 C 7.082031 -0.359375 7.210938 -0.363281 7.359375 -0.375 C 7.503906 -0.382812 7.644531 -0.410156 7.78125 -0.453125 C 7.914062 -0.503906 8.03125 -0.570312 8.125 -0.65625 C 8.226562 -0.75 8.28125 -0.875 8.28125 -1.03125 C 8.28125 -1.15625 8.226562 -1.363281 8.125 -1.65625 C 8.019531 -1.957031 7.898438 -2.28125 7.765625 -2.625 C 7.640625 -2.96875 7.507812 -3.304688 7.375 -3.640625 C 7.25 -3.972656 7.160156 -4.242188 7.109375 -4.453125 L 3.046875 -4.453125 C 2.992188 -4.296875 2.90625 -4.050781 2.78125 -3.71875 C 2.65625 -3.394531 2.523438 -3.050781 2.390625 -2.6875 C 2.253906 -2.332031 2.132812 -2.003906 2.03125 -1.703125 C 1.9375 -1.410156 1.890625 -1.207031 1.890625 -1.09375 C 1.890625 -0.914062 1.9375 -0.78125 2.03125 -0.6875 C 2.132812 -0.601562 2.257812 -0.535156 2.40625 -0.484375 C 2.5625 -0.441406 2.71875 -0.410156 2.875 -0.390625 C 3.03125 -0.378906 3.160156 -0.367188 3.265625 -0.359375 L 3.265625 0 L 0.1875 0 L 0.1875 -0.359375 C 0.445312 -0.378906 0.671875 -0.460938 0.859375 -0.609375 C 1.046875 -0.753906 1.1875 -0.941406 1.28125 -1.171875 L 4.75 -10.21875 Z M 3.234375 -4.90625 L 6.921875 -4.90625 L 5 -9.71875 Z M 3.234375 -4.90625 "/></g></g></g><g fill="#2e2e2e" fill-opacity="1"><g transform="translate(291.983491, 225.849931)"><g><path d="M 5.546875 -11.734375 L 5.546875 -11.375 C 5.335938 -11.375 5.132812 -11.363281 4.9375 -11.34375 C 4.75 -11.320312 4.578125 -11.269531 4.421875 -11.1875 C 4.273438 -11.113281 4.15625 -11.003906 4.0625 -10.859375 C 3.96875 -10.722656 3.921875 -10.535156 3.921875 -10.296875 L 3.921875 -1.625 C 3.921875 -1.332031 3.945312 -1.101562 4 -0.9375 C 4.0625 -0.78125 4.160156 -0.65625 4.296875 -0.5625 C 4.429688 -0.46875 4.609375 -0.410156 4.828125 -0.390625 C 5.054688 -0.367188 5.332031 -0.359375 5.65625 -0.359375 L 6.03125 -0.359375 C 6.644531 -0.359375 7.148438 -0.367188 7.546875 -0.390625 C 7.941406 -0.421875 8.28125 -0.488281 8.5625 -0.59375 C 8.851562 -0.707031 9.101562 -0.863281 9.3125 -1.0625 C 9.53125 -1.257812 9.757812 -1.53125 10 -1.875 C 10.164062 -2.113281 10.351562 -2.394531 10.5625 -2.71875 C 10.769531 -3.039062 10.988281 -3.398438 11.21875 -3.796875 L 11.578125 -3.796875 L 10.609375 0 L 0.859375 0 L 0.859375 -0.359375 C 1.054688 -0.359375 1.238281 -0.363281 1.40625 -0.375 C 1.570312 -0.382812 1.710938 -0.414062 1.828125 -0.46875 C 1.941406 -0.53125 2.03125 -0.617188 2.09375 -0.734375 C 2.164062 -0.859375 2.203125 -1.035156 2.203125 -1.265625 L 2.203125 -10.4375 C 2.203125 -10.832031 2.082031 -11.085938 1.84375 -11.203125 C 1.613281 -11.316406 1.300781 -11.375 0.90625 -11.375 L 0.90625 -11.734375 Z M 5.546875 -11.734375 "/></g></g></g></svg>