<svg viewBox="0 0 841.89 595.28" xmlns="http://www.w3.org/2000/svg"><g fill="#231f20"><path d="m323.66 275.93c-4.9 0-9.36-.75-13.37-2.24s-7.46-3.68-10.36-6.55-5.13-6.38-6.68-10.54c-1.56-4.16-2.33-8.9-2.33-14.22s.78-10.05 2.33-14.17c1.55-4.13 3.78-7.62 6.68-10.5 2.9-2.87 6.35-5.05 10.36-6.55 4.01-1.49 8.46-2.24 13.37-2.24 5.62 0 10.61.97 14.98 2.92 4.36 1.94 7.91 4.65 10.63 8.12s4.35 7.57 4.89 12.29h-14.17c-.54-2.27-1.54-4.26-3.01-5.97-1.47-1.7-3.32-3.03-5.56-3.99s-4.83-1.44-7.76-1.44c-3.71 0-6.94.79-9.69 2.38-2.75 1.58-4.89 3.98-6.41 7.18s-2.29 7.19-2.29 11.97c0 3.59.43 6.74 1.3 9.46s2.11 4.98 3.72 6.77 3.54 3.14 5.79 4.04 4.77 1.35 7.58 1.35 5.35-.48 7.62-1.44 4.17-2.3 5.7-4.04 2.53-3.74 3.01-6.01h14.17c-.48 4.67-2.09 8.76-4.84 12.29s-6.32 6.26-10.72 8.21c-4.4 1.94-9.37 2.92-14.94 2.92z"/><path d="m360.53 275.13v-65.39h13.99v65.39zm11.03-27.45v-11.93h36.69v11.93zm33.73 27.45v-65.39h13.99v65.39z"/><path d="m429.24 275.13v-65.39h47.54v11.93h-36.51l2.96-2.96v47.45l-2.96-2.96h36.69v11.93zm11.04-27.63v-11.21h32.11v11.21z"/><path d="m483.87 275.13v-65.39h47.45v11.93h-35.79l2.33-2.33v55.8h-13.99zm10.41-25.66v-11.39h33.46v11.39z"/><path d="m293.88 356.42v-65.39h26.73c5.5 0 10.08.88 13.72 2.65 3.65 1.76 6.38 4.25 8.21 7.45 1.82 3.2 2.74 6.98 2.74 11.35 0 4.61-1.02 8.52-3.05 11.75s-4.9 5.7-8.61 7.4-8.04 2.56-13.01 2.56h-13.99v-10.85h12.83c4.01 0 6.95-.99 8.84-2.96s2.83-4.46 2.83-7.45c0-3.47-1.06-6.01-3.18-7.62-2.12-1.62-4.95-2.42-8.48-2.42h-13.37l1.79-1.71v55.26h-13.99z"/><path d="m351.74 356.42v-65.39h33.28c2.69 0 5.14.24 7.36.72 2.21.48 4.2 1.2 5.97 2.15 1.76.96 3.26 2.15 4.49 3.59s2.17 3.11 2.83 5.02c.66 1.92.99 4.07.99 6.46 0 4.07-1.08 7.49-3.23 10.27s-5.08 4.68-8.79 5.7v.54c2.51.42 4.56 1.18 6.14 2.29s2.74 2.51 3.45 4.22c.72 1.7 1.08 3.78 1.08 6.23v10.76c0 1.2.04 2.42.13 3.68s.4 2.51.94 3.77h-14.08c-.36-.78-.61-1.82-.76-3.14-.15-1.31-.22-2.75-.22-4.31v-8.34c0-1.85-.28-3.41-.85-4.66-.57-1.26-1.57-2.23-3-2.92-1.44-.69-3.5-1.03-6.19-1.03h-16.77v-11.03h17.31c3.77 0 6.46-.9 8.07-2.69s2.42-4.04 2.42-6.73c0-1.67-.25-3.06-.76-4.17s-1.24-2.02-2.2-2.74-2.06-1.24-3.32-1.57-2.66-.49-4.22-.49h-16.06v53.82h-13.99z"/><path d="m414.35 356.42v-65.39h13.99v65.39z"/><path d="m456.51 356.42-22.87-65.39h15.61l11.75 39.74 4.48 14.53h.72l4.49-14.53 11.84-39.74h15.52l-22.78 65.39h-18.75z"/><path d="m503.34 356.42v-65.39h47.54v11.93h-36.51l2.96-2.96v47.45l-2.96-2.96h36.69v11.93zm11.03-27.63v-11.21h32.11v11.21zm6.46-43.33 5.11-13.01h13.1l-8.16 13.01z"/><path d="m296.12 393.5c-.77.29-1.78.3-2.65.3h-5.19v-.15c.5-.08.99-.26 1.26-.57.2-.24.26-.98.27-1.62.01-.56.03-2.02.03-3.11 0-1.2 0-1.73-.02-2.93-.01-.71-.06-1.58-.3-1.83-.3-.32-.54-.39-1.08-.45v-.15h5.07c.77 0 1.44.08 2.09.32 1.01.38 1.76 1.17 1.76 2.36 0 1.31-.95 2.15-2.3 2.42v.06c1.46.17 2.92 1.1 2.92 2.71 0 1.43-.98 2.33-1.87 2.66zm-1.82-10.03c-.44-.2-1.04-.3-1.73-.3-.42 0-.78.04-.96.11-.04.26-.06.33-.09 1.07-.04 1.4-.03 3.63-.03 3.81.66 0 1.13 0 1.4-.01 1.81-.11 2.75-1.11 2.75-2.48 0-.99-.57-1.85-1.34-2.18zm.06 5.08c-.44-.13-.84-.18-1.41-.18h-1.46c0 1.29 0 2.6.02 3.27.01.75.03 1.23.27 1.55.18.23.51.39 1.19.39.57 0 1.29-.04 1.94-.38.83-.44 1.32-1.19 1.32-2.2 0-1.14-.8-2.11-1.87-2.45z"/><path d="m306.74 385.05c-.5.75-1.84 2.83-2.32 3.55v3.02c0 .57.02 1.22.17 1.43.3.44.84.53 1.28.6v.15h-4.63v-.15c.53-.06.86-.11 1.31-.62.2-.21.2-.99.21-1.64.02-.56.03-1.31.03-2.41-.11-.17-1.84-2.99-2.41-3.88-.75-1.17-1.22-1.93-2.03-1.99v-.15h4.59v.15c-.59.06-1.31.12-1.31.63 0 .26.36.86.68 1.4.42.72 1.29 2.12 1.96 3.21.51-.75 1.64-2.54 2.02-3.17.18-.3.54-.89.54-1.29 0-.63-.72-.68-1.28-.77v-.15h3.48v.15c-1.11.17-1.53.81-2.27 1.93z"/><path d="m320.09 393.5c-.77.29-1.78.3-2.65.3h-5.19v-.15c.5-.08.99-.26 1.26-.57.2-.24.26-.98.27-1.62.01-.56.03-2.02.03-3.11 0-1.2 0-1.73-.02-2.93-.01-.71-.06-1.58-.3-1.83-.3-.32-.54-.39-1.08-.45v-.15h5.07c.77 0 1.44.08 2.09.32 1.01.38 1.76 1.17 1.76 2.36 0 1.31-.95 2.15-2.3 2.42v.06c1.46.17 2.92 1.1 2.92 2.71 0 1.43-.98 2.33-1.87 2.66zm-1.82-10.03c-.44-.2-1.04-.3-1.73-.3-.42 0-.78.04-.96.11-.04.26-.06.33-.09 1.07-.04 1.4-.03 3.63-.03 3.81.66 0 1.13 0 1.4-.01 1.81-.11 2.75-1.11 2.75-2.48 0-.99-.57-1.85-1.34-2.18zm.06 5.08c-.44-.13-.84-.18-1.41-.18h-1.46c0 1.29 0 2.6.02 3.27.01.75.03 1.23.27 1.55.18.23.51.39 1.19.39.57 0 1.29-.04 1.94-.38.83-.44 1.32-1.19 1.32-2.2 0-1.14-.8-2.11-1.87-2.45z"/><path d="m333.89 384.05c-.14.3-.2 1.35-.21 2.27-.01.86-.06 1.91-.09 3.25-.03 1.13 0 4.41-4.39 4.41s-4.36-3.22-4.36-3.97c0-.56.01-1.5.01-2.6v-2c0-.71 0-1.49-.23-1.76-.29-.33-.69-.47-1.22-.53v-.15h4.48v.15c-.57.08-1.34.27-1.37 1.2-.03 1.04-.03 1.5-.03 2.59 0 1.38 0 2.08.02 3.04.04 2.14 1.2 3.52 3.2 3.52 3.42 0 3.58-2.56 3.61-4.59.02-1.08 0-1.7 0-2.56 0-.8-.02-1.73-.17-2.15-.2-.56-.65-.92-1.61-1.05v-.15h3.73v.15c-.74.1-1.14.36-1.38.93z"/><path d="m346.18 386.46c-.54-1.93-2.12-3.46-4.14-3.46-2.77 0-4.35 2.72-4.35 5.43 0 2.9 1.71 5.19 4.38 5.19 2.08 0 3.72-1.64 4.09-3.37h.18l-.05 3.31h-.18c-.24-.35-.56-.68-.65-.68-.08 0-1.31 1.01-3.55 1.01-3.75 0-6.08-2.3-6.08-5.54 0-.71.15-1.88.89-3.04.86-1.37 2.47-2.57 5.1-2.57 2.42 0 3.58 1.05 3.67 1.05.08 0 .47-.38.69-.72h.17v3.37l-.18.02z"/><path d="m353.7 393.8v-.15c.14-.01 1.05-.12 1.05-.69 0-.35-.48-1.73-1.08-3.31h-4c-.3.75-.59 1.43-.86 2.14-.21.54-.32.95-.32 1.14 0 .53.72.66 1.25.72v.15h-3.23v-.17c.53-.06.96-.36 1.02-.44.14-.14.47-.63.93-1.66.86-1.9 2.15-4.95 3.1-7.21l-.15-.33c.72-.32 1.16-.96 1.32-1.25h.12l3.16 8.46c.23.62.39.96.63 1.47.09.18.53.9 1.44.93v.18h-4.39zm-1.97-9.12c-.23.54-.98 2.29-1.93 4.65h3.75c-.68-1.79-1.46-3.75-1.82-4.65z"/><path d="m367.64 385.8c-.32-.72-.93-1.61-1.25-1.91-.42-.39-.87-.5-1.62-.51-.77-.01-1.02-.01-1.91-.01-.02 1.02-.02 3.69-.02 4.92v3.34c0 .57.02 1.19.17 1.4.3.44.95.56 1.38.63v.15h-4.89v-.15c.53-.06 1.01-.14 1.46-.65.2-.21.2-.96.21-1.61.01-.56.03-1.96.03-3.05v-4.98c-.86 0-1.14 0-1.91.01-.75.02-1.2.17-1.62.56-.32.3-.9 1.14-1.22 1.87l-.14-.04.48-2.86c.47.11.74.17 1.49.18 1.52.03 2.27.03 3.76.03s2.24-.01 3.76-.03c.66-.01 1.02-.12 1.49-.26l.48 2.93-.14.04z"/><path d="m372.86 393.8v-.15c.14-.01 1.05-.12 1.05-.69 0-.35-.48-1.73-1.08-3.31h-4c-.3.75-.59 1.43-.86 2.14-.21.54-.32.95-.32 1.14 0 .53.72.66 1.25.72v.15h-3.23v-.17c.53-.06.96-.36 1.02-.44.14-.14.47-.63.93-1.66.86-1.9 2.15-4.95 3.1-7.21l-.15-.33c.72-.32 1.16-.96 1.32-1.25h.12l3.16 8.46c.23.62.39.96.63 1.47.09.18.53.9 1.44.93v.18h-4.39zm-1.97-9.12c-.23.54-.98 2.29-1.93 4.65h3.75c-.68-1.79-1.46-3.75-1.82-4.65z"/><path d="m385.68 393.8c-.35-.36-.24-.21-.87-1.14-.75-1.11-1.1-1.75-2.06-2.86-.39-.45-.89-.92-1.4-1.02-.38-.08-.5-.06-.78-.08 0 1.29 0 2.26.02 2.92.01.65 0 1.1.2 1.4.17.26.62.6 1.43.63v.15h-4.81v-.15c.5-.08 1.01-.23 1.26-.54.21-.26.23-1.01.24-1.65.01-.56.03-2.02.03-3.11v-2.93c0-.71-.02-1.56-.26-1.82-.3-.32-.65-.39-1.19-.47v-.15c.32 0 3.04-.02 4.12-.02 1.34 0 2.36.02 3.22.47.87.47 1.47 1.23 1.47 2.44 0 1.47-1.14 2.35-2.48 2.77v.04c.35.18.66.54.96.96.53.75 1.19 1.73 1.67 2.41.74 1.05 1.37 1.47 2.32 1.61v.15h-3.08zm-2.59-10.3c-.48-.23-1.02-.32-1.59-.32-.42 0-.68.03-.81.04-.04.24-.06.26-.09 1.16-.04 1.4-.03 3.81-.03 4.12.81 0 1.52-.06 2.18-.27 1.29-.41 1.82-1.38 1.82-2.47 0-.99-.51-1.82-1.47-2.27z"/><path d="m398.34 384.05c-.14.3-.2 1.35-.21 2.27-.01.86-.06 1.91-.09 3.25-.03 1.13 0 4.41-4.39 4.41s-4.36-3.22-4.36-3.97c0-.56.01-1.5.01-2.6v-2c0-.71 0-1.49-.23-1.76-.29-.33-.69-.47-1.22-.53v-.15h4.48v.15c-.57.08-1.34.27-1.37 1.2-.03 1.04-.03 1.5-.03 2.59 0 1.38 0 2.08.02 3.04.04 2.14 1.2 3.52 3.2 3.52 3.42 0 3.58-2.56 3.61-4.59.02-1.08 0-1.7 0-2.56 0-.8-.02-1.73-.17-2.15-.2-.56-.65-.92-1.61-1.05v-.15h3.73v.15c-.74.1-1.14.36-1.38.93z"/><path d="m410.05 393.8h-9.66v-.15c.5-.08 1.05-.26 1.32-.57.2-.24.27-.98.29-1.62.01-.56.03-2.02.03-3.11v-2.92c0-.71 0-1.46-.23-1.73-.29-.33-.78-.51-1.31-.57v-.15h4.8v.15c-.54.08-1.55.24-1.58 1.32-.04 1.4-.04 2.21-.04 3.7 0 1.37 0 2.09.02 3.46.01.65.01 1.29.2 1.56.15.21 1.04.41 1.84.41.33 0 1.5-.03 2.2-.23 1.59-.44 2.05-1.49 2.54-2.69l.15.04-.56 3.1z"/><path d="m421.12 388.9c-1.13.41-2.66.38-3.64.38 0 1.29 0 1.7.02 2.36.01.65 0 1.1.2 1.4.17.26.62.59 1.43.62v.15h-4.81v-.15c.5-.08 1.01-.23 1.26-.54.21-.26.23-1.01.24-1.65.01-.56.03-2.02.03-3.11v-2.93c0-.71-.02-1.56-.26-1.82-.3-.32-.8-.39-1.34-.47v-.15c.38 0 3.19-.03 4.27-.03 1.31 0 2.3.08 3.2.57.87.48 1.53 1.38 1.53 2.59 0 1.47-1.04 2.41-2.14 2.8zm-1.1-5.45c-.48-.23-1.04-.29-1.61-.29-.42 0-.63.04-.77.06-.06.24-.11.26-.14 1.16-.04 1.4-.03 4.38-.03 4.68.81 0 1.55-.03 2.17-.24 1.28-.44 1.99-1.54 1.99-2.8 0-1.16-.65-2.12-1.61-2.57z"/><path d="m433.38 393.8h-9.21v-.15c.5-.08.96-.26 1.23-.57.2-.24.26-.98.27-1.62.01-.56.03-2.02.03-3.11v-2.93c0-.71-.02-1.59-.26-1.85-.3-.32-.6-.36-1.14-.44v-.15h8.3l1.02 2.48-.15.08c-.81-1.01-1.59-1.7-2.29-2.05-.35-.17-1.32-.3-2.63-.3-.42 0-.95.03-1.14.08-.03.32-.08 1.41-.08 2.74 0 1.52.02 2.05.02 2.15.18 0 1.37 0 1.9-.12 1.22-.29 1.5-.95 1.75-2.08h.18v4.74h-.18c-.17-.63-.53-1.43-.89-1.76-.32-.29-.77-.48-1.37-.51s-.74-.03-1.37-.03c-.03.27-.03.87-.03 1.46 0 .54 0 1.4.02 1.79.01.65.04 1.28.23 1.55.18.27.96.39 1.76.39.33 0 .92-.01 1.49-.09 1.26-.17 2.14-.89 3.13-2.6l.17.04-.75 2.87z"/><path d="m443.15 393.8c-.35-.36-.24-.21-.87-1.14-.75-1.11-1.1-1.75-2.06-2.86-.39-.45-.89-.92-1.4-1.02-.38-.08-.5-.06-.78-.08 0 1.29 0 2.26.02 2.92.01.65 0 1.1.2 1.4.17.26.62.6 1.43.63v.15h-4.81v-.15c.5-.08 1.01-.23 1.26-.54.21-.26.23-1.01.24-1.65.01-.56.03-2.02.03-3.11v-2.93c0-.71-.02-1.56-.26-1.82-.3-.32-.65-.39-1.19-.47v-.15c.32 0 3.04-.02 4.12-.02 1.34 0 2.36.02 3.22.47.87.47 1.47 1.23 1.47 2.44 0 1.47-1.14 2.35-2.48 2.77v.04c.35.18.66.54.96.96.53.75 1.19 1.73 1.67 2.41.74 1.05 1.37 1.47 2.32 1.61v.15h-3.08zm-2.58-10.3c-.48-.23-1.02-.32-1.59-.32-.42 0-.68.03-.81.04-.04.24-.06.26-.09 1.16-.04 1.4-.03 3.81-.03 4.12.81 0 1.52-.06 2.18-.27 1.29-.41 1.82-1.38 1.82-2.47 0-.99-.51-1.82-1.47-2.27z"/><path d="m450.18 393.94c-1.96 0-2.77-.68-2.87-.68-.06 0-.3.3-.47.53h-.14l-.05-2.99h.15c.36 1.07 1.17 2.14 1.87 2.5.35.18.96.41 1.49.41 1.47 0 2.5-.89 2.5-2.26 0-1.13-.77-1.62-1.73-1.99-.98-.36-1.31-.44-2.21-.78-1.04-.41-1.99-1.43-1.99-2.72 0-2.15 1.7-3.14 3.61-3.14 1.81 0 2.53.72 2.59.72s.3-.3.45-.54h.17v2.78h-.17c-.5-1.34-1.49-2.72-3.05-2.72-1.26 0-2.26.75-2.26 2.12 0 1.05.72 1.67 1.73 2.05.81.32 1.37.47 2.15.75 1.35.5 2.15 1.46 2.15 2.87 0 1.93-1.64 3.1-3.93 3.1z"/><path d="m460.86 393.91c-3.05 0-5.61-2.3-5.61-5.54 0-3.46 2.66-5.55 5.81-5.55 3.42 0 5.48 2.6 5.48 5.49 0 3.2-2.59 5.6-5.67 5.6zm.01-10.84c-2.62 0-3.76 2.75-3.76 5.34 0 2.72 1.26 5.24 3.81 5.24s3.75-2.81 3.75-5.33-1.23-5.25-3.79-5.25z"/><path d="m478.28 384.05c-.14.3-.17 1.22-.2 2.14-.03.86-.08 2.08-.08 3.42 0 1.14.02 2.93.02 4.11 0 .08-.04.17-.15.17-.08 0-.18-.08-.27-.18-3.43-3.93-5.43-6.41-8.15-9.46v6.35c0 1.01.03 1.91.23 2.3.23.45.68.66 1.49.77v.15h-3.7v-.15c.48-.06 1.02-.23 1.29-.66.27-.42.33-1.26.36-2.41.03-.86.06-2.08.06-3.42 0-1.14.02-1.41-.01-2.57-.12-1.17-.96-1.38-1.59-1.47v-.15h3.05l7.13 8.33v-5.12c0-.8 0-1.59-.15-2.02-.2-.56-.68-.92-1.64-1.05v-.15h3.73v.15c-.74.1-1.17.36-1.41.93z"/><path d="m486.61 393.8v-.15c.14-.01 1.05-.12 1.05-.69 0-.35-.48-1.73-1.08-3.31h-4c-.3.75-.59 1.43-.86 2.14-.21.54-.32.95-.32 1.14 0 .53.72.66 1.25.72v.15h-3.23v-.17c.53-.06.96-.36 1.02-.44.14-.14.47-.63.93-1.66.86-1.9 2.15-4.95 3.1-7.21l-.15-.33c.72-.32 1.16-.96 1.32-1.25h.12l3.16 8.46c.23.62.39.96.63 1.47.09.18.53.9 1.44.93v.18h-4.39zm-1.97-9.12c-.23.54-.98 2.29-1.93 4.65h3.75c-.68-1.79-1.46-3.75-1.82-4.65z"/><path d="m500.69 393.8h-9.66v-.15c.5-.08 1.05-.26 1.32-.57.2-.24.27-.98.29-1.62.01-.56.03-2.02.03-3.11v-2.92c0-.71 0-1.46-.23-1.73-.29-.33-.78-.51-1.31-.57v-.15h4.8v.15c-.54.08-1.55.24-1.58 1.32-.04 1.4-.04 2.21-.04 3.7 0 1.37 0 2.09.02 3.46.01.65.01 1.29.2 1.56.15.21 1.04.41 1.84.41.33 0 1.5-.03 2.2-.23 1.59-.44 2.05-1.49 2.54-2.69l.15.04-.56 3.1z"/></g></svg>