<svg width="390" height="50" viewBox="0 0 390 50" fill="none" xmlns="http://www.w3.org/2000/svg">
<mask id="path-1-outside-1_133_28" maskUnits="userSpaceOnUse" x="0" y="0" width="390" height="50" fill="black">
<rect fill="white" width="390" height="50"/>
<path d="M24.408 1.792C26.968 1.792 29.144 2.15466 30.936 2.88C32.728 3.60533 34.4773 4.62933 36.184 5.952C36.6533 6.336 37.0587 6.528 37.4 6.528C38.2533 6.528 38.808 5.248 39.064 2.688H40.536C40.3653 5.58933 40.28 10.752 40.28 18.176H38.808C38.424 15.0187 37.912 12.608 37.272 10.944C36.632 9.28 35.544 7.82933 34.008 6.592C32.9413 5.568 31.704 4.8 30.296 4.288C28.888 3.73333 27.416 3.456 25.88 3.456C21.5707 3.456 18.3707 5.568 16.28 9.792C14.1893 13.9733 13.144 19.2 13.144 25.472C13.144 31.7013 14.232 36.9067 16.408 41.088C18.584 45.2693 21.8267 47.36 26.136 47.36C27.5867 47.36 29.016 47.104 30.424 46.592C31.8747 46.0373 33.0907 45.248 34.072 44.224C35.6507 43.0293 36.7387 41.536 37.336 39.744C37.976 37.952 38.4667 35.328 38.808 31.872H40.28C40.28 39.5947 40.3653 44.9707 40.536 48H39.064C38.936 46.6347 38.744 45.6747 38.488 45.12C38.2747 44.5227 37.9547 44.224 37.528 44.224C37.1867 44.224 36.7387 44.3947 36.184 44.736C34.264 46.1013 32.4293 47.1467 30.68 47.872C28.9307 48.5547 26.8187 48.896 24.344 48.896C19.8213 48.896 15.8533 47.9787 12.44 46.144C9.06933 44.3093 6.44533 41.664 4.568 38.208C2.69067 34.7093 1.752 30.5493 1.752 25.728C1.752 21.0347 2.712 16.8747 4.632 13.248C6.552 9.62133 9.21867 6.80533 12.632 4.8C16.088 2.79466 20.0133 1.792 24.408 1.792ZM94.493 3.968C93.0423 4.05333 91.997 4.224 91.357 4.48C90.717 4.736 90.269 5.22667 90.013 5.952C89.7997 6.67733 89.693 7.85066 89.693 9.472V41.216C89.693 42.8373 89.7997 44.0107 90.013 44.736C90.269 45.4613 90.717 45.952 91.357 46.208C91.997 46.464 93.0423 46.6347 94.493 46.72V48C92.4023 47.872 89.1597 47.808 84.765 47.808C80.4557 47.808 77.1063 47.872 74.717 48V46.72C76.125 46.6347 77.149 46.464 77.789 46.208C78.4717 45.952 78.9197 45.4613 79.133 44.736C79.389 44.0107 79.517 42.8373 79.517 41.216V25.856H62.557V41.216C62.557 42.8373 62.6637 44.0107 62.877 44.736C63.133 45.4613 63.581 45.952 64.221 46.208C64.861 46.464 65.9063 46.6347 67.357 46.72V48C65.053 47.872 61.8317 47.808 57.693 47.808C53.1277 47.808 49.757 47.872 47.581 48V46.72C48.989 46.6347 50.013 46.464 50.653 46.208C51.3357 45.952 51.7837 45.4613 51.997 44.736C52.253 44.0107 52.381 42.8373 52.381 41.216V9.472C52.381 7.85066 52.253 6.67733 51.997 5.952C51.7837 5.22667 51.3357 4.736 50.653 4.48C50.013 4.224 48.989 4.05333 47.581 3.968V2.688C49.757 2.816 53.1277 2.88 57.693 2.88C61.8317 2.88 65.053 2.816 67.357 2.688V3.968C65.9063 4.05333 64.861 4.224 64.221 4.48C63.581 4.736 63.133 5.22667 62.877 5.952C62.6637 6.67733 62.557 7.85066 62.557 9.472V24.576H79.517V9.472C79.517 7.85066 79.389 6.67733 79.133 5.952C78.9197 5.22667 78.4717 4.736 77.789 4.48C77.149 4.224 76.125 4.05333 74.717 3.968V2.688C77.1063 2.816 80.4557 2.88 84.765 2.88C89.1597 2.88 92.4023 2.816 94.493 2.688V3.968ZM135.12 38.272C135.12 42.1973 135.27 45.44 135.569 48C132.667 47.872 127.782 47.808 120.912 47.808C111.611 47.808 104.656 47.872 100.048 48V46.72C101.456 46.6347 102.48 46.464 103.12 46.208C103.803 45.952 104.251 45.4613 104.464 44.736C104.72 44.0107 104.848 42.8373 104.848 41.216V9.472C104.848 7.85066 104.72 6.67733 104.464 5.952C104.251 5.22667 103.803 4.736 103.12 4.48C102.48 4.224 101.456 4.05333 100.048 3.968V2.688C104.656 2.816 111.611 2.88 120.912 2.88C127.184 2.88 131.643 2.816 134.288 2.688C133.99 6.22933 133.84 9.38667 133.84 12.16C133.84 14.0373 133.904 15.488 134.032 16.512H132.561C131.92 11.9467 130.768 8.74666 129.104 6.912C127.44 5.07733 125.094 4.16 122.064 4.16H119.44C118.118 4.16 117.158 4.26666 116.56 4.48C115.963 4.69333 115.558 5.12 115.344 5.76C115.131 6.35733 115.024 7.33867 115.024 8.704V24.576H117.072C119.334 24.576 121.04 23.744 122.192 22.08C123.387 20.416 124.219 18.432 124.688 16.128H126.16C126.032 17.92 125.968 19.9253 125.968 22.144V25.216C125.968 27.392 126.096 30.4213 126.352 34.304H124.88C123.984 28.672 121.382 25.856 117.072 25.856H115.024V41.984C115.024 43.3493 115.131 44.352 115.344 44.992C115.558 45.5893 115.963 45.9947 116.56 46.208C117.158 46.4213 118.118 46.528 119.44 46.528H122.576C125.606 46.528 128.038 45.504 129.872 43.456C131.75 41.3653 133.072 37.8453 133.84 32.896H135.312C135.184 34.304 135.12 36.096 135.12 38.272ZM176.131 2.688C175.832 6.31467 175.683 9.55733 175.683 12.416C175.683 14.4213 175.747 16.0427 175.875 17.28H174.403C173.55 12.4587 172.27 9.06666 170.563 7.104C168.856 5.14133 166.467 4.16 163.395 4.16H161.283C159.96 4.16 159 4.26666 158.403 4.48C157.806 4.69333 157.4 5.12 157.187 5.76C156.974 6.35733 156.867 7.33867 156.867 8.704V24.832H159.107C161.368 24.832 163.075 24 164.227 22.336C165.422 20.672 166.254 18.688 166.723 16.384H168.195C168.067 18.176 168.003 20.1813 168.003 22.4V25.472C168.003 27.648 168.131 30.6773 168.387 34.56H166.915C166.019 28.928 163.416 26.112 159.107 26.112H156.867V40.832C156.867 42.5387 157.038 43.7973 157.379 44.608C157.763 45.376 158.403 45.888 159.299 46.144C160.238 46.4 161.71 46.5493 163.715 46.592V48C158.467 47.872 154.563 47.808 152.003 47.808C149.87 47.808 147.182 47.8507 143.939 47.936L141.891 48V46.72C143.299 46.6347 144.323 46.464 144.963 46.208C145.646 45.952 146.094 45.4613 146.307 44.736C146.563 44.0107 146.691 42.8373 146.691 41.216V9.472C146.691 7.85066 146.563 6.67733 146.307 5.952C146.094 5.22667 145.646 4.736 144.963 4.48C144.323 4.224 143.299 4.05333 141.891 3.968V2.688C146.499 2.816 153.454 2.88 162.755 2.88C169.027 2.88 173.486 2.816 176.131 2.688ZM210.614 29.696V40.832C210.614 42.5387 210.785 43.7973 211.126 44.608C211.51 45.376 212.15 45.888 213.046 46.144C213.985 46.4 215.457 46.5493 217.462 46.592V48C212.214 47.872 208.31 47.808 205.75 47.808C203.617 47.808 200.929 47.8507 197.686 47.936L195.638 48V46.72C197.046 46.6347 198.07 46.464 198.71 46.208C199.393 45.952 199.841 45.4613 200.054 44.736C200.31 44.0107 200.438 42.8373 200.438 41.216V9.472C200.438 7.85066 200.31 6.67733 200.054 5.952C199.841 5.22667 199.393 4.736 198.71 4.48C198.07 4.224 197.046 4.05333 195.638 3.968V2.688C197.814 2.816 201.057 2.88 205.366 2.88L212.47 2.816C213.324 2.77333 214.305 2.752 215.414 2.752C221.174 2.752 225.569 3.904 228.598 6.208C231.628 8.46933 233.142 11.52 233.142 15.36C233.142 17.7067 232.545 19.968 231.35 22.144C230.156 24.2773 228.129 26.0693 225.27 27.52C222.454 28.9707 218.7 29.696 214.006 29.696H210.614ZM214.582 3.968C213.43 3.968 212.577 4.11733 212.022 4.416C211.51 4.71466 211.148 5.248 210.934 6.016C210.721 6.784 210.614 7.936 210.614 9.472V28.416H213.366C216.822 28.416 219.212 27.3067 220.534 25.088C221.857 22.8693 222.518 19.8613 222.518 16.064C222.518 11.9253 221.9 8.87467 220.662 6.912C219.468 4.94933 217.441 3.968 214.582 3.968ZM280.998 45.184C279.846 46.5067 278.609 47.4453 277.286 48C275.963 48.5973 274.363 48.896 272.486 48.896C270.011 48.896 268.049 48.384 266.598 47.36C265.19 46.2933 264.273 44.5013 263.846 41.984L262.694 35.584C262.139 32.4693 261.457 30.1867 260.646 28.736C259.878 27.2427 258.577 26.496 256.742 26.496H252.582V41.216C252.582 42.8373 252.689 44.0107 252.902 44.736C253.158 45.4613 253.606 45.952 254.246 46.208C254.886 46.464 255.931 46.6347 257.382 46.72V48C255.078 47.872 251.857 47.808 247.718 47.808C243.153 47.808 239.782 47.872 237.606 48V46.72C239.014 46.6347 240.038 46.464 240.678 46.208C241.361 45.952 241.809 45.4613 242.022 44.736C242.278 44.0107 242.406 42.8373 242.406 41.216V9.472C242.406 7.85066 242.278 6.67733 242.022 5.952C241.809 5.22667 241.361 4.736 240.678 4.48C240.038 4.224 239.014 4.05333 237.606 3.968V2.688C239.782 2.816 243.025 2.88 247.334 2.88L254.438 2.816C255.291 2.77333 256.273 2.752 257.382 2.752C263.27 2.752 267.686 3.712 270.63 5.632C273.617 7.552 275.11 10.304 275.11 13.888C275.11 16.9173 274.001 19.584 271.782 21.888C269.563 24.192 265.894 25.6427 260.774 26.24C264.614 26.5813 267.473 27.4133 269.35 28.736C271.227 30.0587 272.443 32.0427 272.998 34.688L274.47 41.28C274.811 42.9867 275.195 44.1813 275.622 44.864C276.091 45.5467 276.731 45.888 277.542 45.888C278.054 45.8453 278.481 45.7173 278.822 45.504C279.206 45.2907 279.633 44.928 280.102 44.416L280.998 45.184ZM256.55 3.968C255.398 3.968 254.545 4.11733 253.99 4.416C253.478 4.71466 253.115 5.248 252.902 6.016C252.689 6.784 252.582 7.936 252.582 9.472V25.216H255.334C258.833 25.216 261.222 24.2987 262.502 22.464C263.825 20.5867 264.486 17.9627 264.486 14.592C264.486 11.0933 263.867 8.448 262.63 6.656C261.393 4.864 259.366 3.968 256.55 3.968ZM302.974 3.968C301.524 4.05333 300.478 4.224 299.838 4.48C299.198 4.736 298.75 5.22667 298.494 5.952C298.281 6.67733 298.174 7.85066 298.174 9.472V41.216C298.174 42.8373 298.281 44.0107 298.494 44.736C298.75 45.4613 299.198 45.952 299.838 46.208C300.478 46.464 301.524 46.6347 302.974 46.72V48C300.67 47.872 297.449 47.808 293.31 47.808C288.745 47.808 285.374 47.872 283.198 48V46.72C284.606 46.6347 285.63 46.464 286.27 46.208C286.953 45.952 287.401 45.4613 287.614 44.736C287.87 44.0107 287.998 42.8373 287.998 41.216V9.472C287.998 7.85066 287.87 6.67733 287.614 5.952C287.401 5.22667 286.953 4.736 286.27 4.48C285.63 4.224 284.606 4.05333 283.198 3.968V2.688C285.374 2.816 288.745 2.88 293.31 2.88C297.449 2.88 300.67 2.816 302.974 2.688V3.968ZM344.893 2.88C346.856 2.88 348.477 2.816 349.757 2.688V3.968C348.69 4.352 347.645 5.16267 346.621 6.4C345.597 7.63733 344.68 9.36533 343.869 11.584L330.365 48.128C329.896 48.0853 329.149 48.064 328.125 48.064C327.144 48.064 326.418 48.0853 325.949 48.128L309.629 8.064C309.074 6.656 308.434 5.632 307.709 4.992C306.984 4.352 306.28 4.01066 305.597 3.968V2.688C308.157 2.816 311.4 2.88 315.325 2.88C319.72 2.88 322.962 2.816 325.053 2.688V3.968C323.432 4.05333 322.28 4.24533 321.597 4.544C320.914 4.84266 320.573 5.44 320.573 6.336C320.573 7.06133 320.829 8.064 321.341 9.344L332.605 38.016L340.477 16.768C341.672 13.4827 342.269 10.88 342.269 8.96C342.269 7.25333 341.8 6.016 340.861 5.248C339.965 4.48 338.642 4.05333 336.893 3.968V2.688C339.794 2.816 342.461 2.88 344.893 2.88ZM387.643 38.272C387.643 42.1973 387.792 45.44 388.091 48C385.19 47.872 380.304 47.808 373.435 47.808C364.134 47.808 357.179 47.872 352.571 48V46.72C353.979 46.6347 355.003 46.464 355.643 46.208C356.326 45.952 356.774 45.4613 356.987 44.736C357.243 44.0107 357.371 42.8373 357.371 41.216V9.472C357.371 7.85066 357.243 6.67733 356.987 5.952C356.774 5.22667 356.326 4.736 355.643 4.48C355.003 4.224 353.979 4.05333 352.571 3.968V2.688C357.179 2.816 364.134 2.88 373.435 2.88C379.707 2.88 384.166 2.816 386.811 2.688C386.512 6.22933 386.363 9.38667 386.363 12.16C386.363 14.0373 386.427 15.488 386.555 16.512H385.083C384.443 11.9467 383.291 8.74666 381.627 6.912C379.963 5.07733 377.616 4.16 374.587 4.16H371.963C370.64 4.16 369.68 4.26666 369.083 4.48C368.486 4.69333 368.08 5.12 367.867 5.76C367.654 6.35733 367.547 7.33867 367.547 8.704V24.576H369.595C371.856 24.576 373.563 23.744 374.715 22.08C375.91 20.416 376.742 18.432 377.211 16.128H378.683C378.555 17.92 378.491 19.9253 378.491 22.144V25.216C378.491 27.392 378.619 30.4213 378.875 34.304H377.403C376.507 28.672 373.904 25.856 369.595 25.856H367.547V41.984C367.547 43.3493 367.654 44.352 367.867 44.992C368.08 45.5893 368.486 45.9947 369.083 46.208C369.68 46.4213 370.64 46.528 371.963 46.528H375.099C378.128 46.528 380.56 45.504 382.395 43.456C384.272 41.3653 385.595 37.8453 386.363 32.896H387.835C387.707 34.304 387.643 36.096 387.643 38.272Z"/>
</mask>
<path d="M24.408 1.792C26.968 1.792 29.144 2.15466 30.936 2.88C32.728 3.60533 34.4773 4.62933 36.184 5.952C36.6533 6.336 37.0587 6.528 37.4 6.528C38.2533 6.528 38.808 5.248 39.064 2.688H40.536C40.3653 5.58933 40.28 10.752 40.28 18.176H38.808C38.424 15.0187 37.912 12.608 37.272 10.944C36.632 9.28 35.544 7.82933 34.008 6.592C32.9413 5.568 31.704 4.8 30.296 4.288C28.888 3.73333 27.416 3.456 25.88 3.456C21.5707 3.456 18.3707 5.568 16.28 9.792C14.1893 13.9733 13.144 19.2 13.144 25.472C13.144 31.7013 14.232 36.9067 16.408 41.088C18.584 45.2693 21.8267 47.36 26.136 47.36C27.5867 47.36 29.016 47.104 30.424 46.592C31.8747 46.0373 33.0907 45.248 34.072 44.224C35.6507 43.0293 36.7387 41.536 37.336 39.744C37.976 37.952 38.4667 35.328 38.808 31.872H40.28C40.28 39.5947 40.3653 44.9707 40.536 48H39.064C38.936 46.6347 38.744 45.6747 38.488 45.12C38.2747 44.5227 37.9547 44.224 37.528 44.224C37.1867 44.224 36.7387 44.3947 36.184 44.736C34.264 46.1013 32.4293 47.1467 30.68 47.872C28.9307 48.5547 26.8187 48.896 24.344 48.896C19.8213 48.896 15.8533 47.9787 12.44 46.144C9.06933 44.3093 6.44533 41.664 4.568 38.208C2.69067 34.7093 1.752 30.5493 1.752 25.728C1.752 21.0347 2.712 16.8747 4.632 13.248C6.552 9.62133 9.21867 6.80533 12.632 4.8C16.088 2.79466 20.0133 1.792 24.408 1.792ZM94.493 3.968C93.0423 4.05333 91.997 4.224 91.357 4.48C90.717 4.736 90.269 5.22667 90.013 5.952C89.7997 6.67733 89.693 7.85066 89.693 9.472V41.216C89.693 42.8373 89.7997 44.0107 90.013 44.736C90.269 45.4613 90.717 45.952 91.357 46.208C91.997 46.464 93.0423 46.6347 94.493 46.72V48C92.4023 47.872 89.1597 47.808 84.765 47.808C80.4557 47.808 77.1063 47.872 74.717 48V46.72C76.125 46.6347 77.149 46.464 77.789 46.208C78.4717 45.952 78.9197 45.4613 79.133 44.736C79.389 44.0107 79.517 42.8373 79.517 41.216V25.856H62.557V41.216C62.557 42.8373 62.6637 44.0107 62.877 44.736C63.133 45.4613 63.581 45.952 64.221 46.208C64.861 46.464 65.9063 46.6347 67.357 46.72V48C65.053 47.872 61.8317 47.808 57.693 47.808C53.1277 47.808 49.757 47.872 47.581 48V46.72C48.989 46.6347 50.013 46.464 50.653 46.208C51.3357 45.952 51.7837 45.4613 51.997 44.736C52.253 44.0107 52.381 42.8373 52.381 41.216V9.472C52.381 7.85066 52.253 6.67733 51.997 5.952C51.7837 5.22667 51.3357 4.736 50.653 4.48C50.013 4.224 48.989 4.05333 47.581 3.968V2.688C49.757 2.816 53.1277 2.88 57.693 2.88C61.8317 2.88 65.053 2.816 67.357 2.688V3.968C65.9063 4.05333 64.861 4.224 64.221 4.48C63.581 4.736 63.133 5.22667 62.877 5.952C62.6637 6.67733 62.557 7.85066 62.557 9.472V24.576H79.517V9.472C79.517 7.85066 79.389 6.67733 79.133 5.952C78.9197 5.22667 78.4717 4.736 77.789 4.48C77.149 4.224 76.125 4.05333 74.717 3.968V2.688C77.1063 2.816 80.4557 2.88 84.765 2.88C89.1597 2.88 92.4023 2.816 94.493 2.688V3.968ZM135.12 38.272C135.12 42.1973 135.27 45.44 135.569 48C132.667 47.872 127.782 47.808 120.912 47.808C111.611 47.808 104.656 47.872 100.048 48V46.72C101.456 46.6347 102.48 46.464 103.12 46.208C103.803 45.952 104.251 45.4613 104.464 44.736C104.72 44.0107 104.848 42.8373 104.848 41.216V9.472C104.848 7.85066 104.72 6.67733 104.464 5.952C104.251 5.22667 103.803 4.736 103.12 4.48C102.48 4.224 101.456 4.05333 100.048 3.968V2.688C104.656 2.816 111.611 2.88 120.912 2.88C127.184 2.88 131.643 2.816 134.288 2.688C133.99 6.22933 133.84 9.38667 133.84 12.16C133.84 14.0373 133.904 15.488 134.032 16.512H132.561C131.92 11.9467 130.768 8.74666 129.104 6.912C127.44 5.07733 125.094 4.16 122.064 4.16H119.44C118.118 4.16 117.158 4.26666 116.56 4.48C115.963 4.69333 115.558 5.12 115.344 5.76C115.131 6.35733 115.024 7.33867 115.024 8.704V24.576H117.072C119.334 24.576 121.04 23.744 122.192 22.08C123.387 20.416 124.219 18.432 124.688 16.128H126.16C126.032 17.92 125.968 19.9253 125.968 22.144V25.216C125.968 27.392 126.096 30.4213 126.352 34.304H124.88C123.984 28.672 121.382 25.856 117.072 25.856H115.024V41.984C115.024 43.3493 115.131 44.352 115.344 44.992C115.558 45.5893 115.963 45.9947 116.56 46.208C117.158 46.4213 118.118 46.528 119.44 46.528H122.576C125.606 46.528 128.038 45.504 129.872 43.456C131.75 41.3653 133.072 37.8453 133.84 32.896H135.312C135.184 34.304 135.12 36.096 135.12 38.272ZM176.131 2.688C175.832 6.31467 175.683 9.55733 175.683 12.416C175.683 14.4213 175.747 16.0427 175.875 17.28H174.403C173.55 12.4587 172.27 9.06666 170.563 7.104C168.856 5.14133 166.467 4.16 163.395 4.16H161.283C159.96 4.16 159 4.26666 158.403 4.48C157.806 4.69333 157.4 5.12 157.187 5.76C156.974 6.35733 156.867 7.33867 156.867 8.704V24.832H159.107C161.368 24.832 163.075 24 164.227 22.336C165.422 20.672 166.254 18.688 166.723 16.384H168.195C168.067 18.176 168.003 20.1813 168.003 22.4V25.472C168.003 27.648 168.131 30.6773 168.387 34.56H166.915C166.019 28.928 163.416 26.112 159.107 26.112H156.867V40.832C156.867 42.5387 157.038 43.7973 157.379 44.608C157.763 45.376 158.403 45.888 159.299 46.144C160.238 46.4 161.71 46.5493 163.715 46.592V48C158.467 47.872 154.563 47.808 152.003 47.808C149.87 47.808 147.182 47.8507 143.939 47.936L141.891 48V46.72C143.299 46.6347 144.323 46.464 144.963 46.208C145.646 45.952 146.094 45.4613 146.307 44.736C146.563 44.0107 146.691 42.8373 146.691 41.216V9.472C146.691 7.85066 146.563 6.67733 146.307 5.952C146.094 5.22667 145.646 4.736 144.963 4.48C144.323 4.224 143.299 4.05333 141.891 3.968V2.688C146.499 2.816 153.454 2.88 162.755 2.88C169.027 2.88 173.486 2.816 176.131 2.688ZM210.614 29.696V40.832C210.614 42.5387 210.785 43.7973 211.126 44.608C211.51 45.376 212.15 45.888 213.046 46.144C213.985 46.4 215.457 46.5493 217.462 46.592V48C212.214 47.872 208.31 47.808 205.75 47.808C203.617 47.808 200.929 47.8507 197.686 47.936L195.638 48V46.72C197.046 46.6347 198.07 46.464 198.71 46.208C199.393 45.952 199.841 45.4613 200.054 44.736C200.31 44.0107 200.438 42.8373 200.438 41.216V9.472C200.438 7.85066 200.31 6.67733 200.054 5.952C199.841 5.22667 199.393 4.736 198.71 4.48C198.07 4.224 197.046 4.05333 195.638 3.968V2.688C197.814 2.816 201.057 2.88 205.366 2.88L212.47 2.816C213.324 2.77333 214.305 2.752 215.414 2.752C221.174 2.752 225.569 3.904 228.598 6.208C231.628 8.46933 233.142 11.52 233.142 15.36C233.142 17.7067 232.545 19.968 231.35 22.144C230.156 24.2773 228.129 26.0693 225.27 27.52C222.454 28.9707 218.7 29.696 214.006 29.696H210.614ZM214.582 3.968C213.43 3.968 212.577 4.11733 212.022 4.416C211.51 4.71466 211.148 5.248 210.934 6.016C210.721 6.784 210.614 7.936 210.614 9.472V28.416H213.366C216.822 28.416 219.212 27.3067 220.534 25.088C221.857 22.8693 222.518 19.8613 222.518 16.064C222.518 11.9253 221.9 8.87467 220.662 6.912C219.468 4.94933 217.441 3.968 214.582 3.968ZM280.998 45.184C279.846 46.5067 278.609 47.4453 277.286 48C275.963 48.5973 274.363 48.896 272.486 48.896C270.011 48.896 268.049 48.384 266.598 47.36C265.19 46.2933 264.273 44.5013 263.846 41.984L262.694 35.584C262.139 32.4693 261.457 30.1867 260.646 28.736C259.878 27.2427 258.577 26.496 256.742 26.496H252.582V41.216C252.582 42.8373 252.689 44.0107 252.902 44.736C253.158 45.4613 253.606 45.952 254.246 46.208C254.886 46.464 255.931 46.6347 257.382 46.72V48C255.078 47.872 251.857 47.808 247.718 47.808C243.153 47.808 239.782 47.872 237.606 48V46.72C239.014 46.6347 240.038 46.464 240.678 46.208C241.361 45.952 241.809 45.4613 242.022 44.736C242.278 44.0107 242.406 42.8373 242.406 41.216V9.472C242.406 7.85066 242.278 6.67733 242.022 5.952C241.809 5.22667 241.361 4.736 240.678 4.48C240.038 4.224 239.014 4.05333 237.606 3.968V2.688C239.782 2.816 243.025 2.88 247.334 2.88L254.438 2.816C255.291 2.77333 256.273 2.752 257.382 2.752C263.27 2.752 267.686 3.712 270.63 5.632C273.617 7.552 275.11 10.304 275.11 13.888C275.11 16.9173 274.001 19.584 271.782 21.888C269.563 24.192 265.894 25.6427 260.774 26.24C264.614 26.5813 267.473 27.4133 269.35 28.736C271.227 30.0587 272.443 32.0427 272.998 34.688L274.47 41.28C274.811 42.9867 275.195 44.1813 275.622 44.864C276.091 45.5467 276.731 45.888 277.542 45.888C278.054 45.8453 278.481 45.7173 278.822 45.504C279.206 45.2907 279.633 44.928 280.102 44.416L280.998 45.184ZM256.55 3.968C255.398 3.968 254.545 4.11733 253.99 4.416C253.478 4.71466 253.115 5.248 252.902 6.016C252.689 6.784 252.582 7.936 252.582 9.472V25.216H255.334C258.833 25.216 261.222 24.2987 262.502 22.464C263.825 20.5867 264.486 17.9627 264.486 14.592C264.486 11.0933 263.867 8.448 262.63 6.656C261.393 4.864 259.366 3.968 256.55 3.968ZM302.974 3.968C301.524 4.05333 300.478 4.224 299.838 4.48C299.198 4.736 298.75 5.22667 298.494 5.952C298.281 6.67733 298.174 7.85066 298.174 9.472V41.216C298.174 42.8373 298.281 44.0107 298.494 44.736C298.75 45.4613 299.198 45.952 299.838 46.208C300.478 46.464 301.524 46.6347 302.974 46.72V48C300.67 47.872 297.449 47.808 293.31 47.808C288.745 47.808 285.374 47.872 283.198 48V46.72C284.606 46.6347 285.63 46.464 286.27 46.208C286.953 45.952 287.401 45.4613 287.614 44.736C287.87 44.0107 287.998 42.8373 287.998 41.216V9.472C287.998 7.85066 287.87 6.67733 287.614 5.952C287.401 5.22667 286.953 4.736 286.27 4.48C285.63 4.224 284.606 4.05333 283.198 3.968V2.688C285.374 2.816 288.745 2.88 293.31 2.88C297.449 2.88 300.67 2.816 302.974 2.688V3.968ZM344.893 2.88C346.856 2.88 348.477 2.816 349.757 2.688V3.968C348.69 4.352 347.645 5.16267 346.621 6.4C345.597 7.63733 344.68 9.36533 343.869 11.584L330.365 48.128C329.896 48.0853 329.149 48.064 328.125 48.064C327.144 48.064 326.418 48.0853 325.949 48.128L309.629 8.064C309.074 6.656 308.434 5.632 307.709 4.992C306.984 4.352 306.28 4.01066 305.597 3.968V2.688C308.157 2.816 311.4 2.88 315.325 2.88C319.72 2.88 322.962 2.816 325.053 2.688V3.968C323.432 4.05333 322.28 4.24533 321.597 4.544C320.914 4.84266 320.573 5.44 320.573 6.336C320.573 7.06133 320.829 8.064 321.341 9.344L332.605 38.016L340.477 16.768C341.672 13.4827 342.269 10.88 342.269 8.96C342.269 7.25333 341.8 6.016 340.861 5.248C339.965 4.48 338.642 4.05333 336.893 3.968V2.688C339.794 2.816 342.461 2.88 344.893 2.88ZM387.643 38.272C387.643 42.1973 387.792 45.44 388.091 48C385.19 47.872 380.304 47.808 373.435 47.808C364.134 47.808 357.179 47.872 352.571 48V46.72C353.979 46.6347 355.003 46.464 355.643 46.208C356.326 45.952 356.774 45.4613 356.987 44.736C357.243 44.0107 357.371 42.8373 357.371 41.216V9.472C357.371 7.85066 357.243 6.67733 356.987 5.952C356.774 5.22667 356.326 4.736 355.643 4.48C355.003 4.224 353.979 4.05333 352.571 3.968V2.688C357.179 2.816 364.134 2.88 373.435 2.88C379.707 2.88 384.166 2.816 386.811 2.688C386.512 6.22933 386.363 9.38667 386.363 12.16C386.363 14.0373 386.427 15.488 386.555 16.512H385.083C384.443 11.9467 383.291 8.74666 381.627 6.912C379.963 5.07733 377.616 4.16 374.587 4.16H371.963C370.64 4.16 369.68 4.26666 369.083 4.48C368.486 4.69333 368.08 5.12 367.867 5.76C367.654 6.35733 367.547 7.33867 367.547 8.704V24.576H369.595C371.856 24.576 373.563 23.744 374.715 22.08C375.91 20.416 376.742 18.432 377.211 16.128H378.683C378.555 17.92 378.491 19.9253 378.491 22.144V25.216C378.491 27.392 378.619 30.4213 378.875 34.304H377.403C376.507 28.672 373.904 25.856 369.595 25.856H367.547V41.984C367.547 43.3493 367.654 44.352 367.867 44.992C368.08 45.5893 368.486 45.9947 369.083 46.208C369.68 46.4213 370.64 46.528 371.963 46.528H375.099C378.128 46.528 380.56 45.504 382.395 43.456C384.272 41.3653 385.595 37.8453 386.363 32.896H387.835C387.707 34.304 387.643 36.096 387.643 38.272Z" fill="#0E5A43"/>
<path d="M36.184 5.952L36.8172 5.17804L36.807 5.16968L36.7966 5.16158L36.184 5.952ZM39.064 2.688V1.688H38.159L38.069 2.5885L39.064 2.688ZM40.536 2.688L41.5343 2.74672L41.5966 1.688H40.536V2.688ZM40.28 18.176V19.176H41.28V18.176H40.28ZM38.808 18.176L37.8153 18.2967L37.9223 19.176H38.808V18.176ZM37.272 10.944L38.2053 10.585V10.585L37.272 10.944ZM34.008 6.592L33.3155 7.31339L33.3468 7.34349L33.3807 7.37075L34.008 6.592ZM30.296 4.288L29.9295 5.21841L29.9418 5.22326L29.9543 5.22779L30.296 4.288ZM16.28 9.792L17.1744 10.2392L17.1762 10.2356L16.28 9.792ZM16.408 41.088L15.5209 41.5496L16.408 41.088ZM30.424 46.592L30.7657 47.5318L30.7735 47.529L30.7811 47.5261L30.424 46.592ZM34.072 44.224L33.4686 43.4266L33.4051 43.4746L33.35 43.5321L34.072 44.224ZM37.336 39.744L36.3943 39.4077L36.3907 39.4177L36.3873 39.4278L37.336 39.744ZM38.808 31.872V30.872H37.9019L37.8128 31.7737L38.808 31.872ZM40.28 31.872H41.28V30.872H40.28V31.872ZM40.536 48V49H41.5939L41.5344 47.9438L40.536 48ZM39.064 48L38.0684 48.0933L38.1534 49H39.064V48ZM38.488 45.12L37.5463 45.4563L37.5613 45.4985L37.58 45.5391L38.488 45.12ZM36.184 44.736L35.6599 43.8843L35.6316 43.9018L35.6045 43.921L36.184 44.736ZM30.68 47.872L31.0435 48.8036L31.0533 48.7998L31.063 48.7957L30.68 47.872ZM12.44 46.144L11.9619 47.0223L11.9666 47.0248L12.44 46.144ZM4.568 38.208L3.68683 38.6808L3.68928 38.6853L4.568 38.208ZM4.632 13.248L3.74821 12.7801L4.632 13.248ZM12.632 4.8L12.1301 3.93505L12.1255 3.93779L12.632 4.8ZM24.408 1.792V2.792C26.8789 2.792 28.9198 3.14273 30.5608 3.80694L30.936 2.88L31.3112 1.95305C29.3682 1.16659 27.0571 0.791996 24.408 0.791996V1.792ZM30.936 2.88L30.5608 3.80694C32.2585 4.49412 33.9289 5.46946 35.5714 6.74241L36.184 5.952L36.7966 5.16158C35.0258 3.7892 33.1975 2.71654 31.3112 1.95305L30.936 2.88ZM36.184 5.952L35.5508 6.72596C36.0747 7.15465 36.7068 7.528 37.4 7.528V6.528V5.528C37.4162 5.528 37.3772 5.53193 37.2681 5.48026C37.1594 5.42877 37.0095 5.33534 36.8172 5.17804L36.184 5.952ZM37.4 6.528V7.528C38.4446 7.528 39.0487 6.7153 39.3736 5.96561C39.7131 5.1821 39.9279 4.09902 40.059 2.7875L39.064 2.688L38.069 2.5885C37.9441 3.83698 37.7536 4.6739 37.5384 5.17039C37.3086 5.7007 37.2087 5.528 37.4 5.528V6.528ZM39.064 2.688V3.688H40.536V2.688V1.688H39.064V2.688ZM40.536 2.688L39.5377 2.62928C39.3651 5.56353 39.28 10.7533 39.28 18.176H40.28H41.28C41.28 10.7507 41.3655 5.61513 41.5343 2.74672L40.536 2.688ZM40.28 18.176V17.176H38.808V18.176V19.176H40.28V18.176ZM38.808 18.176L39.8007 18.0553C39.4132 14.8693 38.8893 12.3632 38.2053 10.585L37.272 10.944L36.3387 11.303C36.9347 12.8528 37.4348 15.168 37.8153 18.2967L38.808 18.176ZM37.272 10.944L38.2053 10.585C37.4955 8.73953 36.2936 7.14905 34.6353 5.81325L34.008 6.592L33.3807 7.37075C34.7944 8.50962 35.7685 9.82047 36.3387 11.303L37.272 10.944ZM34.008 6.592L34.7005 5.87061C33.5321 4.74888 32.1748 3.90714 30.6377 3.34821L30.296 4.288L29.9543 5.22779C31.2332 5.69286 32.3506 6.38712 33.3155 7.31339L34.008 6.592ZM30.296 4.288L30.6625 3.35759C29.136 2.75624 27.5395 2.456 25.88 2.456V3.456V4.456C27.2925 4.456 28.64 4.71042 29.9295 5.21841L30.296 4.288ZM25.88 3.456V2.456C23.5546 2.456 21.4804 3.02847 19.6972 4.20539C17.9191 5.37892 16.4897 7.11396 15.3838 9.34841L16.28 9.792L17.1762 10.2356C18.161 8.24604 19.3769 6.81308 20.7988 5.87461C22.2156 4.93953 23.8961 4.456 25.88 4.456V3.456ZM16.28 9.792L15.3856 9.34479C13.2059 13.7041 12.144 19.0954 12.144 25.472H13.144H14.144C14.144 19.3046 15.1727 14.2426 17.1744 10.2392L16.28 9.792ZM13.144 25.472H12.144C12.144 31.8123 13.2508 37.1874 15.5209 41.5496L16.408 41.088L17.2951 40.6264C15.2132 36.626 14.144 31.5903 14.144 25.472H13.144ZM16.408 41.088L15.5209 41.5496C16.6715 43.7604 18.1336 45.4742 19.9301 46.6325C21.7315 47.7938 23.8124 48.36 26.136 48.36V47.36V46.36C24.1503 46.36 22.4552 45.8808 21.0139 44.9515C19.5677 44.0191 18.3205 42.5969 17.2951 40.6264L16.408 41.088ZM26.136 47.36V48.36C27.707 48.36 29.2519 48.0823 30.7657 47.5318L30.424 46.592L30.0823 45.6522C28.7802 46.1257 27.4663 46.36 26.136 46.36V47.36ZM30.424 46.592L30.7811 47.5261C32.3565 46.9237 33.701 46.0564 34.794 44.9159L34.072 44.224L33.35 43.5321C32.4803 44.4396 31.3928 45.151 30.0669 45.6579L30.424 46.592ZM34.072 44.224L34.6754 45.0214C36.4069 43.7111 37.6203 42.0533 38.2847 40.0602L37.336 39.744L36.3873 39.4278C35.857 41.0187 34.8944 42.3476 33.4686 43.4266L34.072 44.224ZM37.336 39.744L38.2777 40.0803C38.959 38.1727 39.4592 35.4526 39.8032 31.9703L38.808 31.872L37.8128 31.7737C37.4741 35.2034 36.993 37.7313 36.3943 39.4077L37.336 39.744ZM38.808 31.872V32.872H40.28V31.872V30.872H38.808V31.872ZM40.28 31.872H39.28C39.28 39.5935 39.3651 44.9954 39.5376 48.0562L40.536 48L41.5344 47.9438C41.3655 44.9459 41.28 39.5958 41.28 31.872H40.28ZM40.536 48V47H39.064V48V49H40.536V48ZM39.064 48L40.0596 47.9067C39.9309 46.5337 39.7294 45.4235 39.396 44.7009L38.488 45.12L37.58 45.5391C37.7586 45.9259 37.9411 46.7356 38.0684 48.0933L39.064 48ZM38.488 45.12L39.4297 44.7837C39.2918 44.3974 39.0876 44.0131 38.7703 43.7169C38.4305 43.3997 38.0018 43.224 37.528 43.224V44.224V45.224C37.5153 45.224 37.4885 45.2212 37.4566 45.2085C37.4252 45.1959 37.4082 45.1814 37.4057 45.1791C37.4049 45.1783 37.4214 45.1937 37.4487 45.2395C37.4761 45.2855 37.5102 45.3553 37.5463 45.4563L38.488 45.12ZM37.528 44.224V43.224C36.8986 43.224 36.2521 43.5199 35.6599 43.8843L36.184 44.736L36.7081 45.5877C37.2252 45.2694 37.4747 45.224 37.528 45.224V44.224ZM36.184 44.736L35.6045 43.921C33.7315 45.2529 31.9625 46.2577 30.297 46.9483L30.68 47.872L31.063 48.7957C32.8961 48.0357 34.7965 46.9497 36.7635 45.551L36.184 44.736ZM30.68 47.872L30.3165 46.9404C28.7134 47.566 26.7317 47.896 24.344 47.896V48.896V49.896C26.9056 49.896 29.148 49.5433 31.0435 48.8036L30.68 47.872ZM24.344 48.896V47.896C19.9589 47.896 16.1586 47.0075 12.9134 45.2632L12.44 46.144L11.9666 47.0248C15.548 48.9499 19.6838 49.896 24.344 49.896V48.896ZM12.44 46.144L12.9181 45.2657C9.72124 43.5256 7.2344 41.0216 5.44672 37.7307L4.568 38.208L3.68928 38.6853C5.65627 42.3064 8.41743 45.093 11.9619 47.0223L12.44 46.144ZM4.568 38.208L5.44916 37.7352C3.66488 34.4099 2.752 30.4194 2.752 25.728H1.752H0.752C0.752 30.6793 1.71645 35.0087 3.68684 38.6808L4.568 38.208ZM1.752 25.728H2.752C2.752 21.1741 3.68245 17.1789 5.51579 13.7159L4.632 13.248L3.74821 12.7801C1.74155 16.5705 0.752 20.8952 0.752 25.728H1.752ZM4.632 13.248L5.51579 13.7159C7.35236 10.2468 9.89112 7.57008 13.1385 5.66221L12.632 4.8L12.1255 3.93779C8.54622 6.04059 5.75164 8.99586 3.74821 12.7801L4.632 13.248ZM12.632 4.8L13.1339 5.66494C16.4225 3.75673 20.1715 2.792 24.408 2.792V1.792V0.791996C19.8552 0.791996 15.7535 1.8326 12.1301 3.93506L12.632 4.8ZM94.493 3.968L94.5517 4.96627L95.493 4.9109V3.968H94.493ZM91.357 4.48L91.7284 5.40848V5.40848L91.357 4.48ZM90.013 5.952L89.07 5.61918L89.0611 5.64429L89.0536 5.66983L90.013 5.952ZM90.013 44.736L89.0536 45.0182L89.0611 45.0437L89.07 45.0688L90.013 44.736ZM91.357 46.208L91.7284 45.2795L91.357 46.208ZM94.493 46.72H95.493V45.7771L94.5517 45.7217L94.493 46.72ZM94.493 48L94.4319 48.9981L95.493 49.0631V48H94.493ZM74.717 48H73.717V49.055L74.7705 48.9986L74.717 48ZM74.717 46.72L74.6565 45.7218L73.717 45.7788V46.72H74.717ZM77.789 46.208L77.4379 45.2717L77.4277 45.2755L77.4176 45.2795L77.789 46.208ZM79.133 44.736L78.19 44.4032L78.1811 44.4283L78.1736 44.4538L79.133 44.736ZM79.517 25.856H80.517V24.856H79.517V25.856ZM62.557 25.856V24.856H61.557V25.856H62.557ZM62.877 44.736L61.9176 45.0182L61.9251 45.0437L61.934 45.0688L62.877 44.736ZM64.221 46.208L63.8496 47.1365V47.1365L64.221 46.208ZM67.357 46.72H68.357V45.7771L67.4157 45.7217L67.357 46.72ZM67.357 48L67.3015 48.9985L68.357 49.0571V48H67.357ZM47.581 48H46.581V49.0606L47.6397 48.9983L47.581 48ZM47.581 46.72L47.5205 45.7218L46.581 45.7788V46.72H47.581ZM50.653 46.208L50.3019 45.2717L50.2917 45.2755L50.2816 45.2795L50.653 46.208ZM51.997 44.736L51.054 44.4032L51.0451 44.4283L51.0376 44.4538L51.997 44.736ZM51.997 5.952L51.0376 6.23417L51.0451 6.25971L51.054 6.28482L51.997 5.952ZM50.653 4.48L50.2816 5.40848L50.2917 5.41251L50.3019 5.41633L50.653 4.48ZM47.581 3.968H46.581V4.90923L47.5205 4.96617L47.581 3.968ZM47.581 2.688L47.6397 1.68973L46.581 1.62745V2.688H47.581ZM67.357 2.688H68.357V1.6309L67.3015 1.68954L67.357 2.688ZM67.357 3.968L67.4157 4.96627L68.357 4.9109V3.968H67.357ZM64.221 4.48L64.5924 5.40848V5.40848L64.221 4.48ZM62.877 5.952L61.934 5.61918L61.9251 5.64429L61.9176 5.66983L62.877 5.952ZM62.557 24.576H61.557V25.576H62.557V24.576ZM79.517 24.576V25.576H80.517V24.576H79.517ZM79.133 5.952L78.1736 6.23417L78.1811 6.25971L78.19 6.28482L79.133 5.952ZM77.789 4.48L77.4176 5.40848L77.4277 5.41251L77.4379 5.41633L77.789 4.48ZM74.717 3.968H73.717V4.90923L74.6565 4.96617L74.717 3.968ZM74.717 2.688L74.7705 1.68943L73.717 1.633V2.688H74.717ZM94.493 2.688H95.493V1.6249L94.4319 1.68987L94.493 2.688ZM94.493 3.968L94.4343 2.96972C92.9681 3.05597 91.7849 3.23179 90.9856 3.55152L91.357 4.48L91.7284 5.40848C92.2091 5.21621 93.1166 5.05069 94.5517 4.96627L94.493 3.968ZM91.357 4.48L90.9856 3.55152C90.0454 3.92761 89.4094 4.65743 89.07 5.61918L90.013 5.952L90.956 6.28482C91.1285 5.7959 91.3886 5.54439 91.7284 5.40848L91.357 4.48ZM90.013 5.952L89.0536 5.66983C88.7971 6.54214 88.693 7.83848 88.693 9.472H89.693H90.693C90.693 7.86284 90.8023 6.81252 90.9724 6.23417L90.013 5.952ZM89.693 9.472H88.693V41.216H89.693H90.693V9.472H89.693ZM89.693 41.216H88.693C88.693 42.8495 88.7971 44.1459 89.0536 45.0182L90.013 44.736L90.9724 44.4538C90.8023 43.8755 90.693 42.8251 90.693 41.216H89.693ZM90.013 44.736L89.07 45.0688C89.4094 46.0306 90.0454 46.7604 90.9856 47.1365L91.357 46.208L91.7284 45.2795C91.3886 45.1436 91.1285 44.8921 90.956 44.4032L90.013 44.736ZM91.357 46.208L90.9856 47.1365C91.7849 47.4562 92.9681 47.632 94.4343 47.7183L94.493 46.72L94.5517 45.7217C93.1166 45.6373 92.2091 45.4718 91.7284 45.2795L91.357 46.208ZM94.493 46.72H93.493V48H94.493H95.493V46.72H94.493ZM94.493 48L94.5541 47.0019C92.4312 46.8719 89.163 46.808 84.765 46.808V47.808V48.808C89.1563 48.808 92.3734 48.8721 94.4319 48.9981L94.493 48ZM84.765 47.808V46.808C80.4495 46.808 77.0794 46.872 74.6635 47.0014L74.717 48L74.7705 48.9986C77.1333 48.872 80.4618 48.808 84.765 48.808V47.808ZM74.717 48H75.717V46.72H74.717H73.717V48H74.717ZM74.717 46.72L74.7775 47.7182C76.2048 47.6317 77.3637 47.4552 78.1604 47.1365L77.789 46.208L77.4176 45.2795C76.9343 45.4728 76.0452 45.6377 74.6565 45.7218L74.717 46.72ZM77.789 46.208L78.1401 47.1443C79.1296 46.7733 79.7942 46.0319 80.0924 45.0182L79.133 44.736L78.1736 44.4538C78.0451 44.8907 77.8137 45.1307 77.4379 45.2717L77.789 46.208ZM79.133 44.736L80.076 45.0688C80.3923 44.1727 80.517 42.8536 80.517 41.216H79.517H78.517C78.517 42.8211 78.3857 43.8487 78.19 44.4032L79.133 44.736ZM79.517 41.216H80.517V25.856H79.517H78.517V41.216H79.517ZM79.517 25.856V24.856H62.557V25.856V26.856H79.517V25.856ZM62.557 25.856H61.557V41.216H62.557H63.557V25.856H62.557ZM62.557 41.216H61.557C61.557 42.8495 61.6611 44.1459 61.9176 45.0182L62.877 44.736L63.8364 44.4538C63.6663 43.8755 63.557 42.8251 63.557 41.216H62.557ZM62.877 44.736L61.934 45.0688C62.2734 46.0306 62.9094 46.7604 63.8496 47.1365L64.221 46.208L64.5924 45.2795C64.2526 45.1436 63.9925 44.8921 63.82 44.4032L62.877 44.736ZM64.221 46.208L63.8496 47.1365C64.6489 47.4562 65.8321 47.632 67.2983 47.7183L67.357 46.72L67.4157 45.7217C65.9806 45.6373 65.0731 45.4718 64.5924 45.2795L64.221 46.208ZM67.357 46.72H66.357V48H67.357H68.357V46.72H67.357ZM67.357 48L67.4125 47.0015C65.081 46.872 61.8382 46.808 57.693 46.808V47.808V48.808C61.8252 48.808 65.025 48.872 67.3015 48.9985L67.357 48ZM57.693 47.808V46.808C53.1244 46.808 49.7292 46.8719 47.5223 47.0017L47.581 48L47.6397 48.9983C49.7848 48.8721 53.1309 48.808 57.693 48.808V47.808ZM47.581 48H48.581V46.72H47.581H46.581V48H47.581ZM47.581 46.72L47.6415 47.7182C49.0688 47.6317 50.2277 47.4552 51.0244 47.1365L50.653 46.208L50.2816 45.2795C49.7983 45.4728 48.9092 45.6377 47.5205 45.7218L47.581 46.72ZM50.653 46.208L51.0041 47.1443C51.9936 46.7733 52.6582 46.0319 52.9564 45.0182L51.997 44.736L51.0376 44.4538C50.9091 44.8907 50.6777 45.1307 50.3019 45.2717L50.653 46.208ZM51.997 44.736L52.94 45.0688C53.2563 44.1727 53.381 42.8536 53.381 41.216H52.381H51.381C51.381 42.8211 51.2497 43.8487 51.054 44.4032L51.997 44.736ZM52.381 41.216H53.381V9.472H52.381H51.381V41.216H52.381ZM52.381 9.472H53.381C53.381 7.83442 53.2563 6.51532 52.94 5.61918L51.997 5.952L51.054 6.28482C51.2497 6.83934 51.381 7.86691 51.381 9.472H52.381ZM51.997 5.952L52.9564 5.66983C52.6582 4.65605 51.9936 3.91472 51.0041 3.54367L50.653 4.48L50.3019 5.41633C50.6777 5.55727 50.9091 5.79728 51.0376 6.23417L51.997 5.952ZM50.653 4.48L51.0244 3.55152C50.2277 3.23283 49.0688 3.05633 47.6415 2.96983L47.581 3.968L47.5205 4.96617C48.9092 5.05033 49.7983 5.21517 50.2816 5.40848L50.653 4.48ZM47.581 3.968H48.581V2.688H47.581H46.581V3.968H47.581ZM47.581 2.688L47.5223 3.68627C49.7292 3.81609 53.1244 3.88 57.693 3.88V2.88V1.88C53.1309 1.88 49.7848 1.8159 47.6397 1.68973L47.581 2.688ZM57.693 2.88V3.88C61.8382 3.88 65.081 3.81599 67.4125 3.68646L67.357 2.688L67.3015 1.68954C65.025 1.81601 61.8252 1.88 57.693 1.88V2.88ZM67.357 2.688H66.357V3.968H67.357H68.357V2.688H67.357ZM67.357 3.968L67.2983 2.96972C65.8321 3.05597 64.6489 3.23179 63.8496 3.55152L64.221 4.48L64.5924 5.40848C65.0731 5.21621 65.9806 5.05069 67.4157 4.96627L67.357 3.968ZM64.221 4.48L63.8496 3.55152C62.9094 3.92761 62.2734 4.65743 61.934 5.61918L62.877 5.952L63.82 6.28482C63.9925 5.7959 64.2526 5.54438 64.5924 5.40848L64.221 4.48ZM62.877 5.952L61.9176 5.66983C61.6611 6.54214 61.557 7.83848 61.557 9.472H62.557H63.557C63.557 7.86284 63.6663 6.81252 63.8364 6.23417L62.877 5.952ZM62.557 9.472H61.557V24.576H62.557H63.557V9.472H62.557ZM62.557 24.576V25.576H79.517V24.576V23.576H62.557V24.576ZM79.517 24.576H80.517V9.472H79.517H78.517V24.576H79.517ZM79.517 9.472H80.517C80.517 7.83442 80.3923 6.51532 80.076 5.61918L79.133 5.952L78.19 6.28482C78.3857 6.83934 78.517 7.86691 78.517 9.472H79.517ZM79.133 5.952L80.0924 5.66983C79.7942 4.65605 79.1296 3.91472 78.1401 3.54367L77.789 4.48L77.4379 5.41633C77.8137 5.55727 78.0451 5.79728 78.1736 6.23417L79.133 5.952ZM77.789 4.48L78.1604 3.55152C77.3637 3.23283 76.2048 3.05633 74.7775 2.96983L74.717 3.968L74.6565 4.96617C76.0452 5.05033 76.9343 5.21517 77.4176 5.40848L77.789 4.48ZM74.717 3.968H75.717V2.688H74.717H73.717V3.968H74.717ZM74.717 2.688L74.6635 3.68657C77.0794 3.81599 80.4495 3.88 84.765 3.88V2.88V1.88C80.4618 1.88 77.1333 1.81601 74.7705 1.68943L74.717 2.688ZM84.765 2.88V3.88C89.163 3.88 92.4312 3.8161 94.5541 3.68613L94.493 2.688L94.4319 1.68987C92.3734 1.81589 89.1563 1.88 84.765 1.88V2.88ZM94.493 2.688H93.493V3.968H94.493H95.493V2.688H94.493ZM135.568 48L135.524 48.999L136.698 49.0508L136.562 47.8841L135.568 48ZM100.049 48H99.0485V49.0282L100.076 48.9996L100.049 48ZM100.049 46.72L99.988 45.7218L99.0485 45.7788V46.72H100.049ZM103.12 46.208L102.769 45.2717L102.759 45.2755L102.749 45.2795L103.12 46.208ZM104.465 44.736L103.522 44.4032L103.513 44.4283L103.505 44.4538L104.465 44.736ZM104.465 5.952L103.505 6.23417L103.513 6.25971L103.522 6.28482L104.465 5.952ZM103.12 4.48L102.749 5.40848L102.759 5.41251L102.769 5.41633L103.12 4.48ZM100.049 3.968H99.0485V4.90923L99.988 4.96617L100.049 3.968ZM100.049 2.688L100.076 1.68839L99.0485 1.65984V2.688H100.049ZM134.288 2.688L135.285 2.77204L135.381 1.63397L134.24 1.68917L134.288 2.688ZM134.033 16.512V17.512H135.165L135.025 16.388L134.033 16.512ZM132.561 16.512L131.57 16.6508L131.691 17.512H132.561V16.512ZM129.104 6.912L128.364 7.58381V7.58381L129.104 6.912ZM116.561 4.48L116.897 5.42174V5.42174L116.561 4.48ZM115.344 5.76L116.286 6.09633L116.29 6.08632L116.293 6.07623L115.344 5.76ZM115.024 24.576H114.024V25.576H115.024V24.576ZM122.192 22.08L121.38 21.4968L121.375 21.5037L121.37 21.5108L122.192 22.08ZM124.688 16.128V15.128H123.872L123.709 15.9284L124.688 16.128ZM126.16 16.128L127.158 16.1992L127.234 15.128H126.16V16.128ZM126.353 34.304V35.304H127.421L127.35 34.2382L126.353 34.304ZM124.881 34.304L123.893 34.4611L124.027 35.304H124.881V34.304ZM115.024 25.856V24.856H114.024V25.856H115.024ZM115.344 44.992L114.396 45.3082L114.399 45.3183L114.403 45.3283L115.344 44.992ZM129.872 43.456L129.128 42.7879L129.128 42.7888L129.872 43.456ZM133.84 32.896V31.896H132.984L132.852 32.7427L133.84 32.896ZM135.312 32.896L136.308 32.9865L136.408 31.896H135.312V32.896ZM135.12 38.272H134.12C134.12 42.2183 134.27 45.5031 134.575 48.1159L135.568 48L136.562 47.8841C136.269 45.3769 136.12 42.1764 136.12 38.272H135.12ZM135.568 48L135.613 47.001C132.687 46.8719 127.782 46.808 120.912 46.808V47.808V48.808C127.781 48.808 132.647 48.8721 135.524 48.999L135.568 48ZM120.912 47.808V46.808C111.609 46.808 104.643 46.872 100.021 47.0004L100.049 48L100.076 48.9996C104.67 48.872 111.613 48.808 120.912 48.808V47.808ZM100.049 48H101.049V46.72H100.049H99.0485V48H100.049ZM100.049 46.72L100.109 47.7182C101.536 47.6317 102.695 47.4552 103.492 47.1365L103.12 46.208L102.749 45.2795C102.266 45.4728 101.377 45.6377 99.988 45.7218L100.049 46.72ZM103.12 46.208L103.472 47.1443C104.461 46.7733 105.126 46.0319 105.424 45.0182L104.465 44.736L103.505 44.4538C103.377 44.8907 103.145 45.1307 102.769 45.2717L103.12 46.208ZM104.465 44.736L105.407 45.0688C105.724 44.1727 105.848 42.8536 105.848 41.216H104.848H103.848C103.848 42.8211 103.717 43.8487 103.522 44.4032L104.465 44.736ZM104.848 41.216H105.848V9.472H104.848H103.848V41.216H104.848ZM104.848 9.472H105.848C105.848 7.83442 105.724 6.51532 105.407 5.61918L104.465 5.952L103.522 6.28482C103.717 6.83934 103.848 7.86691 103.848 9.472H104.848ZM104.465 5.952L105.424 5.66983C105.126 4.65605 104.461 3.91472 103.472 3.54367L103.12 4.48L102.769 5.41633C103.145 5.55727 103.377 5.79728 103.505 6.23417L104.465 5.952ZM103.12 4.48L103.492 3.55152C102.695 3.23283 101.536 3.05633 100.109 2.96983L100.049 3.968L99.988 4.96617C101.377 5.05033 102.266 5.21517 102.749 5.40848L103.12 4.48ZM100.049 3.968H101.049V2.688H100.049H99.0485V3.968H100.049ZM100.049 2.688L100.021 3.68761C104.643 3.81601 111.609 3.88 120.912 3.88V2.88V1.88C111.613 1.88 104.67 1.81598 100.076 1.68839L100.049 2.688ZM120.912 2.88V3.88C127.185 3.88 131.665 3.81611 134.337 3.68683L134.288 2.688L134.24 1.68917C131.621 1.81588 127.184 1.88 120.912 1.88V2.88ZM134.288 2.688L133.292 2.60396C132.992 6.16591 132.84 9.35211 132.84 12.16H133.84H134.84C134.84 9.42122 134.988 6.29275 135.285 2.77204L134.288 2.688ZM133.84 12.16H132.84C132.84 14.0511 132.905 15.5504 133.04 16.636L134.033 16.512L135.025 16.388C134.904 15.4256 134.84 14.0235 134.84 12.16H133.84ZM134.033 16.512V15.512H132.561V16.512V17.512H134.033V16.512ZM132.561 16.512L133.551 16.3732C132.904 11.7558 131.717 8.30449 129.845 6.24018L129.104 6.912L128.364 7.58381C129.82 9.18884 130.937 12.1375 131.57 16.6508L132.561 16.512ZM129.104 6.912L129.845 6.24018C127.95 4.15095 125.308 3.16 122.064 3.16V4.16V5.16C124.88 5.16 126.931 6.00371 128.364 7.58381L129.104 6.912ZM122.064 4.16V3.16H119.44V4.16V5.16H122.064V4.16ZM119.44 4.16V3.16C118.1 3.16 116.993 3.26355 116.224 3.53826L116.561 4.48L116.897 5.42174C117.322 5.26977 118.136 5.16 119.44 5.16V4.16ZM116.561 4.48L116.224 3.53826C115.317 3.86231 114.699 4.53368 114.396 5.44377L115.344 5.76L116.293 6.07623C116.416 5.70632 116.61 5.52436 116.897 5.42174L116.561 4.48ZM115.344 5.76L114.403 5.42366C114.127 6.19477 114.024 7.32518 114.024 8.704H115.024H116.024C116.024 7.35215 116.135 6.51989 116.286 6.09633L115.344 5.76ZM115.024 8.704H114.024V24.576H115.024H116.024V8.704H115.024ZM115.024 24.576V25.576H117.072V24.576V23.576H115.024V24.576ZM117.072 24.576V25.576C119.617 25.576 121.652 24.6179 123.015 22.6492L122.192 22.08L121.37 21.5108C120.429 22.8701 119.051 23.576 117.072 23.576V24.576ZM122.192 22.08L123.005 22.6632C124.293 20.8688 125.175 18.7495 125.668 16.3276L124.688 16.128L123.709 15.9284C123.263 18.1145 122.481 19.9632 121.38 21.4968L122.192 22.08ZM124.688 16.128V17.128H126.16V16.128V15.128H124.688V16.128ZM126.16 16.128L125.163 16.0568C125.033 17.8772 124.968 19.9068 124.968 22.144H125.968H126.968C126.968 19.9438 127.032 17.9628 127.158 16.1992L126.16 16.128ZM125.968 22.144H124.968V25.216H125.968H126.968V22.144H125.968ZM125.968 25.216H124.968C124.968 27.4246 125.098 30.4794 125.355 34.3698L126.353 34.304L127.35 34.2382C127.095 30.3633 126.968 27.3594 126.968 25.216H125.968ZM126.353 34.304V33.304H124.881V34.304V35.304H126.353V34.304ZM124.881 34.304L125.868 34.1469C125.403 31.2253 124.477 28.897 122.991 27.2893C121.476 25.65 119.468 24.856 117.072 24.856V25.856V26.856C118.986 26.856 120.435 27.47 121.522 28.6467C122.639 29.855 123.462 31.7507 123.893 34.4611L124.881 34.304ZM117.072 25.856V24.856H115.024V25.856V26.856H117.072V25.856ZM115.024 25.856H114.024V41.984H115.024H116.024V25.856H115.024ZM115.024 41.984H114.024C114.024 43.3702 114.129 44.5079 114.396 45.3082L115.344 44.992L116.293 44.6758C116.133 44.1962 116.024 43.3285 116.024 41.984H115.024ZM115.344 44.992L114.403 45.3283C114.717 46.208 115.344 46.8356 116.224 47.1497L116.561 46.208L116.897 45.2663C116.582 45.1538 116.399 44.9706 116.286 44.6557L115.344 44.992ZM116.561 46.208L116.224 47.1497C116.993 47.4244 118.1 47.528 119.44 47.528V46.528V45.528C118.136 45.528 117.322 45.4182 116.897 45.2663L116.561 46.208ZM119.44 46.528V47.528H122.576V46.528V45.528H119.44V46.528ZM122.576 46.528V47.528C125.858 47.528 128.572 46.4059 130.617 44.1232L129.872 43.456L129.128 42.7888C127.503 44.6021 125.354 45.528 122.576 45.528V46.528ZM129.872 43.456L130.617 44.1241C132.69 41.8151 134.051 38.0598 134.829 33.0493L133.84 32.896L132.852 32.7427C132.094 37.6309 130.81 40.9156 129.128 42.7879L129.872 43.456ZM133.84 32.896V33.896H135.312V32.896V31.896H133.84V32.896ZM135.312 32.896L134.317 32.8055C134.185 34.255 134.12 36.08 134.12 38.272H135.12H136.12C136.12 36.112 136.184 34.353 136.308 32.9865L135.312 32.896ZM176.131 2.688L177.128 2.77007L177.221 1.63408L176.083 1.68917L176.131 2.688ZM175.875 17.28V18.28H176.984L176.87 17.1771L175.875 17.28ZM174.403 17.28L173.418 17.4543L173.564 18.28H174.403V17.28ZM170.563 7.104L169.808 7.76017L170.563 7.104ZM158.403 4.48L158.739 5.42174V5.42174L158.403 4.48ZM157.187 5.76L158.129 6.09633L158.132 6.08632L158.136 6.07623L157.187 5.76ZM156.867 24.832H155.867V25.832H156.867V24.832ZM164.227 22.336L163.415 21.7528L163.41 21.7597L163.405 21.7668L164.227 22.336ZM166.723 16.384V15.384H165.906L165.743 16.1844L166.723 16.384ZM168.195 16.384L169.192 16.4552L169.269 15.384H168.195V16.384ZM168.387 34.56V35.56H169.455L169.385 34.4942L168.387 34.56ZM166.915 34.56L165.927 34.7171L166.062 35.56H166.915V34.56ZM156.867 26.112V25.112H155.867V26.112H156.867ZM157.379 44.608L156.457 44.9961L156.47 45.0261L156.485 45.0552L157.379 44.608ZM159.299 46.144L159.024 47.1056L159.036 47.1088L159.299 46.144ZM163.715 46.592H164.715V45.613L163.736 45.5922L163.715 46.592ZM163.715 48L163.691 48.9997L164.715 49.0247V48H163.715ZM143.939 47.936L143.913 46.9363L143.908 46.9365L143.939 47.936ZM141.891 48H140.891V49.0317L141.922 48.9995L141.891 48ZM141.891 46.72L141.831 45.7218L140.891 45.7788V46.72H141.891ZM144.963 46.208L144.612 45.2717L144.602 45.2755L144.592 45.2795L144.963 46.208ZM146.307 44.736L145.364 44.4032L145.355 44.4283L145.348 44.4538L146.307 44.736ZM146.307 5.952L145.348 6.23417L145.355 6.25971L145.364 6.28482L146.307 5.952ZM144.963 4.48L144.592 5.40848L144.602 5.41251L144.612 5.41633L144.963 4.48ZM141.891 3.968H140.891V4.90923L141.831 4.96617L141.891 3.968ZM141.891 2.688L141.919 1.68839L140.891 1.65984V2.688H141.891ZM176.131 2.688L175.134 2.60592C174.834 6.25293 174.683 9.52375 174.683 12.416H175.683H176.683C176.683 9.59092 176.831 6.3764 177.128 2.77007L176.131 2.688ZM175.683 12.416H174.683C174.683 14.4377 174.747 16.0972 174.88 17.3829L175.875 17.28L176.87 17.1771C176.747 15.9881 176.683 14.405 176.683 12.416H175.683ZM175.875 17.28V16.28H174.403V17.28V18.28H175.875V17.28ZM174.403 17.28L175.388 17.1057C174.526 12.2386 173.208 8.62205 171.318 6.44782L170.563 7.104L169.808 7.76017C171.331 9.51128 172.573 12.6787 173.418 17.4543L174.403 17.28ZM170.563 7.104L171.318 6.44782C169.386 4.22667 166.699 3.16 163.395 3.16V4.16V5.16C166.235 5.16 168.326 6.05599 169.808 7.76017L170.563 7.104ZM163.395 4.16V3.16H161.283V4.16V5.16H163.395V4.16ZM161.283 4.16V3.16C159.942 3.16 158.836 3.26355 158.067 3.53826L158.403 4.48L158.739 5.42174C159.165 5.26977 159.978 5.16 161.283 5.16V4.16ZM158.403 4.48L158.067 3.53826C157.159 3.86231 156.542 4.53368 156.238 5.44377L157.187 5.76L158.136 6.07623C158.259 5.70632 158.452 5.52436 158.739 5.42174L158.403 4.48ZM157.187 5.76L156.245 5.42366C155.97 6.19477 155.867 7.32518 155.867 8.704H156.867H157.867C157.867 7.35215 157.977 6.51989 158.129 6.09633L157.187 5.76ZM156.867 8.704H155.867V24.832H156.867H157.867V8.704H156.867ZM156.867 24.832V25.832H159.107V24.832V23.832H156.867V24.832ZM159.107 24.832V25.832C161.652 25.832 163.686 24.8739 165.049 22.9052L164.227 22.336L163.405 21.7668C162.464 23.1261 161.085 23.832 159.107 23.832V24.832ZM164.227 22.336L165.039 22.9192C166.328 21.1248 167.21 19.0055 167.703 16.5836L166.723 16.384L165.743 16.1844C165.298 18.3705 164.516 20.2192 163.415 21.7528L164.227 22.336ZM166.723 16.384V17.384H168.195V16.384V15.384H166.723V16.384ZM168.195 16.384L167.198 16.3128C167.068 18.1332 167.003 20.1628 167.003 22.4H168.003H169.003C169.003 20.1998 169.066 18.2188 169.192 16.4552L168.195 16.384ZM168.003 22.4H167.003V25.472H168.003H169.003V22.4H168.003ZM168.003 25.472H167.003C167.003 27.6806 167.133 30.7354 167.389 34.6258L168.387 34.56L169.385 34.4942C169.129 30.6193 169.003 27.6154 169.003 25.472H168.003ZM168.387 34.56V33.56H166.915V34.56V35.56H168.387V34.56ZM166.915 34.56L167.903 34.4029C167.438 31.4813 166.511 29.153 165.025 27.5453C163.51 25.906 161.502 25.112 159.107 25.112V26.112V27.112C161.021 27.112 162.469 27.726 163.557 28.9027C164.673 30.111 165.496 32.0067 165.927 34.7171L166.915 34.56ZM159.107 26.112V25.112H156.867V26.112V27.112H159.107V26.112ZM156.867 26.112H155.867V40.832H156.867H157.867V26.112H156.867ZM156.867 40.832H155.867C155.867 42.5703 156.036 43.9947 156.457 44.9961L157.379 44.608L158.301 44.2199C158.04 43.6 157.867 42.507 157.867 40.832H156.867ZM157.379 44.608L156.485 45.0552C157.005 46.0969 157.884 46.7799 159.024 47.1055L159.299 46.144L159.574 45.1825C158.922 44.9961 158.521 44.6551 158.273 44.1608L157.379 44.608ZM159.299 46.144L159.036 47.1088C160.099 47.3987 161.674 47.5488 163.694 47.5918L163.715 46.592L163.736 45.5922C161.745 45.5499 160.376 45.4013 159.562 45.1792L159.299 46.144ZM163.715 46.592H162.715V48H163.715H164.715V46.592H163.715ZM163.715 48L163.739 47.0003C158.49 46.8723 154.576 46.808 152.003 46.808V47.808V48.808C154.55 48.808 158.444 48.8717 163.691 48.9997L163.715 48ZM152.003 47.808V46.808C149.858 46.808 147.16 46.8509 143.913 46.9363L143.939 47.936L143.965 48.9357C147.203 48.8504 149.882 48.808 152.003 48.808V47.808ZM143.939 47.936L143.908 46.9365L141.86 47.0005L141.891 48L141.922 48.9995L143.97 48.9355L143.939 47.936ZM141.891 48H142.891V46.72H141.891H140.891V48H141.891ZM141.891 46.72L141.951 47.7182C143.379 47.6317 144.538 47.4552 145.334 47.1365L144.963 46.208L144.592 45.2795C144.108 45.4728 143.219 45.6377 141.831 45.7218L141.891 46.72ZM144.963 46.208L145.314 47.1443C146.304 46.7733 146.968 46.0319 147.266 45.0182L146.307 44.736L145.348 44.4538C145.219 44.8907 144.988 45.1307 144.612 45.2717L144.963 46.208ZM146.307 44.736L147.25 45.0688C147.566 44.1727 147.691 42.8536 147.691 41.216H146.691H145.691C145.691 42.8211 145.56 43.8487 145.364 44.4032L146.307 44.736ZM146.691 41.216H147.691V9.472H146.691H145.691V41.216H146.691ZM146.691 9.472H147.691C147.691 7.83442 147.566 6.51532 147.25 5.61918L146.307 5.952L145.364 6.28482C145.56 6.83934 145.691 7.86691 145.691 9.472H146.691ZM146.307 5.952L147.266 5.66983C146.968 4.65605 146.304 3.91472 145.314 3.54367L144.963 4.48L144.612 5.41633C144.988 5.55727 145.219 5.79728 145.348 6.23417L146.307 5.952ZM144.963 4.48L145.334 3.55152C144.538 3.23283 143.379 3.05633 141.951 2.96983L141.891 3.968L141.831 4.96617C143.219 5.05033 144.108 5.21517 144.592 5.40848L144.963 4.48ZM141.891 3.968H142.891V2.688H141.891H140.891V3.968H141.891ZM141.891 2.688L141.863 3.68761C146.486 3.81601 153.452 3.88 162.755 3.88V2.88V1.88C153.456 1.88 146.512 1.81598 141.919 1.68839L141.891 2.688ZM162.755 2.88V3.88C169.027 3.88 173.507 3.81611 176.179 3.68683L176.131 2.688L176.083 1.68917C173.464 1.81588 169.027 1.88 162.755 1.88V2.88ZM210.615 29.696V28.696H209.615V29.696H210.615ZM211.126 44.608L210.205 44.9961L210.217 45.0261L210.232 45.0552L211.126 44.608ZM213.046 46.144L212.772 47.1056L212.783 47.1088L213.046 46.144ZM217.462 46.592H218.462V45.613L217.484 45.5922L217.462 46.592ZM217.462 48L217.438 48.9997L218.462 49.0247V48H217.462ZM197.686 47.936L197.66 46.9363L197.655 46.9365L197.686 47.936ZM195.638 48H194.638V49.0317L195.67 48.9995L195.638 48ZM195.638 46.72L195.578 45.7218L194.638 45.7788V46.72H195.638ZM198.71 46.208L198.359 45.2717L198.349 45.2755L198.339 45.2795L198.71 46.208ZM200.054 44.736L199.112 44.4032L199.103 44.4283L199.095 44.4538L200.054 44.736ZM200.054 5.952L199.095 6.23417L199.103 6.25971L199.112 6.28482L200.054 5.952ZM198.71 4.48L198.339 5.40848L198.349 5.41251L198.359 5.41633L198.71 4.48ZM195.638 3.968H194.638V4.90923L195.578 4.96617L195.638 3.968ZM195.638 2.688L195.697 1.68973L194.638 1.62745V2.688H195.638ZM205.367 2.88V3.88004L205.376 3.87996L205.367 2.88ZM212.47 2.816L212.48 3.81596L212.5 3.81577L212.52 3.81475L212.47 2.816ZM228.598 6.208L227.993 7.00397L228 7.00935L228.598 6.208ZM231.35 22.144L232.223 22.6326L232.227 22.6253L231.35 22.144ZM225.27 27.52L224.818 26.6282L224.813 26.631L225.27 27.52ZM212.022 4.416L211.548 3.53552L211.533 3.54362L211.519 3.55222L212.022 4.416ZM210.934 6.016L209.971 5.74835V5.74836L210.934 6.016ZM210.615 28.416H209.615V29.416H210.615V28.416ZM220.535 25.088L219.676 24.5759L220.535 25.088ZM220.662 6.912L219.808 7.43195L219.812 7.43866L219.817 7.4453L220.662 6.912ZM210.615 29.696H209.615V40.832H210.615H211.615V29.696H210.615ZM210.615 40.832H209.615C209.615 42.5703 209.783 43.9947 210.205 44.9961L211.126 44.608L212.048 44.2199C211.787 43.6 211.615 42.507 211.615 40.832H210.615ZM211.126 44.608L210.232 45.0552C210.753 46.0969 211.632 46.7799 212.772 47.1055L213.046 46.144L213.321 45.1825C212.669 44.9961 212.268 44.6551 212.021 44.1608L211.126 44.608ZM213.046 46.144L212.783 47.1088C213.847 47.3987 215.421 47.5488 217.441 47.5918L217.462 46.592L217.484 45.5922C215.493 45.5499 214.124 45.4013 213.31 45.1792L213.046 46.144ZM217.462 46.592H216.462V48H217.462H218.462V46.592H217.462ZM217.462 48L217.487 47.0003C212.237 46.8723 208.323 46.808 205.75 46.808V47.808V48.808C208.298 48.808 212.192 48.8717 217.438 48.9997L217.462 48ZM205.75 47.808V46.808C203.605 46.808 200.908 46.8509 197.66 46.9363L197.686 47.936L197.713 48.9357C200.951 48.8504 203.629 48.808 205.75 48.808V47.808ZM197.686 47.936L197.655 46.9365L195.607 47.0005L195.638 48L195.67 48.9995L197.718 48.9355L197.686 47.936ZM195.638 48H196.638V46.72H195.638H194.638V48H195.638ZM195.638 46.72L195.699 47.7182C197.126 47.6317 198.285 47.4552 199.082 47.1365L198.71 46.208L198.339 45.2795C197.856 45.4728 196.967 45.6377 195.578 45.7218L195.638 46.72ZM198.71 46.208L199.062 47.1443C200.051 46.7733 200.716 46.0319 201.014 45.0182L200.054 44.736L199.095 44.4538C198.967 44.8907 198.735 45.1307 198.359 45.2717L198.71 46.208ZM200.054 44.736L200.997 45.0688C201.314 44.1727 201.438 42.8536 201.438 41.216H200.438H199.438C199.438 42.8211 199.307 43.8487 199.112 44.4032L200.054 44.736ZM200.438 41.216H201.438V9.472H200.438H199.438V41.216H200.438ZM200.438 9.472H201.438C201.438 7.83442 201.314 6.51532 200.997 5.61918L200.054 5.952L199.112 6.28482C199.307 6.83934 199.438 7.86691 199.438 9.472H200.438ZM200.054 5.952L201.014 5.66983C200.716 4.65605 200.051 3.91472 199.062 3.54367L198.71 4.48L198.359 5.41633C198.735 5.55727 198.967 5.79728 199.095 6.23417L200.054 5.952ZM198.71 4.48L199.082 3.55152C198.285 3.23283 197.126 3.05633 195.699 2.96983L195.638 3.968L195.578 4.96617C196.967 5.05033 197.856 5.21517 198.339 5.40848L198.71 4.48ZM195.638 3.968H196.638V2.688H195.638H194.638V3.968H195.638ZM195.638 2.688L195.58 3.68627C197.786 3.81605 201.053 3.88 205.367 3.88V2.88V1.88C201.062 1.88 197.843 1.81594 195.697 1.68973L195.638 2.688ZM205.367 2.88L205.376 3.87996L212.48 3.81596L212.47 2.816L212.461 1.81604L205.357 1.88004L205.367 2.88ZM212.47 2.816L212.52 3.81475C213.353 3.77312 214.317 3.752 215.414 3.752V2.752V1.752C214.293 1.752 213.295 1.77355 212.421 1.81725L212.47 2.816ZM215.414 2.752V3.752C221.062 3.752 225.207 4.88486 227.993 7.00394L228.598 6.208L229.204 5.41205C225.931 2.92313 221.287 1.752 215.414 1.752V2.752ZM228.598 6.208L228 7.00935C230.772 9.07843 232.142 11.8297 232.142 15.36H233.142H234.142C234.142 11.2103 232.484 7.86023 229.197 5.40664L228.598 6.208ZM233.142 15.36H232.142C232.142 17.5286 231.592 19.6254 230.474 21.6627L231.35 22.144L232.227 22.6253C233.498 20.3106 234.142 17.8847 234.142 15.36H233.142ZM231.35 22.144L230.478 21.6554C229.406 23.5693 227.554 25.2398 224.818 26.6282L225.27 27.52L225.723 28.4117C228.704 26.8989 230.905 24.9854 232.223 22.6326L231.35 22.144ZM225.27 27.52L224.813 26.631C222.19 27.9821 218.611 28.696 214.007 28.696V29.696V30.696C218.788 30.696 222.719 29.9593 225.728 28.409L225.27 27.52ZM214.007 29.696V28.696H210.615V29.696V30.696H214.007V29.696ZM214.582 3.968V2.968C213.381 2.968 212.325 3.11741 211.548 3.53552L212.022 4.416L212.497 5.29647C212.829 5.11726 213.48 4.968 214.582 4.968V3.968ZM212.022 4.416L211.519 3.55222C210.713 4.0222 210.229 4.81811 209.971 5.74835L210.934 6.016L211.898 6.28364C212.066 5.67789 212.308 5.40712 212.526 5.27977L212.022 4.416ZM210.934 6.016L209.971 5.74836C209.72 6.65058 209.615 7.91277 209.615 9.472H210.615H211.615C211.615 7.95923 211.722 6.91742 211.898 6.28364L210.934 6.016ZM210.615 9.472H209.615V28.416H210.615H211.615V9.472H210.615ZM210.615 28.416V29.416H213.367V28.416V27.416H210.615V28.416ZM213.367 28.416V29.416C217.04 29.416 219.831 28.2213 221.393 25.6001L220.535 25.088L219.676 24.5759C218.593 26.392 216.605 27.416 213.367 27.416V28.416ZM220.535 25.088L221.393 25.6001C222.842 23.1703 223.518 19.9623 223.518 16.064H222.518H221.518C221.518 19.7603 220.872 22.5684 219.676 24.5759L220.535 25.088ZM222.518 16.064H223.518C223.518 11.8649 222.898 8.58284 221.508 6.3787L220.662 6.912L219.817 7.4453C220.902 9.16649 221.518 11.9857 221.518 16.064H222.518ZM220.662 6.912L221.517 6.39205C220.095 4.05588 217.692 2.968 214.582 2.968V3.968V4.968C217.191 4.968 218.841 5.84279 219.808 7.43195L220.662 6.912ZM280.998 45.184L281.752 45.8408L282.414 45.0807L281.649 44.4247L280.998 45.184ZM277.286 48L276.899 47.0778L276.887 47.083L276.874 47.0886L277.286 48ZM266.598 47.36L265.994 48.1571L266.008 48.1673L266.021 48.177L266.598 47.36ZM263.846 41.984L264.832 41.8169L264.83 41.8068L263.846 41.984ZM262.694 35.584L261.709 35.7593L261.71 35.7612L262.694 35.584ZM260.646 28.736L259.757 29.1933L259.765 29.2087L259.773 29.2238L260.646 28.736ZM252.582 26.496V25.496H251.582V26.496H252.582ZM252.902 44.736L251.943 45.0182L251.95 45.0437L251.959 45.0688L252.902 44.736ZM254.246 46.208L253.875 47.1365V47.1365L254.246 46.208ZM257.382 46.72H258.382V45.7771L257.441 45.7217L257.382 46.72ZM257.382 48L257.327 48.9985L258.382 49.0571V48H257.382ZM237.606 48H236.606V49.0606L237.665 48.9983L237.606 48ZM237.606 46.72L237.546 45.7218L236.606 45.7788V46.72H237.606ZM240.678 46.208L240.327 45.2717L240.317 45.2755L240.307 45.2795L240.678 46.208ZM242.022 44.736L241.079 44.4032L241.07 44.4283L241.063 44.4538L242.022 44.736ZM242.022 5.952L241.063 6.23417L241.07 6.25971L241.079 6.28482L242.022 5.952ZM240.678 4.48L240.307 5.40848L240.317 5.41251L240.327 5.41633L240.678 4.48ZM237.606 3.968H236.606V4.90923L237.546 4.96617L237.606 3.968ZM237.606 2.688L237.665 1.68973L236.606 1.62745V2.688H237.606ZM247.334 2.88V3.88004L247.343 3.87996L247.334 2.88ZM254.438 2.816L254.447 3.81596L254.467 3.81577L254.488 3.81475L254.438 2.816ZM270.63 5.632L270.084 6.46962L270.089 6.47317L270.63 5.632ZM271.782 21.888L271.062 21.1944L271.782 21.888ZM260.774 26.24L260.658 25.2467L260.685 27.2361L260.774 26.24ZM269.35 28.736L269.926 27.9185L269.35 28.736ZM272.998 34.688L272.019 34.8932L272.022 34.9059L272.998 34.688ZM274.47 41.28L275.451 41.0839L275.448 41.0729L275.446 41.0621L274.47 41.28ZM275.622 44.864L274.774 45.394L274.786 45.4125L274.798 45.4305L275.622 44.864ZM277.542 45.888V46.888H277.584L277.625 46.8845L277.542 45.888ZM278.822 45.504L278.336 44.6298L278.314 44.6423L278.292 44.656L278.822 45.504ZM280.102 44.416L280.753 43.6567L280.018 43.0273L279.365 43.7403L280.102 44.416ZM253.99 4.416L253.516 3.53552L253.501 3.54362L253.486 3.55222L253.99 4.416ZM252.902 6.016L251.938 5.74835V5.74836L252.902 6.016ZM252.582 25.216H251.582V26.216H252.582V25.216ZM262.502 22.464L261.685 21.888L261.682 21.8918L262.502 22.464ZM262.63 6.656L261.807 7.22419V7.22419L262.63 6.656ZM280.998 45.184L280.244 44.5272C279.17 45.7598 278.053 46.5941 276.899 47.0778L277.286 48L277.673 48.9222C279.165 48.2966 280.522 47.2536 281.752 45.8408L280.998 45.184ZM277.286 48L276.874 47.0886C275.713 47.6131 274.261 47.896 272.486 47.896V48.896V49.896C274.465 49.896 276.214 49.5816 277.698 48.9114L277.286 48ZM272.486 48.896V47.896C270.139 47.896 268.402 47.4093 267.175 46.543L266.598 47.36L266.021 48.177C267.695 49.3587 269.884 49.896 272.486 49.896V48.896ZM266.598 47.36L267.202 46.5629C266.072 45.7066 265.235 44.1943 264.832 41.8169L263.846 41.984L262.86 42.1511C263.31 44.8084 264.308 46.88 265.994 48.1571L266.598 47.36ZM263.846 41.984L264.83 41.8068L263.678 35.4068L262.694 35.584L261.71 35.7612L262.862 42.1612L263.846 41.984ZM262.694 35.584L263.678 35.4087C263.119 32.2648 262.413 29.8482 261.519 28.2482L260.646 28.736L259.773 29.2238C260.5 30.5251 261.16 32.6739 261.709 35.7593L262.694 35.584ZM260.646 28.736L261.535 28.2787C261.074 27.3815 260.429 26.6692 259.592 26.1886C258.759 25.711 257.795 25.496 256.742 25.496V26.496V27.496C257.523 27.496 258.127 27.6544 258.596 27.9234C259.06 28.1895 259.45 28.5971 259.757 29.1933L260.646 28.736ZM256.742 26.496V25.496H252.582V26.496V27.496H256.742V26.496ZM252.582 26.496H251.582V41.216H252.582H253.582V26.496H252.582ZM252.582 41.216H251.582C251.582 42.8495 251.686 44.1459 251.943 45.0182L252.902 44.736L253.861 44.4538C253.691 43.8755 253.582 42.8251 253.582 41.216H252.582ZM252.902 44.736L251.959 45.0688C252.298 46.0306 252.934 46.7604 253.875 47.1365L254.246 46.208L254.617 45.2795C254.278 45.1436 254.018 44.8921 253.845 44.4032L252.902 44.736ZM254.246 46.208L253.875 47.1365C254.674 47.4562 255.857 47.632 257.323 47.7183L257.382 46.72L257.441 45.7217C256.006 45.6373 255.098 45.4718 254.617 45.2795L254.246 46.208ZM257.382 46.72H256.382V48H257.382H258.382V46.72H257.382ZM257.382 48L257.437 47.0015C255.106 46.872 251.863 46.808 247.718 46.808V47.808V48.808C251.85 48.808 255.05 48.872 257.327 48.9985L257.382 48ZM247.718 47.808V46.808C243.149 46.808 239.754 46.8719 237.547 47.0017L237.606 48L237.665 48.9983C239.81 48.8721 243.156 48.808 247.718 48.808V47.808ZM237.606 48H238.606V46.72H237.606H236.606V48H237.606ZM237.606 46.72L237.666 47.7182C239.094 47.6317 240.253 47.4552 241.049 47.1365L240.678 46.208L240.307 45.2795C239.823 45.4728 238.934 45.6377 237.546 45.7218L237.606 46.72ZM240.678 46.208L241.029 47.1443C242.019 46.7733 242.683 46.0319 242.981 45.0182L242.022 44.736L241.063 44.4538C240.934 44.8907 240.703 45.1307 240.327 45.2717L240.678 46.208ZM242.022 44.736L242.965 45.0688C243.281 44.1727 243.406 42.8536 243.406 41.216H242.406H241.406C241.406 42.8211 241.275 43.8487 241.079 44.4032L242.022 44.736ZM242.406 41.216H243.406V9.472H242.406H241.406V41.216H242.406ZM242.406 9.472H243.406C243.406 7.83442 243.281 6.51532 242.965 5.61918L242.022 5.952L241.079 6.28482C241.275 6.83934 241.406 7.86691 241.406 9.472H242.406ZM242.022 5.952L242.981 5.66983C242.683 4.65605 242.019 3.91472 241.029 3.54367L240.678 4.48L240.327 5.41633C240.703 5.55727 240.934 5.79728 241.063 6.23417L242.022 5.952ZM240.678 4.48L241.049 3.55152C240.253 3.23283 239.094 3.05633 237.666 2.96983L237.606 3.968L237.546 4.96617C238.934 5.05033 239.823 5.21517 240.307 5.40848L240.678 4.48ZM237.606 3.968H238.606V2.688H237.606H236.606V3.968H237.606ZM237.606 2.688L237.547 3.68627C239.754 3.81605 243.02 3.88 247.334 3.88V2.88V1.88C243.029 1.88 239.81 1.81594 237.665 1.68973L237.606 2.688ZM247.334 2.88L247.343 3.87996L254.447 3.81596L254.438 2.816L254.429 1.81604L247.325 1.88004L247.334 2.88ZM254.438 2.816L254.488 3.81475C255.321 3.77312 256.285 3.752 257.382 3.752V2.752V1.752C256.261 1.752 255.262 1.77355 254.388 1.81725L254.438 2.816ZM257.382 2.752V3.752C263.193 3.752 267.378 4.70526 270.084 6.46961L270.63 5.632L271.176 4.79439C267.994 2.71873 263.347 1.752 257.382 1.752V2.752ZM270.63 5.632L270.089 6.47317C272.786 8.20708 274.11 10.6404 274.11 13.888H275.11H276.11C276.11 9.96763 274.447 6.89691 271.171 4.79082L270.63 5.632ZM275.11 13.888H274.11C274.11 16.6431 273.112 19.0652 271.062 21.1944L271.782 21.888L272.502 22.5816C274.889 20.1028 276.11 17.1916 276.11 13.888H275.11ZM271.782 21.888L271.062 21.1944C269.076 23.2562 265.679 24.6609 260.658 25.2467L260.774 26.24L260.89 27.2333C266.109 26.6244 270.05 25.1278 272.502 22.5816L271.782 21.888ZM260.774 26.24L260.685 27.2361C264.455 27.5712 267.108 28.3794 268.774 29.5535L269.35 28.736L269.926 27.9185C267.838 26.4473 264.773 25.5915 260.863 25.2439L260.774 26.24ZM269.35 28.736L268.774 29.5535C270.409 30.705 271.507 32.4489 272.019 34.8932L272.998 34.688L273.977 34.4828C273.38 31.6364 272.046 29.4123 269.926 27.9185L269.35 28.736ZM272.998 34.688L272.022 34.9059L273.494 41.4979L274.47 41.28L275.446 41.0621L273.974 34.4701L272.998 34.688ZM274.47 41.28L273.489 41.4761C273.833 43.1959 274.244 44.5461 274.774 45.394L275.622 44.864L276.47 44.334C276.147 43.8165 275.789 42.7775 275.451 41.0839L274.47 41.28ZM275.622 44.864L274.798 45.4305C275.449 46.3774 276.393 46.888 277.542 46.888V45.888V44.888C277.069 44.888 276.734 44.7159 276.446 44.2975L275.622 44.864ZM277.542 45.888L277.625 46.8845C278.253 46.8322 278.843 46.6698 279.352 46.352L278.822 45.504L278.292 44.656C278.118 44.7649 277.855 44.8585 277.459 44.8915L277.542 45.888ZM278.822 45.504L279.308 46.3782C279.824 46.0914 280.334 45.6425 280.839 45.0917L280.102 44.416L279.365 43.7403C278.931 44.2135 278.588 44.49 278.336 44.6298L278.822 45.504ZM280.102 44.416L279.451 45.1753L280.347 45.9433L280.998 45.184L281.649 44.4247L280.753 43.6567L280.102 44.416ZM256.55 3.968V2.968C255.349 2.968 254.292 3.11741 253.516 3.53552L253.99 4.416L254.464 5.29647C254.797 5.11726 255.447 4.968 256.55 4.968V3.968ZM253.99 4.416L253.486 3.55222C252.68 4.0222 252.197 4.81811 251.938 5.74835L252.902 6.016L253.866 6.28364C254.034 5.67789 254.276 5.40712 254.494 5.27977L253.99 4.416ZM252.902 6.016L251.938 5.74836C251.688 6.65058 251.582 7.91277 251.582 9.472H252.582H253.582C253.582 7.95923 253.689 6.91742 253.866 6.28364L252.902 6.016ZM252.582 9.472H251.582V25.216H252.582H253.582V9.472H252.582ZM252.582 25.216V26.216H255.334V25.216V24.216H252.582V25.216ZM255.334 25.216V26.216C258.969 26.216 261.768 25.2641 263.322 23.0362L262.502 22.464L261.682 21.8918C260.676 23.3332 258.696 24.216 255.334 24.216V25.216ZM262.502 22.464L263.319 23.04C264.805 20.932 265.486 18.0771 265.486 14.592H264.486H263.486C263.486 17.8483 262.845 20.2414 261.685 21.888L262.502 22.464ZM264.486 14.592H265.486C265.486 11.0031 264.856 8.12032 263.453 6.08781L262.63 6.656L261.807 7.22419C262.878 8.77567 263.486 11.1835 263.486 14.592H264.486ZM262.63 6.656L263.453 6.08781C261.975 3.94779 259.587 2.968 256.55 2.968V3.968V4.968C259.145 4.968 260.81 5.78021 261.807 7.22419L262.63 6.656ZM302.974 3.968L303.033 4.96627L303.974 4.9109V3.968H302.974ZM299.839 4.48L300.21 5.40848V5.40848L299.839 4.48ZM298.495 5.952L297.552 5.61918L297.543 5.64429L297.535 5.66983L298.495 5.952ZM298.495 44.736L297.535 45.0182L297.543 45.0437L297.552 45.0688L298.495 44.736ZM299.839 46.208L299.467 47.1365V47.1365L299.839 46.208ZM302.974 46.72H303.974V45.7771L303.033 45.7217L302.974 46.72ZM302.974 48L302.919 48.9985L303.974 49.0571V48H302.974ZM283.198 48H282.198V49.0606L283.257 48.9983L283.198 48ZM283.198 46.72L283.138 45.7218L282.198 45.7788V46.72H283.198ZM286.27 46.208L285.919 45.2717L285.909 45.2755L285.899 45.2795L286.27 46.208ZM287.615 44.736L286.672 44.4032L286.663 44.4283L286.655 44.4538L287.615 44.736ZM287.615 5.952L286.655 6.23417L286.663 6.25971L286.672 6.28482L287.615 5.952ZM286.27 4.48L285.899 5.40848L285.909 5.41251L285.919 5.41633L286.27 4.48ZM283.198 3.968H282.198V4.90923L283.138 4.96617L283.198 3.968ZM283.198 2.688L283.257 1.68973L282.198 1.62745V2.688H283.198ZM302.974 2.688H303.974V1.6309L302.919 1.68954L302.974 2.688ZM302.974 3.968L302.916 2.96972C301.45 3.05597 300.266 3.23179 299.467 3.55152L299.839 4.48L300.21 5.40848C300.691 5.21621 301.598 5.05069 303.033 4.96627L302.974 3.968ZM299.839 4.48L299.467 3.55152C298.527 3.92761 297.891 4.65743 297.552 5.61918L298.495 5.952L299.437 6.28482C299.61 5.7959 299.87 5.54438 300.21 5.40848L299.839 4.48ZM298.495 5.952L297.535 5.66983C297.279 6.54214 297.174 7.83848 297.174 9.472H298.174H299.174C299.174 7.86284 299.284 6.81252 299.454 6.23417L298.495 5.952ZM298.174 9.472H297.174V41.216H298.174H299.174V9.472H298.174ZM298.174 41.216H297.174C297.174 42.8495 297.279 44.1459 297.535 45.0182L298.495 44.736L299.454 44.4538C299.284 43.8755 299.174 42.8251 299.174 41.216H298.174ZM298.495 44.736L297.552 45.0688C297.891 46.0306 298.527 46.7604 299.467 47.1365L299.839 46.208L300.21 45.2795C299.87 45.1436 299.61 44.8921 299.437 44.4032L298.495 44.736ZM299.839 46.208L299.467 47.1365C300.266 47.4562 301.45 47.632 302.916 47.7183L302.974 46.72L303.033 45.7217C301.598 45.6373 300.691 45.4718 300.21 45.2795L299.839 46.208ZM302.974 46.72H301.974V48H302.974H303.974V46.72H302.974ZM302.974 48L303.03 47.0015C300.698 46.872 297.456 46.808 293.31 46.808V47.808V48.808C297.443 48.808 300.643 48.872 302.919 48.9985L302.974 48ZM293.31 47.808V46.808C288.742 46.808 285.347 46.8719 283.14 47.0017L283.198 48L283.257 48.9983C285.402 48.8721 288.748 48.808 293.31 48.808V47.808ZM283.198 48H284.198V46.72H283.198H282.198V48H283.198ZM283.198 46.72L283.259 47.7182C284.686 47.6317 285.845 47.4552 286.642 47.1365L286.27 46.208L285.899 45.2795C285.416 45.4728 284.527 45.6377 283.138 45.7218L283.198 46.72ZM286.27 46.208L286.622 47.1443C287.611 46.7733 288.276 46.0319 288.574 45.0182L287.615 44.736L286.655 44.4538C286.527 44.8907 286.295 45.1307 285.919 45.2717L286.27 46.208ZM287.615 44.736L288.557 45.0688C288.874 44.1727 288.999 42.8536 288.999 41.216H287.999H286.999C286.999 42.8211 286.867 43.8487 286.672 44.4032L287.615 44.736ZM287.999 41.216H288.999V9.472H287.999H286.999V41.216H287.999ZM287.999 9.472H288.999C288.999 7.83442 288.874 6.51532 288.557 5.61918L287.615 5.952L286.672 6.28482C286.867 6.83934 286.999 7.86691 286.999 9.472H287.999ZM287.615 5.952L288.574 5.66983C288.276 4.65605 287.611 3.91472 286.622 3.54367L286.27 4.48L285.919 5.41633C286.295 5.55727 286.527 5.79728 286.655 6.23417L287.615 5.952ZM286.27 4.48L286.642 3.55152C285.845 3.23283 284.686 3.05633 283.259 2.96983L283.198 3.968L283.138 4.96617C284.527 5.05033 285.416 5.21517 285.899 5.40848L286.27 4.48ZM283.198 3.968H284.198V2.688H283.198H282.198V3.968H283.198ZM283.198 2.688L283.14 3.68627C285.347 3.81609 288.742 3.88 293.31 3.88V2.88V1.88C288.748 1.88 285.402 1.8159 283.257 1.68973L283.198 2.688ZM293.31 2.88V3.88C297.456 3.88 300.698 3.81599 303.03 3.68646L302.974 2.688L302.919 1.68954C300.643 1.81601 297.443 1.88 293.31 1.88V2.88ZM302.974 2.688H301.974V3.968H302.974H303.974V2.688H302.974ZM349.757 2.688H350.757V1.58301L349.658 1.69296L349.757 2.688ZM349.757 3.968L350.096 4.90889L350.757 4.67082V3.968H349.757ZM346.621 6.4L345.851 5.76243V5.76243L346.621 6.4ZM343.869 11.584L344.807 11.9306L344.808 11.9272L343.869 11.584ZM330.365 48.128L330.274 49.1239L331.037 49.1933L331.303 48.4746L330.365 48.128ZM325.949 48.128L325.023 48.5052L325.302 49.1909L326.04 49.1239L325.949 48.128ZM309.629 8.064L308.699 8.43055L308.703 8.44125L309.629 8.064ZM307.709 4.992L308.371 4.24216V4.24216L307.709 4.992ZM305.597 3.968H304.597V4.90745L305.535 4.96605L305.597 3.968ZM305.597 2.688L305.647 1.68925L304.597 1.63675V2.688H305.597ZM325.053 2.688H326.053V1.6249L324.992 1.68987L325.053 2.688ZM325.053 3.968L325.106 4.96662L326.053 4.91675V3.968H325.053ZM321.597 4.544L321.998 5.46016V5.46016L321.597 4.544ZM321.341 9.344L322.272 8.97834L322.269 8.97261L321.341 9.344ZM332.605 38.016L331.674 38.3817L332.632 40.8205L333.543 38.3634L332.605 38.016ZM340.477 16.768L341.415 17.1154L341.417 17.1097L340.477 16.768ZM340.861 5.248L340.21 6.00725L340.219 6.0147L340.228 6.02195L340.861 5.248ZM336.893 3.968H335.893V4.92041L336.844 4.96681L336.893 3.968ZM336.893 2.688L336.937 1.68897L335.893 1.64291V2.688H336.893ZM344.893 2.88V3.88C346.874 3.88 348.531 3.81558 349.857 3.68304L349.757 2.688L349.658 1.69296C348.423 1.81642 346.838 1.88 344.893 1.88V2.88ZM349.757 2.688H348.757V3.968H349.757H350.757V2.688H349.757ZM349.757 3.968L349.418 3.02711C348.127 3.49191 346.944 4.44166 345.851 5.76243L346.621 6.4L347.391 7.03757C348.346 5.88368 349.253 5.21209 350.096 4.90889L349.757 3.968ZM346.621 6.4L345.851 5.76243C344.728 7.11847 343.763 8.96074 342.93 11.2408L343.869 11.584L344.808 11.9272C345.596 9.76992 346.466 8.15619 347.391 7.03757L346.621 6.4ZM343.869 11.584L342.931 11.2374L329.427 47.7814L330.365 48.128L331.303 48.4746L344.807 11.9306L343.869 11.584ZM330.365 48.128L330.456 47.1321C329.938 47.0851 329.153 47.064 328.125 47.064V48.064V49.064C329.145 49.064 329.853 49.0856 330.274 49.1239L330.365 48.128ZM328.125 48.064V47.064C327.138 47.064 326.375 47.0851 325.858 47.1321L325.949 48.128L326.04 49.1239C326.461 49.0855 327.149 49.064 328.125 49.064V48.064ZM325.949 48.128L326.875 47.7508L310.555 7.68675L309.629 8.064L308.703 8.44125L325.023 48.5052L325.949 48.128ZM309.629 8.064L310.559 7.69747C309.976 6.21719 309.263 5.0296 308.371 4.24216L307.709 4.992L307.047 5.74183C307.606 6.2344 308.172 7.09481 308.699 8.43052L309.629 8.064ZM307.709 4.992L308.371 4.24216C307.546 3.51459 306.639 3.03119 305.659 2.96995L305.597 3.968L305.535 4.96605C305.92 4.99014 306.421 5.1894 307.047 5.74184L307.709 4.992ZM305.597 3.968H306.597V2.688H305.597H304.597V3.968H305.597ZM305.597 2.688L305.547 3.68675C308.13 3.81589 311.391 3.88 315.325 3.88V2.88V1.88C311.409 1.88 308.184 1.8161 305.647 1.68925L305.597 2.688ZM315.325 2.88V3.88C319.723 3.88 322.991 3.8161 325.114 3.68613L325.053 2.688L324.992 1.68987C322.933 1.81589 319.716 1.88 315.325 1.88V2.88ZM325.053 2.688H324.053V3.968H325.053H326.053V2.688H325.053ZM325.053 3.968L325 2.96938C323.367 3.05535 322.057 3.25118 321.196 3.62784L321.597 4.544L321.998 5.46016C322.502 5.23948 323.496 5.05131 325.106 4.96662L325.053 3.968ZM321.597 4.544L321.196 3.62784C320.675 3.85574 320.247 4.21882 319.961 4.71986C319.681 5.20863 319.573 5.76521 319.573 6.336H320.573H321.573C321.573 6.01078 321.635 5.8207 321.697 5.71214C321.752 5.61584 321.836 5.53093 321.998 5.46016L321.597 4.544ZM320.573 6.336H319.573C319.573 7.25703 319.888 8.40419 320.413 9.71539L321.341 9.344L322.269 8.97261C321.77 7.7238 321.573 6.86564 321.573 6.336H320.573ZM321.341 9.344L320.41 9.70965L331.674 38.3817L332.605 38.016L333.536 37.6503L322.272 8.97835L321.341 9.344ZM332.605 38.016L333.543 38.3634L341.415 17.1154L340.477 16.768L339.539 16.4206L331.667 37.6686L332.605 38.016ZM340.477 16.768L341.417 17.1097C342.624 13.7895 343.269 11.0558 343.269 8.96H342.269H341.269C341.269 10.7042 340.719 13.1759 339.537 16.4263L340.477 16.768ZM342.269 8.96H343.269C343.269 7.08125 342.749 5.50032 341.494 4.47404L340.861 5.248L340.228 6.02195C340.851 6.53167 341.269 7.42541 341.269 8.96H342.269ZM340.861 5.248L341.512 4.48874C340.383 3.52115 338.81 3.06032 336.942 2.96919L336.893 3.968L336.844 4.96681C338.475 5.04635 339.547 5.43885 340.21 6.00725L340.861 5.248ZM336.893 3.968H337.893V2.688H336.893H335.893V3.968H336.893ZM336.893 2.688L336.849 3.68703C339.762 3.81555 342.444 3.88 344.893 3.88V2.88V1.88C342.478 1.88 339.826 1.81644 336.937 1.68897L336.893 2.688ZM388.091 48L388.047 48.999L389.22 49.0508L389.084 47.8841L388.091 48ZM352.571 48H351.571V49.0282L352.599 48.9996L352.571 48ZM352.571 46.72L352.51 45.7218L351.571 45.7788V46.72H352.571ZM355.643 46.208L355.292 45.2717L355.282 45.2755L355.272 45.2795L355.643 46.208ZM356.987 44.736L356.044 44.4032L356.035 44.4283L356.028 44.4538L356.987 44.736ZM356.987 5.952L356.028 6.23417L356.035 6.25971L356.044 6.28482L356.987 5.952ZM355.643 4.48L355.272 5.40848L355.282 5.41251L355.292 5.41633L355.643 4.48ZM352.571 3.968H351.571V4.90923L352.51 4.96617L352.571 3.968ZM352.571 2.688L352.599 1.68839L351.571 1.65984V2.688H352.571ZM386.811 2.688L387.807 2.77204L387.903 1.63397L386.763 1.68917L386.811 2.688ZM386.555 16.512V17.512H387.688L387.547 16.388L386.555 16.512ZM385.083 16.512L384.093 16.6508L384.213 17.512H385.083V16.512ZM381.627 6.912L380.886 7.58381V7.58381L381.627 6.912ZM369.083 4.48L369.419 5.42174V5.42174L369.083 4.48ZM367.867 5.76L368.809 6.09633L368.812 6.08632L368.816 6.07623L367.867 5.76ZM367.547 24.576H366.547V25.576H367.547V24.576ZM374.715 22.08L373.903 21.4968L373.898 21.5037L373.893 21.5108L374.715 22.08ZM377.211 16.128V15.128H376.394L376.231 15.9284L377.211 16.128ZM378.683 16.128L379.68 16.1992L379.757 15.128H378.683V16.128ZM378.875 34.304V35.304H379.943L379.873 34.2382L378.875 34.304ZM377.403 34.304L376.415 34.4611L376.549 35.304H377.403V34.304ZM367.547 25.856V24.856H366.547V25.856H367.547ZM367.867 44.992L366.918 45.3082L366.922 45.3183L366.925 45.3283L367.867 44.992ZM382.395 43.456L381.651 42.7879L381.65 42.7888L382.395 43.456ZM386.363 32.896V31.896H385.506L385.375 32.7427L386.363 32.896ZM387.835 32.896L388.831 32.9865L388.93 31.896H387.835V32.896ZM387.643 38.272H386.643C386.643 42.2183 386.793 45.5031 387.098 48.1159L388.091 48L389.084 47.8841C388.792 45.3769 388.643 42.1764 388.643 38.272H387.643ZM388.091 48L388.135 47.001C385.21 46.8719 380.305 46.808 373.435 46.808V47.808V48.808C380.304 48.808 385.17 48.8721 388.047 48.999L388.091 48ZM373.435 47.808V46.808C364.132 46.808 357.166 46.872 352.543 47.0004L352.571 48L352.599 48.9996C357.192 48.872 364.136 48.808 373.435 48.808V47.808ZM352.571 48H353.571V46.72H352.571H351.571V48H352.571ZM352.571 46.72L352.631 47.7182C354.059 47.6317 355.218 47.4552 356.014 47.1365L355.643 46.208L355.272 45.2795C354.788 45.4728 353.899 45.6377 352.51 45.7218L352.571 46.72ZM355.643 46.208L355.994 47.1443C356.984 46.7733 357.648 46.0319 357.946 45.0182L356.987 44.736L356.028 44.4538C355.899 44.8907 355.668 45.1307 355.292 45.2717L355.643 46.208ZM356.987 44.736L357.93 45.0688C358.246 44.1727 358.371 42.8536 358.371 41.216H357.371H356.371C356.371 42.8211 356.24 43.8487 356.044 44.4032L356.987 44.736ZM357.371 41.216H358.371V9.472H357.371H356.371V41.216H357.371ZM357.371 9.472H358.371C358.371 7.83442 358.246 6.51532 357.93 5.61918L356.987 5.952L356.044 6.28482C356.24 6.83934 356.371 7.86691 356.371 9.472H357.371ZM356.987 5.952L357.946 5.66983C357.648 4.65605 356.984 3.91472 355.994 3.54367L355.643 4.48L355.292 5.41633C355.668 5.55727 355.899 5.79728 356.028 6.23417L356.987 5.952ZM355.643 4.48L356.014 3.55152C355.218 3.23283 354.059 3.05633 352.631 2.96983L352.571 3.968L352.51 4.96617C353.899 5.05033 354.788 5.21517 355.272 5.40848L355.643 4.48ZM352.571 3.968H353.571V2.688H352.571H351.571V3.968H352.571ZM352.571 2.688L352.543 3.68761C357.166 3.81601 364.132 3.88 373.435 3.88V2.88V1.88C364.136 1.88 357.192 1.81598 352.599 1.68839L352.571 2.688ZM373.435 2.88V3.88C379.707 3.88 384.187 3.81611 386.859 3.68683L386.811 2.688L386.763 1.68917C384.144 1.81588 379.707 1.88 373.435 1.88V2.88ZM386.811 2.688L385.815 2.60396C385.514 6.16591 385.363 9.35211 385.363 12.16H386.363H387.363C387.363 9.42122 387.511 6.29275 387.807 2.77204L386.811 2.688ZM386.363 12.16H385.363C385.363 14.0511 385.427 15.5504 385.563 16.636L386.555 16.512L387.547 16.388C387.427 15.4256 387.363 14.0235 387.363 12.16H386.363ZM386.555 16.512V15.512H385.083V16.512V17.512H386.555V16.512ZM385.083 16.512L386.073 16.3732C385.426 11.7558 384.24 8.30449 382.368 6.24018L381.627 6.912L380.886 7.58381C382.342 9.18884 383.46 12.1375 384.093 16.6508L385.083 16.512ZM381.627 6.912L382.368 6.24018C380.473 4.15095 377.83 3.16 374.587 3.16V4.16V5.16C377.402 5.16 379.453 6.00371 380.886 7.58381L381.627 6.912ZM374.587 4.16V3.16H371.963V4.16V5.16H374.587V4.16ZM371.963 4.16V3.16C370.622 3.16 369.516 3.26355 368.747 3.53826L369.083 4.48L369.419 5.42174C369.845 5.26977 370.658 5.16 371.963 5.16V4.16ZM369.083 4.48L368.747 3.53826C367.839 3.86231 367.222 4.53368 366.918 5.44377L367.867 5.76L368.816 6.07623C368.939 5.70632 369.132 5.52436 369.419 5.42174L369.083 4.48ZM367.867 5.76L366.925 5.42366C366.65 6.19477 366.547 7.32518 366.547 8.704H367.547H368.547C368.547 7.35215 368.657 6.51989 368.809 6.09633L367.867 5.76ZM367.547 8.704H366.547V24.576H367.547H368.547V8.704H367.547ZM367.547 24.576V25.576H369.595V24.576V23.576H367.547V24.576ZM369.595 24.576V25.576C372.14 25.576 374.174 24.6179 375.537 22.6492L374.715 22.08L373.893 21.5108C372.952 22.8701 371.573 23.576 369.595 23.576V24.576ZM374.715 22.08L375.527 22.6632C376.816 20.8688 377.698 18.7495 378.191 16.3276L377.211 16.128L376.231 15.9284C375.786 18.1145 375.004 19.9632 373.903 21.4968L374.715 22.08ZM377.211 16.128V17.128H378.683V16.128V15.128H377.211V16.128ZM378.683 16.128L377.686 16.0568C377.556 17.8772 377.491 19.9068 377.491 22.144H378.491H379.491C379.491 19.9438 379.554 17.9628 379.68 16.1992L378.683 16.128ZM378.491 22.144H377.491V25.216H378.491H379.491V22.144H378.491ZM378.491 25.216H377.491C377.491 27.4246 377.621 30.4794 377.877 34.3698L378.875 34.304L379.873 34.2382C379.617 30.3633 379.491 27.3594 379.491 25.216H378.491ZM378.875 34.304V33.304H377.403V34.304V35.304H378.875V34.304ZM377.403 34.304L378.391 34.1469C377.926 31.2253 376.999 28.897 375.513 27.2893C373.998 25.65 371.99 24.856 369.595 24.856V25.856V26.856C371.509 26.856 372.957 27.47 374.045 28.6467C375.161 29.855 375.984 31.7507 376.415 34.4611L377.403 34.304ZM369.595 25.856V24.856H367.547V25.856V26.856H369.595V25.856ZM367.547 25.856H366.547V41.984H367.547H368.547V25.856H367.547ZM367.547 41.984H366.547C366.547 43.3702 366.652 44.5079 366.918 45.3082L367.867 44.992L368.816 44.6758C368.656 44.1962 368.547 43.3285 368.547 41.984H367.547ZM367.867 44.992L366.925 45.3283C367.239 46.208 367.867 46.8356 368.747 47.1497L369.083 46.208L369.419 45.2663C369.104 45.1538 368.921 44.9706 368.809 44.6557L367.867 44.992ZM369.083 46.208L368.747 47.1497C369.516 47.4244 370.622 47.528 371.963 47.528V46.528V45.528C370.658 45.528 369.845 45.4182 369.419 45.2663L369.083 46.208ZM371.963 46.528V47.528H375.099V46.528V45.528H371.963V46.528ZM375.099 46.528V47.528C378.38 47.528 381.095 46.4059 383.14 44.1232L382.395 43.456L381.65 42.7888C380.026 44.6021 377.876 45.528 375.099 45.528V46.528ZM382.395 43.456L383.139 44.1241C385.212 41.8151 386.574 38.0598 387.351 33.0493L386.363 32.896L385.375 32.7427C384.616 37.6309 383.332 40.9156 381.651 42.7879L382.395 43.456ZM386.363 32.896V33.896H387.835V32.896V31.896H386.363V32.896ZM387.835 32.896L386.839 32.8055C386.707 34.255 386.643 36.08 386.643 38.272H387.643H388.643C388.643 36.112 388.707 34.353 388.831 32.9865L387.835 32.896Z" fill="#225C04" fill-opacity="0.01" mask="url(#path-1-outside-1_133_28)"/>
</svg>
