<svg width="54" height="44" viewBox="0 0 54 44" fill="none" xmlns="http://www.w3.org/2000/svg">
<path d="M21.6 5.17647C21.6 2.31758 24.0176 0 27 0C29.9824 0 32.4 2.31758 32.4 5.17647V8.38345C42.1103 10.679 49.275 19.0939 49.275 29.113C49.275 30.1853 48.3683 31.0542 47.25 31.0542H6.75C5.63163 31.0542 4.725 30.1853 4.725 29.113C4.725 19.1208 11.9279 10.7409 21.6 8.40975V5.17647ZM30.375 14.2353C29.2567 14.2353 28.35 15.1044 28.35 16.1765C28.35 17.2485 29.2567 18.1176 30.375 18.1176C33.7586 18.1176 36.1603 19.7181 38.1659 22.4659C38.8068 23.3441 40.0696 23.5581 40.986 22.9434C41.9021 22.329 42.1254 21.1184 41.4841 20.2401C38.9734 16.8001 35.4672 14.2353 30.375 14.2353ZM0 38.8235C0 35.9646 2.41766 33.6471 5.4 33.6471H48.6C51.5824 33.6471 54 35.9646 54 38.8235C54 41.6825 51.5824 44 48.6 44H5.4C2.41766 44 0 41.6825 0 38.8235Z" fill="#B89B5E" fill-opacity="0.95"/>
</svg>
